<?xml version="1.0" encoding="UTF-8" standalone="no"?>
<!DOCTYPE svg PUBLIC "-//W3C//DTD SVG 1.1//EN"
 "http://www.w3.org/Graphics/SVG/1.1/DTD/svg11.dtd">
<!-- Generated by graphviz version 12.2.0 (20241103.1931)
 -->
<!-- Pages: 1 -->
<svg width="720pt" height="282pt"
 viewBox="0.00 0.00 719.93 282.00" xmlns="http://www.w3.org/2000/svg" xmlns:xlink="http://www.w3.org/1999/xlink">
<g id="graph0" class="graph" transform="scale(1 1) rotate(0) translate(4 278)">
<polygon fill="white" stroke="none" points="-4,4 -4,-278 715.93,-278 715.93,4 -4,4"/>
<!-- node_000002a1ef5990b0 -->
<g id="node1" class="node">
<title>node_000002a1ef5990b0</title>
<path fill="#ffa615" stroke="#004b00" d="M185.88,-191.5C185.88,-191.5 470.62,-191.5 470.62,-191.5 476.62,-191.5 482.62,-197.5 482.62,-203.5 482.62,-203.5 482.62,-261.5 482.62,-261.5 482.62,-267.5 476.62,-273.5 470.62,-273.5 470.62,-273.5 185.88,-273.5 185.88,-273.5 179.88,-273.5 173.88,-267.5 173.88,-261.5 173.88,-261.5 173.88,-203.5 173.88,-203.5 173.88,-197.5 179.88,-191.5 185.88,-191.5"/>
<text text-anchor="middle" x="328.25" y="-256.2" font-family="Times New Roman,serif" font-size="14.00">data = Akinator </text>
<text text-anchor="middle" x="328.25" y="-239.7" font-family="Times New Roman,serif" font-size="14.00"> addr: 000002a1ef5990b0</text>
<polyline fill="none" stroke="#004b00" points="173.88,-232.5 482.62,-232.5"/>
<text text-anchor="middle" x="250.5" y="-215.2" font-family="Times New Roman,serif" font-size="14.00">L:</text>
<text text-anchor="middle" x="250.5" y="-198.7" font-family="Times New Roman,serif" font-size="14.00"> addr: 000002a1ef5990f0</text>
<polyline fill="none" stroke="#004b00" points="327.12,-191.5 327.12,-232.5"/>
<text text-anchor="middle" x="404.88" y="-215.2" font-family="Times New Roman,serif" font-size="14.00">R: </text>
<text text-anchor="middle" x="404.88" y="-198.7" font-family="Times New Roman,serif" font-size="14.00"> addr: 000002a1ef599170</text>
</g>
<!-- node_000002a1ef5990f0 -->
<g id="node4" class="node">
<title>node_000002a1ef5990f0</title>
<path fill="#a2f8a4" stroke="#004b00" d="M12,-72.5C12,-72.5 306.5,-72.5 306.5,-72.5 312.5,-72.5 318.5,-78.5 318.5,-84.5 318.5,-84.5 318.5,-142.5 318.5,-142.5 318.5,-148.5 312.5,-154.5 306.5,-154.5 306.5,-154.5 12,-154.5 12,-154.5 6,-154.5 0,-148.5 0,-142.5 0,-142.5 0,-84.5 0,-84.5 0,-78.5 6,-72.5 12,-72.5"/>
<text text-anchor="middle" x="159.25" y="-137.2" font-family="Times New Roman,serif" font-size="14.00">data = YES_YES </text>
<text text-anchor="middle" x="159.25" y="-120.7" font-family="Times New Roman,serif" font-size="14.00"> addr: 000002a1ef5990f0</text>
<polyline fill="none" stroke="#004b00" points="0,-113.5 318.5,-113.5"/>
<text text-anchor="middle" x="79.62" y="-96.2" font-family="Times New Roman,serif" font-size="14.00">L:</text>
<text text-anchor="middle" x="79.62" y="-79.7" font-family="Times New Roman,serif" font-size="14.00"> addr: 0000000000000000</text>
<polyline fill="none" stroke="#004b00" points="159.25,-72.5 159.25,-113.5"/>
<text text-anchor="middle" x="238.88" y="-96.2" font-family="Times New Roman,serif" font-size="14.00">R: </text>
<text text-anchor="middle" x="238.88" y="-79.7" font-family="Times New Roman,serif" font-size="14.00"> addr: 0000000000000000</text>
</g>
<!-- node_000002a1ef5990b0&#45;&gt;node_000002a1ef5990f0 -->
<g id="edge2" class="edge">
<title>node_000002a1ef5990b0&#45;&gt;node_000002a1ef5990f0</title>
<path fill="none" stroke="#004b00" d="M270.09,-191.24C256.15,-181.58 241.14,-171.2 226.82,-161.28"/>
<polygon fill="#004b00" stroke="#004b00" points="228.98,-158.51 218.76,-155.7 224.99,-164.27 228.98,-158.51"/>
</g>
<!-- node_000002a1ef599170 -->
<g id="node5" class="node">
<title>node_000002a1ef599170</title>
<path fill="#a2f8a4" stroke="#004b00" d="M349,-72.5C349,-72.5 643.5,-72.5 643.5,-72.5 649.5,-72.5 655.5,-78.5 655.5,-84.5 655.5,-84.5 655.5,-142.5 655.5,-142.5 655.5,-148.5 649.5,-154.5 643.5,-154.5 643.5,-154.5 349,-154.5 349,-154.5 343,-154.5 337,-148.5 337,-142.5 337,-142.5 337,-84.5 337,-84.5 337,-78.5 343,-72.5 349,-72.5"/>
<text text-anchor="middle" x="496.25" y="-137.2" font-family="Times New Roman,serif" font-size="14.00">data = NO_NO </text>
<text text-anchor="middle" x="496.25" y="-120.7" font-family="Times New Roman,serif" font-size="14.00"> addr: 000002a1ef599170</text>
<polyline fill="none" stroke="#004b00" points="337,-113.5 655.5,-113.5"/>
<text text-anchor="middle" x="416.62" y="-96.2" font-family="Times New Roman,serif" font-size="14.00">L:</text>
<text text-anchor="middle" x="416.62" y="-79.7" font-family="Times New Roman,serif" font-size="14.00"> addr: 0000000000000000</text>
<polyline fill="none" stroke="#004b00" points="496.25,-72.5 496.25,-113.5"/>
<text text-anchor="middle" x="575.88" y="-96.2" font-family="Times New Roman,serif" font-size="14.00">R: </text>
<text text-anchor="middle" x="575.88" y="-79.7" font-family="Times New Roman,serif" font-size="14.00"> addr: 0000000000000000</text>
</g>
<!-- node_000002a1ef5990b0&#45;&gt;node_000002a1ef599170 -->
<g id="edge3" class="edge">
<title>node_000002a1ef5990b0&#45;&gt;node_000002a1ef599170</title>
<path fill="none" stroke="#004b00" d="M386.07,-191.24C399.93,-181.58 414.84,-171.2 429.08,-161.28"/>
<polygon fill="#004b00" stroke="#004b00" points="430.88,-164.29 437.09,-155.7 426.88,-158.55 430.88,-164.29"/>
</g>
<!-- 1 -->
<g id="node2" class="node">
<title>1</title>
<ellipse fill="#fe5656" stroke="#581804" cx="691.25" cy="-232.5" rx="18" ry="18"/>
<text text-anchor="middle" x="691.25" y="-227.45" font-family="Times New Roman,serif" font-size="14.00">1</text>
</g>
<!-- 2 -->
<g id="node3" class="node">
<title>2</title>
<ellipse fill="#fe5656" stroke="#581804" cx="691.25" cy="-113.5" rx="18" ry="18"/>
<text text-anchor="middle" x="691.25" y="-108.45" font-family="Times New Roman,serif" font-size="14.00">2</text>
</g>
<!-- 1&#45;&gt;2 -->
<g id="edge1" class="edge">
<title>1&#45;&gt;2</title>
<path fill="none" stroke="white" d="M686.35,-214.74C684.26,-195.88 683.94,-164.96 685.4,-142.44"/>
<polygon fill="white" stroke="white" points="688.86,-143 686.22,-132.74 681.89,-142.41 688.86,-143"/>
</g>
<!-- 1&#45;&gt;2 -->
<g id="edge4" class="edge">
<title>1&#45;&gt;2</title>
<path fill="none" stroke="white" d="M696.15,-214.74C698.24,-195.88 698.56,-164.96 697.1,-142.44"/>
<polygon fill="white" stroke="white" points="700.61,-142.41 696.28,-132.74 693.64,-143 700.61,-142.41"/>
</g>
<!-- 3 -->
<g id="node6" class="node">
<title>3</title>
<ellipse fill="#fe5656" stroke="#581804" cx="691.25" cy="-18" rx="18" ry="18"/>
<text text-anchor="middle" x="691.25" y="-12.95" font-family="Times New Roman,serif" font-size="14.00">3</text>
</g>
<!-- 2&#45;&gt;3 -->
<g id="edge5" class="edge">
<title>2&#45;&gt;3</title>
<path fill="none" stroke="white" d="M677.59,-101.41C670.31,-86.51 669.06,-59.7 673.84,-40.71"/>
<polygon fill="white" stroke="white" points="677.06,-42.1 677.09,-31.51 670.46,-39.77 677.06,-42.1"/>
</g>
<!-- 2&#45;&gt;3 -->
<g id="edge8" class="edge">
<title>2&#45;&gt;3</title>
<path fill="none" stroke="white" d="M685.93,-95.78C684.41,-82.22 684.1,-62.81 685.01,-46.9"/>
<polygon fill="white" stroke="white" points="688.49,-47.33 685.83,-37.08 681.51,-46.76 688.49,-47.33"/>
</g>
<!-- 2&#45;&gt;3 -->
<g id="edge9" class="edge">
<title>2&#45;&gt;3</title>
<path fill="none" stroke="white" d="M696.57,-95.78C698.09,-82.22 698.4,-62.81 697.49,-46.9"/>
<polygon fill="white" stroke="white" points="700.99,-46.76 696.67,-37.08 694.01,-47.33 700.99,-46.76"/>
</g>
<!-- 2&#45;&gt;3 -->
<g id="edge12" class="edge">
<title>2&#45;&gt;3</title>
<path fill="none" stroke="white" d="M704.91,-101.41C712.19,-86.51 713.44,-59.7 708.66,-40.71"/>
<polygon fill="white" stroke="white" points="712.04,-39.77 705.41,-31.51 705.44,-42.1 712.04,-39.77"/>
</g>
<!-- node_l_null_000002a1ef5990f0 -->
<g id="node7" class="node">
<title>node_l_null_000002a1ef5990f0</title>
<ellipse fill="#a2f0f8" stroke="#007cff" cx="123.25" cy="-18" rx="27" ry="18"/>
<text text-anchor="middle" x="123.25" y="-12.95" font-family="Times New Roman,serif" font-size="14.00">null</text>
</g>
<!-- node_000002a1ef5990f0&#45;&gt;node_l_null_000002a1ef5990f0 -->
<g id="edge6" class="edge">
<title>node_000002a1ef5990f0&#45;&gt;node_l_null_000002a1ef5990f0</title>
<path fill="none" stroke="#007cff" d="M143.67,-72.03C140.31,-63.31 136.84,-54.29 133.73,-46.22"/>
<polygon fill="#007cff" stroke="#007cff" points="137.03,-45.06 130.17,-36.98 130.5,-47.57 137.03,-45.06"/>
</g>
<!-- node_r_null_000002a1ef5990f0 -->
<g id="node8" class="node">
<title>node_r_null_000002a1ef5990f0</title>
<ellipse fill="#a2f0f8" stroke="#007cff" cx="196.25" cy="-18" rx="27.81" ry="18"/>
<text text-anchor="middle" x="196.25" y="-12.95" font-family="Times New Roman,serif" font-size="14.00"> null</text>
</g>
<!-- node_000002a1ef5990f0&#45;&gt;node_r_null_000002a1ef5990f0 -->
<g id="edge7" class="edge">
<title>node_000002a1ef5990f0&#45;&gt;node_r_null_000002a1ef5990f0</title>
<path fill="none" stroke="#007cff" d="M175.26,-72.03C178.71,-63.31 182.28,-54.29 185.48,-46.22"/>
<polygon fill="#007cff" stroke="#007cff" points="188.71,-47.56 189.14,-36.98 182.2,-44.99 188.71,-47.56"/>
</g>
<!-- node_l_null_000002a1ef599170 -->
<g id="node9" class="node">
<title>node_l_null_000002a1ef599170</title>
<ellipse fill="#a2f0f8" stroke="#007cff" cx="459.25" cy="-18" rx="27" ry="18"/>
<text text-anchor="middle" x="459.25" y="-12.95" font-family="Times New Roman,serif" font-size="14.00">null</text>
</g>
<!-- node_000002a1ef599170&#45;&gt;node_l_null_000002a1ef599170 -->
<g id="edge10" class="edge">
<title>node_000002a1ef599170&#45;&gt;node_l_null_000002a1ef599170</title>
<path fill="none" stroke="#007cff" d="M480.24,-72.03C476.79,-63.31 473.22,-54.29 470.02,-46.22"/>
<polygon fill="#007cff" stroke="#007cff" points="473.3,-44.99 466.36,-36.98 466.79,-47.56 473.3,-44.99"/>
</g>
<!-- node_r_null_000002a1ef599170 -->
<g id="node10" class="node">
<title>node_r_null_000002a1ef599170</title>
<ellipse fill="#a2f0f8" stroke="#007cff" cx="532.25" cy="-18" rx="27.81" ry="18"/>
<text text-anchor="middle" x="532.25" y="-12.95" font-family="Times New Roman,serif" font-size="14.00"> null</text>
</g>
<!-- node_000002a1ef599170&#45;&gt;node_r_null_000002a1ef599170 -->
<g id="edge11" class="edge">
<title>node_000002a1ef599170&#45;&gt;node_r_null_000002a1ef599170</title>
<path fill="none" stroke="#007cff" d="M511.83,-72.03C515.19,-63.31 518.66,-54.29 521.77,-46.22"/>
<polygon fill="#007cff" stroke="#007cff" points="525,-47.57 525.33,-36.98 518.47,-45.06 525,-47.57"/>
</g>
</g>
</svg>
