<?xml version="1.0" encoding="UTF-8" standalone="no"?>
<!DOCTYPE svg PUBLIC "-//W3C//DTD SVG 1.1//EN"
 "http://www.w3.org/Graphics/SVG/1.1/DTD/svg11.dtd">
<!-- Generated by graphviz version 12.2.0 (20241103.1931)
 -->
<!-- Pages: 1 -->
<svg width="1723pt" height="639pt"
 viewBox="0.00 0.00 1722.66 639.00" xmlns="http://www.w3.org/2000/svg" xmlns:xlink="http://www.w3.org/1999/xlink">
<g id="graph0" class="graph" transform="scale(1 1) rotate(0) translate(4 635)">
<polygon fill="white" stroke="none" points="-4,4 -4,-635 1718.66,-635 1718.66,4 -4,4"/>
<!-- node_000001be97889150 -->
<g id="node1" class="node">
<title>node_000001be97889150</title>
<path fill="#ffa615" stroke="#004b00" d="M230.88,-548.5C230.88,-548.5 521.62,-548.5 521.62,-548.5 527.62,-548.5 533.62,-554.5 533.62,-560.5 533.62,-560.5 533.62,-618.5 533.62,-618.5 533.62,-624.5 527.62,-630.5 521.62,-630.5 521.62,-630.5 230.88,-630.5 230.88,-630.5 224.88,-630.5 218.88,-624.5 218.88,-618.5 218.88,-618.5 218.88,-560.5 218.88,-560.5 218.88,-554.5 224.88,-548.5 230.88,-548.5"/>
<text text-anchor="middle" x="376.25" y="-613.2" font-family="Times New Roman,serif" font-size="14.00">data = Qvadrober </text>
<text text-anchor="middle" x="376.25" y="-596.7" font-family="Times New Roman,serif" font-size="14.00"> addr: 000001be97889150</text>
<polyline fill="none" stroke="#004b00" points="218.88,-589.5 533.62,-589.5"/>
<text text-anchor="middle" x="298.12" y="-572.2" font-family="Times New Roman,serif" font-size="14.00">L:</text>
<text text-anchor="middle" x="298.12" y="-555.7" font-family="Times New Roman,serif" font-size="14.00"> addr: 000001be978891d0</text>
<polyline fill="none" stroke="#004b00" points="377.38,-548.5 377.38,-589.5"/>
<text text-anchor="middle" x="455.5" y="-572.2" font-family="Times New Roman,serif" font-size="14.00">R: </text>
<text text-anchor="middle" x="455.5" y="-555.7" font-family="Times New Roman,serif" font-size="14.00"> addr: 000001be978891f0</text>
</g>
<!-- node_000001be978891d0 -->
<g id="node4" class="node">
<title>node_000001be978891d0</title>
<path fill="#a2f8a4" stroke="#004b00" d="M61,-429.5C61,-429.5 355.5,-429.5 355.5,-429.5 361.5,-429.5 367.5,-435.5 367.5,-441.5 367.5,-441.5 367.5,-499.5 367.5,-499.5 367.5,-505.5 361.5,-511.5 355.5,-511.5 355.5,-511.5 61,-511.5 61,-511.5 55,-511.5 49,-505.5 49,-499.5 49,-499.5 49,-441.5 49,-441.5 49,-435.5 55,-429.5 61,-429.5"/>
<text text-anchor="middle" x="208.25" y="-494.2" font-family="Times New Roman,serif" font-size="14.00">data = Ded </text>
<text text-anchor="middle" x="208.25" y="-477.7" font-family="Times New Roman,serif" font-size="14.00"> addr: 000001be978891d0</text>
<polyline fill="none" stroke="#004b00" points="49,-470.5 367.5,-470.5"/>
<text text-anchor="middle" x="128.62" y="-453.2" font-family="Times New Roman,serif" font-size="14.00">L:</text>
<text text-anchor="middle" x="128.62" y="-436.7" font-family="Times New Roman,serif" font-size="14.00"> addr: 0000000000000000</text>
<polyline fill="none" stroke="#004b00" points="208.25,-429.5 208.25,-470.5"/>
<text text-anchor="middle" x="287.88" y="-453.2" font-family="Times New Roman,serif" font-size="14.00">R: </text>
<text text-anchor="middle" x="287.88" y="-436.7" font-family="Times New Roman,serif" font-size="14.00"> addr: 0000000000000000</text>
</g>
<!-- node_000001be97889150&#45;&gt;node_000001be978891d0 -->
<g id="edge2" class="edge">
<title>node_000001be97889150&#45;&gt;node_000001be978891d0</title>
<path fill="none" stroke="#004b00" d="M318.43,-548.24C304.57,-538.58 289.66,-528.2 275.42,-518.28"/>
<polygon fill="#004b00" stroke="#004b00" points="277.62,-515.55 267.41,-512.7 273.62,-521.29 277.62,-515.55"/>
</g>
<!-- node_000001be978891f0 -->
<g id="node5" class="node">
<title>node_000001be978891f0</title>
<path fill="#a2f8a4" stroke="#004b00" d="M397.75,-429.5C397.75,-429.5 690.75,-429.5 690.75,-429.5 696.75,-429.5 702.75,-435.5 702.75,-441.5 702.75,-441.5 702.75,-499.5 702.75,-499.5 702.75,-505.5 696.75,-511.5 690.75,-511.5 690.75,-511.5 397.75,-511.5 397.75,-511.5 391.75,-511.5 385.75,-505.5 385.75,-499.5 385.75,-499.5 385.75,-441.5 385.75,-441.5 385.75,-435.5 391.75,-429.5 397.75,-429.5"/>
<text text-anchor="middle" x="544.25" y="-494.2" font-family="Times New Roman,serif" font-size="14.00">data = Zhivitnoe </text>
<text text-anchor="middle" x="544.25" y="-477.7" font-family="Times New Roman,serif" font-size="14.00"> addr: 000001be978891f0</text>
<polyline fill="none" stroke="#004b00" points="385.75,-470.5 702.75,-470.5"/>
<text text-anchor="middle" x="465" y="-453.2" font-family="Times New Roman,serif" font-size="14.00">L:</text>
<text text-anchor="middle" x="465" y="-436.7" font-family="Times New Roman,serif" font-size="14.00"> addr: 000001be97889230</text>
<polyline fill="none" stroke="#004b00" points="544.25,-429.5 544.25,-470.5"/>
<text text-anchor="middle" x="623.5" y="-453.2" font-family="Times New Roman,serif" font-size="14.00">R: </text>
<text text-anchor="middle" x="623.5" y="-436.7" font-family="Times New Roman,serif" font-size="14.00"> addr: 000001be97889330</text>
</g>
<!-- node_000001be97889150&#45;&gt;node_000001be978891f0 -->
<g id="edge3" class="edge">
<title>node_000001be97889150&#45;&gt;node_000001be978891f0</title>
<path fill="none" stroke="#004b00" d="M434.07,-548.24C447.93,-538.58 462.84,-528.2 477.08,-518.28"/>
<polygon fill="#004b00" stroke="#004b00" points="478.88,-521.29 485.09,-512.7 474.88,-515.55 478.88,-521.29"/>
</g>
<!-- 1 -->
<g id="node2" class="node">
<title>1</title>
<ellipse fill="#fe5656" stroke="#581804" cx="1667.25" cy="-589.5" rx="18" ry="18"/>
<text text-anchor="middle" x="1667.25" y="-584.45" font-family="Times New Roman,serif" font-size="14.00">1</text>
</g>
<!-- 2 -->
<g id="node3" class="node">
<title>2</title>
<ellipse fill="#fe5656" stroke="#581804" cx="1667.25" cy="-470.5" rx="18" ry="18"/>
<text text-anchor="middle" x="1667.25" y="-465.45" font-family="Times New Roman,serif" font-size="14.00">2</text>
</g>
<!-- 1&#45;&gt;2 -->
<g id="edge1" class="edge">
<title>1&#45;&gt;2</title>
<path fill="none" stroke="white" d="M1662.35,-571.74C1660.26,-552.88 1659.94,-521.96 1661.4,-499.44"/>
<polygon fill="white" stroke="white" points="1664.86,-500 1662.22,-489.74 1657.89,-499.41 1664.86,-500"/>
</g>
<!-- 1&#45;&gt;2 -->
<g id="edge4" class="edge">
<title>1&#45;&gt;2</title>
<path fill="none" stroke="white" d="M1672.15,-571.74C1674.24,-552.88 1674.56,-521.96 1673.1,-499.44"/>
<polygon fill="white" stroke="white" points="1676.61,-499.41 1672.28,-489.74 1669.64,-500 1676.61,-499.41"/>
</g>
<!-- 3 -->
<g id="node6" class="node">
<title>3</title>
<ellipse fill="#fe5656" stroke="#581804" cx="1667.25" cy="-351.5" rx="18" ry="18"/>
<text text-anchor="middle" x="1667.25" y="-346.45" font-family="Times New Roman,serif" font-size="14.00">3</text>
</g>
<!-- 2&#45;&gt;3 -->
<g id="edge5" class="edge">
<title>2&#45;&gt;3</title>
<path fill="none" stroke="white" d="M1654.33,-457.42C1645.94,-438.15 1644.75,-400.14 1650.76,-375.54"/>
<polygon fill="white" stroke="white" points="1654.05,-376.72 1653.81,-366.13 1647.4,-374.56 1654.05,-376.72"/>
</g>
<!-- 2&#45;&gt;3 -->
<g id="edge8" class="edge">
<title>2&#45;&gt;3</title>
<path fill="none" stroke="white" d="M1662.35,-452.74C1660.26,-433.88 1659.94,-402.96 1661.4,-380.44"/>
<polygon fill="white" stroke="white" points="1664.86,-381 1662.22,-370.74 1657.89,-380.41 1664.86,-381"/>
</g>
<!-- 2&#45;&gt;3 -->
<g id="edge9" class="edge">
<title>2&#45;&gt;3</title>
<path fill="none" stroke="white" d="M1672.15,-452.74C1674.24,-433.88 1674.56,-402.96 1673.1,-380.44"/>
<polygon fill="white" stroke="white" points="1676.61,-380.41 1672.28,-370.74 1669.64,-381 1676.61,-380.41"/>
</g>
<!-- 2&#45;&gt;3 -->
<g id="edge12" class="edge">
<title>2&#45;&gt;3</title>
<path fill="none" stroke="white" d="M1680.17,-457.42C1688.56,-438.15 1689.75,-400.14 1683.74,-375.54"/>
<polygon fill="white" stroke="white" points="1687.1,-374.56 1680.69,-366.13 1680.45,-376.72 1687.1,-374.56"/>
</g>
<!-- node_l_null_000001be978891d0 -->
<g id="node7" class="node">
<title>node_l_null_000001be978891d0</title>
<ellipse fill="#a2f0f8" stroke="#007cff" cx="171.25" cy="-351.5" rx="27" ry="18"/>
<text text-anchor="middle" x="171.25" y="-346.45" font-family="Times New Roman,serif" font-size="14.00">null</text>
</g>
<!-- node_000001be978891d0&#45;&gt;node_l_null_000001be978891d0 -->
<g id="edge6" class="edge">
<title>node_000001be978891d0&#45;&gt;node_l_null_000001be978891d0</title>
<path fill="none" stroke="#007cff" d="M195.52,-429.24C190.4,-413.07 184.64,-394.83 180.01,-380.2"/>
<polygon fill="#007cff" stroke="#007cff" points="183.38,-379.26 177.03,-370.78 176.71,-381.37 183.38,-379.26"/>
</g>
<!-- node_r_null_000001be978891d0 -->
<g id="node8" class="node">
<title>node_r_null_000001be978891d0</title>
<ellipse fill="#a2f0f8" stroke="#007cff" cx="244.25" cy="-351.5" rx="27.81" ry="18"/>
<text text-anchor="middle" x="244.25" y="-346.45" font-family="Times New Roman,serif" font-size="14.00"> null</text>
</g>
<!-- node_000001be978891d0&#45;&gt;node_r_null_000001be978891d0 -->
<g id="edge7" class="edge">
<title>node_000001be978891d0&#45;&gt;node_r_null_000001be978891d0</title>
<path fill="none" stroke="#007cff" d="M220.64,-429.24C225.58,-413.17 231.15,-395.07 235.64,-380.48"/>
<polygon fill="#007cff" stroke="#007cff" points="238.93,-381.68 238.53,-371.09 232.24,-379.62 238.93,-381.68"/>
</g>
<!-- node_000001be97889230 -->
<g id="node9" class="node">
<title>node_000001be97889230</title>
<path fill="#a2f8a4" stroke="#004b00" d="M349.75,-310.5C349.75,-310.5 642.75,-310.5 642.75,-310.5 648.75,-310.5 654.75,-316.5 654.75,-322.5 654.75,-322.5 654.75,-380.5 654.75,-380.5 654.75,-386.5 648.75,-392.5 642.75,-392.5 642.75,-392.5 349.75,-392.5 349.75,-392.5 343.75,-392.5 337.75,-386.5 337.75,-380.5 337.75,-380.5 337.75,-322.5 337.75,-322.5 337.75,-316.5 343.75,-310.5 349.75,-310.5"/>
<text text-anchor="middle" x="496.25" y="-375.2" font-family="Times New Roman,serif" font-size="14.00">data = Na phistexe </text>
<text text-anchor="middle" x="496.25" y="-358.7" font-family="Times New Roman,serif" font-size="14.00"> addr: 000001be97889230</text>
<polyline fill="none" stroke="#004b00" points="337.75,-351.5 654.75,-351.5"/>
<text text-anchor="middle" x="417" y="-334.2" font-family="Times New Roman,serif" font-size="14.00">L:</text>
<text text-anchor="middle" x="417" y="-317.7" font-family="Times New Roman,serif" font-size="14.00"> addr: 000001be97889290</text>
<polyline fill="none" stroke="#004b00" points="496.25,-310.5 496.25,-351.5"/>
<text text-anchor="middle" x="575.5" y="-334.2" font-family="Times New Roman,serif" font-size="14.00">R: </text>
<text text-anchor="middle" x="575.5" y="-317.7" font-family="Times New Roman,serif" font-size="14.00"> addr: 000001be978892d0</text>
</g>
<!-- node_000001be978891f0&#45;&gt;node_000001be97889230 -->
<g id="edge10" class="edge">
<title>node_000001be978891f0&#45;&gt;node_000001be97889230</title>
<path fill="none" stroke="#004b00" d="M527.73,-429.24C524.3,-420.87 520.64,-411.95 517.08,-403.27"/>
<polygon fill="#004b00" stroke="#004b00" points="520.41,-402.16 513.37,-394.24 513.93,-404.82 520.41,-402.16"/>
</g>
<!-- node_000001be97889330 -->
<g id="node10" class="node">
<title>node_000001be97889330</title>
<path fill="#a2f8a4" stroke="#004b00" d="M687.88,-310.5C687.88,-310.5 978.62,-310.5 978.62,-310.5 984.62,-310.5 990.62,-316.5 990.62,-322.5 990.62,-322.5 990.62,-380.5 990.62,-380.5 990.62,-386.5 984.62,-392.5 978.62,-392.5 978.62,-392.5 687.88,-392.5 687.88,-392.5 681.88,-392.5 675.88,-386.5 675.88,-380.5 675.88,-380.5 675.88,-322.5 675.88,-322.5 675.88,-316.5 681.88,-310.5 687.88,-310.5"/>
<text text-anchor="middle" x="833.25" y="-375.2" font-family="Times New Roman,serif" font-size="14.00">data = Vedet matan </text>
<text text-anchor="middle" x="833.25" y="-358.7" font-family="Times New Roman,serif" font-size="14.00"> addr: 000001be97889330</text>
<polyline fill="none" stroke="#004b00" points="675.88,-351.5 990.62,-351.5"/>
<text text-anchor="middle" x="754.38" y="-334.2" font-family="Times New Roman,serif" font-size="14.00">L:</text>
<text text-anchor="middle" x="754.38" y="-317.7" font-family="Times New Roman,serif" font-size="14.00"> addr: 000001be9788a4c0</text>
<polyline fill="none" stroke="#004b00" points="832.88,-310.5 832.88,-351.5"/>
<text text-anchor="middle" x="911.75" y="-334.2" font-family="Times New Roman,serif" font-size="14.00">R: </text>
<text text-anchor="middle" x="911.75" y="-317.7" font-family="Times New Roman,serif" font-size="14.00"> addr: 000001be9788a120</text>
</g>
<!-- node_000001be978891f0&#45;&gt;node_000001be97889330 -->
<g id="edge11" class="edge">
<title>node_000001be978891f0&#45;&gt;node_000001be97889330</title>
<path fill="none" stroke="#004b00" d="M644.11,-429.07C669.49,-418.8 696.91,-407.7 722.79,-397.22"/>
<polygon fill="#004b00" stroke="#004b00" points="724.03,-400.5 731.98,-393.5 721.4,-394.01 724.03,-400.5"/>
</g>
<!-- 4 -->
<g id="node11" class="node">
<title>4</title>
<ellipse fill="#fe5656" stroke="#581804" cx="1667.25" cy="-232.5" rx="18" ry="18"/>
<text text-anchor="middle" x="1667.25" y="-227.45" font-family="Times New Roman,serif" font-size="14.00">4</text>
</g>
<!-- 3&#45;&gt;4 -->
<g id="edge13" class="edge">
<title>3&#45;&gt;4</title>
<path fill="none" stroke="white" d="M1654.33,-338.42C1645.94,-319.15 1644.75,-281.14 1650.76,-256.54"/>
<polygon fill="white" stroke="white" points="1654.05,-257.72 1653.81,-247.13 1647.4,-255.56 1654.05,-257.72"/>
</g>
<!-- 3&#45;&gt;4 -->
<g id="edge16" class="edge">
<title>3&#45;&gt;4</title>
<path fill="none" stroke="white" d="M1662.35,-333.74C1660.26,-314.88 1659.94,-283.96 1661.4,-261.44"/>
<polygon fill="white" stroke="white" points="1664.86,-262 1662.22,-251.74 1657.89,-261.41 1664.86,-262"/>
</g>
<!-- 3&#45;&gt;4 -->
<g id="edge25" class="edge">
<title>3&#45;&gt;4</title>
<path fill="none" stroke="white" d="M1672.15,-333.74C1674.24,-314.88 1674.56,-283.96 1673.1,-261.44"/>
<polygon fill="white" stroke="white" points="1676.61,-261.41 1672.28,-251.74 1669.64,-262 1676.61,-261.41"/>
</g>
<!-- 3&#45;&gt;4 -->
<g id="edge28" class="edge">
<title>3&#45;&gt;4</title>
<path fill="none" stroke="white" d="M1680.17,-338.42C1688.56,-319.15 1689.75,-281.14 1683.74,-256.54"/>
<polygon fill="white" stroke="white" points="1687.1,-255.56 1680.69,-247.13 1680.45,-257.72 1687.1,-255.56"/>
</g>
<!-- node_000001be97889290 -->
<g id="node12" class="node">
<title>node_000001be97889290</title>
<path fill="#a2f8a4" stroke="#004b00" d="M12,-191.5C12,-191.5 306.5,-191.5 306.5,-191.5 312.5,-191.5 318.5,-197.5 318.5,-203.5 318.5,-203.5 318.5,-261.5 318.5,-261.5 318.5,-267.5 312.5,-273.5 306.5,-273.5 306.5,-273.5 12,-273.5 12,-273.5 6,-273.5 0,-267.5 0,-261.5 0,-261.5 0,-203.5 0,-203.5 0,-197.5 6,-191.5 12,-191.5"/>
<text text-anchor="middle" x="159.25" y="-256.2" font-family="Times New Roman,serif" font-size="14.00">data = Svinya </text>
<text text-anchor="middle" x="159.25" y="-239.7" font-family="Times New Roman,serif" font-size="14.00"> addr: 000001be97889290</text>
<polyline fill="none" stroke="#004b00" points="0,-232.5 318.5,-232.5"/>
<text text-anchor="middle" x="79.62" y="-215.2" font-family="Times New Roman,serif" font-size="14.00">L:</text>
<text text-anchor="middle" x="79.62" y="-198.7" font-family="Times New Roman,serif" font-size="14.00"> addr: 0000000000000000</text>
<polyline fill="none" stroke="#004b00" points="159.25,-191.5 159.25,-232.5"/>
<text text-anchor="middle" x="238.88" y="-215.2" font-family="Times New Roman,serif" font-size="14.00">R: </text>
<text text-anchor="middle" x="238.88" y="-198.7" font-family="Times New Roman,serif" font-size="14.00"> addr: 0000000000000000</text>
</g>
<!-- node_000001be97889230&#45;&gt;node_000001be97889290 -->
<g id="edge14" class="edge">
<title>node_000001be97889230&#45;&gt;node_000001be97889290</title>
<path fill="none" stroke="#004b00" d="M379.8,-310.07C349.68,-299.61 317.1,-288.3 286.45,-277.66"/>
<polygon fill="#004b00" stroke="#004b00" points="287.73,-274.4 277.13,-274.43 285.43,-281.01 287.73,-274.4"/>
</g>
<!-- node_000001be978892d0 -->
<g id="node13" class="node">
<title>node_000001be978892d0</title>
<path fill="#a2f8a4" stroke="#004b00" d="M349,-191.5C349,-191.5 643.5,-191.5 643.5,-191.5 649.5,-191.5 655.5,-197.5 655.5,-203.5 655.5,-203.5 655.5,-261.5 655.5,-261.5 655.5,-267.5 649.5,-273.5 643.5,-273.5 643.5,-273.5 349,-273.5 349,-273.5 343,-273.5 337,-267.5 337,-261.5 337,-261.5 337,-203.5 337,-203.5 337,-197.5 343,-191.5 349,-191.5"/>
<text text-anchor="middle" x="496.25" y="-256.2" font-family="Times New Roman,serif" font-size="14.00">data = Korova </text>
<text text-anchor="middle" x="496.25" y="-239.7" font-family="Times New Roman,serif" font-size="14.00"> addr: 000001be978892d0</text>
<polyline fill="none" stroke="#004b00" points="337,-232.5 655.5,-232.5"/>
<text text-anchor="middle" x="416.62" y="-215.2" font-family="Times New Roman,serif" font-size="14.00">L:</text>
<text text-anchor="middle" x="416.62" y="-198.7" font-family="Times New Roman,serif" font-size="14.00"> addr: 0000000000000000</text>
<polyline fill="none" stroke="#004b00" points="496.25,-191.5 496.25,-232.5"/>
<text text-anchor="middle" x="575.88" y="-215.2" font-family="Times New Roman,serif" font-size="14.00">R: </text>
<text text-anchor="middle" x="575.88" y="-198.7" font-family="Times New Roman,serif" font-size="14.00"> addr: 0000000000000000</text>
</g>
<!-- node_000001be97889230&#45;&gt;node_000001be978892d0 -->
<g id="edge15" class="edge">
<title>node_000001be97889230&#45;&gt;node_000001be978892d0</title>
<path fill="none" stroke="#004b00" d="M496.25,-310.24C496.25,-302.15 496.25,-293.54 496.25,-285.13"/>
<polygon fill="#004b00" stroke="#004b00" points="499.75,-285.35 496.25,-275.35 492.75,-285.35 499.75,-285.35"/>
</g>
<!-- node_000001be9788a4c0 -->
<g id="node19" class="node">
<title>node_000001be9788a4c0</title>
<path fill="#a2f8a4" stroke="#004b00" d="M686,-191.5C686,-191.5 980.5,-191.5 980.5,-191.5 986.5,-191.5 992.5,-197.5 992.5,-203.5 992.5,-203.5 992.5,-261.5 992.5,-261.5 992.5,-267.5 986.5,-273.5 980.5,-273.5 980.5,-273.5 686,-273.5 686,-273.5 680,-273.5 674,-267.5 674,-261.5 674,-261.5 674,-203.5 674,-203.5 674,-197.5 680,-191.5 686,-191.5"/>
<text text-anchor="middle" x="833.25" y="-256.2" font-family="Times New Roman,serif" font-size="14.00">data = Zagr_mamont </text>
<text text-anchor="middle" x="833.25" y="-239.7" font-family="Times New Roman,serif" font-size="14.00"> addr: 000001be9788a4c0</text>
<polyline fill="none" stroke="#004b00" points="674,-232.5 992.5,-232.5"/>
<text text-anchor="middle" x="753.62" y="-215.2" font-family="Times New Roman,serif" font-size="14.00">L:</text>
<text text-anchor="middle" x="753.62" y="-198.7" font-family="Times New Roman,serif" font-size="14.00"> addr: 0000000000000000</text>
<polyline fill="none" stroke="#004b00" points="833.25,-191.5 833.25,-232.5"/>
<text text-anchor="middle" x="912.88" y="-215.2" font-family="Times New Roman,serif" font-size="14.00">R: </text>
<text text-anchor="middle" x="912.88" y="-198.7" font-family="Times New Roman,serif" font-size="14.00"> addr: 0000000000000000</text>
</g>
<!-- node_000001be97889330&#45;&gt;node_000001be9788a4c0 -->
<g id="edge26" class="edge">
<title>node_000001be97889330&#45;&gt;node_000001be9788a4c0</title>
<path fill="none" stroke="#004b00" d="M833.25,-310.24C833.25,-302.15 833.25,-293.54 833.25,-285.13"/>
<polygon fill="#004b00" stroke="#004b00" points="836.75,-285.35 833.25,-275.35 829.75,-285.35 836.75,-285.35"/>
</g>
<!-- node_000001be9788a120 -->
<g id="node20" class="node">
<title>node_000001be9788a120</title>
<path fill="#a2f8a4" stroke="#004b00" d="M1022.5,-191.5C1022.5,-191.5 1314,-191.5 1314,-191.5 1320,-191.5 1326,-197.5 1326,-203.5 1326,-203.5 1326,-261.5 1326,-261.5 1326,-267.5 1320,-273.5 1314,-273.5 1314,-273.5 1022.5,-273.5 1022.5,-273.5 1016.5,-273.5 1010.5,-267.5 1010.5,-261.5 1010.5,-261.5 1010.5,-203.5 1010.5,-203.5 1010.5,-197.5 1016.5,-191.5 1022.5,-191.5"/>
<text text-anchor="middle" x="1168.25" y="-256.2" font-family="Times New Roman,serif" font-size="14.00">data = Umniy zhachit dobriy </text>
<text text-anchor="middle" x="1168.25" y="-239.7" font-family="Times New Roman,serif" font-size="14.00"> addr: 000001be9788a120</text>
<polyline fill="none" stroke="#004b00" points="1010.5,-232.5 1326,-232.5"/>
<text text-anchor="middle" x="1089.38" y="-215.2" font-family="Times New Roman,serif" font-size="14.00">L:</text>
<text text-anchor="middle" x="1089.38" y="-198.7" font-family="Times New Roman,serif" font-size="14.00"> addr: 000001be9788a560</text>
<polyline fill="none" stroke="#004b00" points="1168.25,-191.5 1168.25,-232.5"/>
<text text-anchor="middle" x="1247.12" y="-215.2" font-family="Times New Roman,serif" font-size="14.00">R: </text>
<text text-anchor="middle" x="1247.12" y="-198.7" font-family="Times New Roman,serif" font-size="14.00"> addr: 000001be9788a200</text>
</g>
<!-- node_000001be97889330&#45;&gt;node_000001be9788a120 -->
<g id="edge27" class="edge">
<title>node_000001be97889330&#45;&gt;node_000001be9788a120</title>
<path fill="none" stroke="#004b00" d="M949.01,-310.07C978.95,-299.61 1011.34,-288.3 1041.8,-277.66"/>
<polygon fill="#004b00" stroke="#004b00" points="1042.77,-281.03 1051.06,-274.43 1040.46,-274.42 1042.77,-281.03"/>
</g>
<!-- 5 -->
<g id="node14" class="node">
<title>5</title>
<ellipse fill="#fe5656" stroke="#581804" cx="1667.25" cy="-113.5" rx="18" ry="18"/>
<text text-anchor="middle" x="1667.25" y="-108.45" font-family="Times New Roman,serif" font-size="14.00">5</text>
</g>
<!-- 4&#45;&gt;5 -->
<g id="edge17" class="edge">
<title>4&#45;&gt;5</title>
<path fill="none" stroke="white" d="M1649.42,-227.87C1613.69,-212 1610.51,-148.44 1639.87,-124.07"/>
<polygon fill="white" stroke="white" points="1641.58,-127.13 1648.23,-118.89 1637.89,-121.18 1641.58,-127.13"/>
</g>
<!-- 4&#45;&gt;5 -->
<g id="edge20" class="edge">
<title>4&#45;&gt;5</title>
<path fill="none" stroke="white" d="M1650.56,-224.87C1630.46,-206.69 1628.12,-155.67 1643.55,-129.86"/>
<polygon fill="white" stroke="white" points="1646.15,-132.22 1649.69,-122.23 1640.7,-127.83 1646.15,-132.22"/>
</g>
<!-- 4&#45;&gt;5 -->
<g id="edge21" class="edge">
<title>4&#45;&gt;5</title>
<path fill="none" stroke="white" d="M1654.33,-219.42C1645.94,-200.15 1644.75,-162.14 1650.76,-137.54"/>
<polygon fill="white" stroke="white" points="1654.05,-138.72 1653.81,-128.13 1647.4,-136.56 1654.05,-138.72"/>
</g>
<!-- 4&#45;&gt;5 -->
<g id="edge24" class="edge">
<title>4&#45;&gt;5</title>
<path fill="none" stroke="white" d="M1662.35,-214.74C1660.26,-195.88 1659.94,-164.96 1661.4,-142.44"/>
<polygon fill="white" stroke="white" points="1664.86,-143 1662.22,-132.74 1657.89,-142.41 1664.86,-143"/>
</g>
<!-- 4&#45;&gt;5 -->
<g id="edge29" class="edge">
<title>4&#45;&gt;5</title>
<path fill="none" stroke="white" d="M1672.15,-214.74C1674.24,-195.88 1674.56,-164.96 1673.1,-142.44"/>
<polygon fill="white" stroke="white" points="1676.61,-142.41 1672.28,-132.74 1669.64,-143 1676.61,-142.41"/>
</g>
<!-- 4&#45;&gt;5 -->
<g id="edge32" class="edge">
<title>4&#45;&gt;5</title>
<path fill="none" stroke="white" d="M1680.17,-219.42C1688.56,-200.15 1689.75,-162.14 1683.74,-137.54"/>
<polygon fill="white" stroke="white" points="1687.1,-136.56 1680.69,-128.13 1680.45,-138.72 1687.1,-136.56"/>
</g>
<!-- 4&#45;&gt;5 -->
<g id="edge33" class="edge">
<title>4&#45;&gt;5</title>
<path fill="none" stroke="white" d="M1683.94,-224.87C1704.04,-206.69 1706.38,-155.67 1690.95,-129.86"/>
<polygon fill="white" stroke="white" points="1693.8,-127.83 1684.81,-122.23 1688.35,-132.22 1693.8,-127.83"/>
</g>
<!-- 4&#45;&gt;5 -->
<g id="edge36" class="edge">
<title>4&#45;&gt;5</title>
<path fill="none" stroke="white" d="M1685.08,-227.87C1720.81,-212 1723.99,-148.44 1694.63,-124.07"/>
<polygon fill="white" stroke="white" points="1696.61,-121.18 1686.27,-118.89 1692.92,-127.13 1696.61,-121.18"/>
</g>
<!-- node_l_null_000001be97889290 -->
<g id="node15" class="node">
<title>node_l_null_000001be97889290</title>
<ellipse fill="#a2f0f8" stroke="#007cff" cx="123.25" cy="-113.5" rx="27" ry="18"/>
<text text-anchor="middle" x="123.25" y="-108.45" font-family="Times New Roman,serif" font-size="14.00">null</text>
</g>
<!-- node_000001be97889290&#45;&gt;node_l_null_000001be97889290 -->
<g id="edge18" class="edge">
<title>node_000001be97889290&#45;&gt;node_l_null_000001be97889290</title>
<path fill="none" stroke="#007cff" d="M146.86,-191.24C141.92,-175.17 136.35,-157.07 131.86,-142.48"/>
<polygon fill="#007cff" stroke="#007cff" points="135.26,-141.62 128.97,-133.09 128.57,-143.68 135.26,-141.62"/>
</g>
<!-- node_r_null_000001be97889290 -->
<g id="node16" class="node">
<title>node_r_null_000001be97889290</title>
<ellipse fill="#a2f0f8" stroke="#007cff" cx="196.25" cy="-113.5" rx="27.81" ry="18"/>
<text text-anchor="middle" x="196.25" y="-108.45" font-family="Times New Roman,serif" font-size="14.00"> null</text>
</g>
<!-- node_000001be97889290&#45;&gt;node_r_null_000001be97889290 -->
<g id="edge19" class="edge">
<title>node_000001be97889290&#45;&gt;node_r_null_000001be97889290</title>
<path fill="none" stroke="#007cff" d="M171.98,-191.24C177.06,-175.17 182.79,-157.07 187.4,-142.48"/>
<polygon fill="#007cff" stroke="#007cff" points="190.69,-143.68 190.37,-133.09 184.02,-141.56 190.69,-143.68"/>
</g>
<!-- node_l_null_000001be978892d0 -->
<g id="node17" class="node">
<title>node_l_null_000001be978892d0</title>
<ellipse fill="#a2f0f8" stroke="#007cff" cx="459.25" cy="-113.5" rx="27" ry="18"/>
<text text-anchor="middle" x="459.25" y="-108.45" font-family="Times New Roman,serif" font-size="14.00">null</text>
</g>
<!-- node_000001be978892d0&#45;&gt;node_l_null_000001be978892d0 -->
<g id="edge22" class="edge">
<title>node_000001be978892d0&#45;&gt;node_l_null_000001be978892d0</title>
<path fill="none" stroke="#007cff" d="M483.52,-191.24C478.4,-175.07 472.64,-156.83 468.01,-142.2"/>
<polygon fill="#007cff" stroke="#007cff" points="471.38,-141.26 465.03,-132.78 464.71,-143.37 471.38,-141.26"/>
</g>
<!-- node_r_null_000001be978892d0 -->
<g id="node18" class="node">
<title>node_r_null_000001be978892d0</title>
<ellipse fill="#a2f0f8" stroke="#007cff" cx="532.25" cy="-113.5" rx="27.81" ry="18"/>
<text text-anchor="middle" x="532.25" y="-108.45" font-family="Times New Roman,serif" font-size="14.00"> null</text>
</g>
<!-- node_000001be978892d0&#45;&gt;node_r_null_000001be978892d0 -->
<g id="edge23" class="edge">
<title>node_000001be978892d0&#45;&gt;node_r_null_000001be978892d0</title>
<path fill="none" stroke="#007cff" d="M508.64,-191.24C513.58,-175.17 519.15,-157.07 523.64,-142.48"/>
<polygon fill="#007cff" stroke="#007cff" points="526.93,-143.68 526.53,-133.09 520.24,-141.62 526.93,-143.68"/>
</g>
<!-- 6 -->
<g id="node25" class="node">
<title>6</title>
<ellipse fill="#fe5656" stroke="#581804" cx="1667.25" cy="-18" rx="18" ry="18"/>
<text text-anchor="middle" x="1667.25" y="-12.95" font-family="Times New Roman,serif" font-size="14.00">6</text>
</g>
<!-- 5&#45;&gt;6 -->
<g id="edge37" class="edge">
<title>5&#45;&gt;6</title>
<path fill="none" stroke="white" d="M1653.59,-101.41C1646.31,-86.51 1645.06,-59.7 1649.84,-40.71"/>
<polygon fill="white" stroke="white" points="1653.06,-42.1 1653.09,-31.51 1646.46,-39.77 1653.06,-42.1"/>
</g>
<!-- 5&#45;&gt;6 -->
<g id="edge40" class="edge">
<title>5&#45;&gt;6</title>
<path fill="none" stroke="white" d="M1661.93,-95.78C1660.41,-82.22 1660.1,-62.81 1661.01,-46.9"/>
<polygon fill="white" stroke="white" points="1664.49,-47.33 1661.83,-37.08 1657.51,-46.76 1664.49,-47.33"/>
</g>
<!-- 5&#45;&gt;6 -->
<g id="edge41" class="edge">
<title>5&#45;&gt;6</title>
<path fill="none" stroke="white" d="M1672.57,-95.78C1674.09,-82.22 1674.4,-62.81 1673.49,-46.9"/>
<polygon fill="white" stroke="white" points="1676.99,-46.76 1672.67,-37.08 1670.01,-47.33 1676.99,-46.76"/>
</g>
<!-- 5&#45;&gt;6 -->
<g id="edge44" class="edge">
<title>5&#45;&gt;6</title>
<path fill="none" stroke="white" d="M1680.91,-101.41C1688.19,-86.51 1689.44,-59.7 1684.66,-40.71"/>
<polygon fill="white" stroke="white" points="1688.04,-39.77 1681.41,-31.51 1681.44,-42.1 1688.04,-39.77"/>
</g>
<!-- node_l_null_000001be9788a4c0 -->
<g id="node21" class="node">
<title>node_l_null_000001be9788a4c0</title>
<ellipse fill="#a2f0f8" stroke="#007cff" cx="792.25" cy="-113.5" rx="27" ry="18"/>
<text text-anchor="middle" x="792.25" y="-108.45" font-family="Times New Roman,serif" font-size="14.00">null</text>
</g>
<!-- node_000001be9788a4c0&#45;&gt;node_l_null_000001be9788a4c0 -->
<g id="edge30" class="edge">
<title>node_000001be9788a4c0&#45;&gt;node_l_null_000001be9788a4c0</title>
<path fill="none" stroke="#007cff" d="M819.14,-191.24C813.47,-175.07 807.08,-156.83 801.96,-142.2"/>
<polygon fill="#007cff" stroke="#007cff" points="805.26,-141.05 798.65,-132.77 798.66,-143.36 805.26,-141.05"/>
</g>
<!-- node_r_null_000001be9788a4c0 -->
<g id="node22" class="node">
<title>node_r_null_000001be9788a4c0</title>
<ellipse fill="#a2f0f8" stroke="#007cff" cx="865.25" cy="-113.5" rx="27.81" ry="18"/>
<text text-anchor="middle" x="865.25" y="-108.45" font-family="Times New Roman,serif" font-size="14.00"> null</text>
</g>
<!-- node_000001be9788a4c0&#45;&gt;node_r_null_000001be9788a4c0 -->
<g id="edge31" class="edge">
<title>node_000001be9788a4c0&#45;&gt;node_r_null_000001be9788a4c0</title>
<path fill="none" stroke="#007cff" d="M844.26,-191.24C848.66,-175.17 853.61,-157.07 857.6,-142.48"/>
<polygon fill="#007cff" stroke="#007cff" points="860.9,-143.67 860.16,-133.1 854.15,-141.82 860.9,-143.67"/>
</g>
<!-- node_000001be9788a560 -->
<g id="node23" class="node">
<title>node_000001be9788a560</title>
<path fill="#a2f8a4" stroke="#004b00" d="M988,-72.5C988,-72.5 1282.5,-72.5 1282.5,-72.5 1288.5,-72.5 1294.5,-78.5 1294.5,-84.5 1294.5,-84.5 1294.5,-142.5 1294.5,-142.5 1294.5,-148.5 1288.5,-154.5 1282.5,-154.5 1282.5,-154.5 988,-154.5 988,-154.5 982,-154.5 976,-148.5 976,-142.5 976,-142.5 976,-84.5 976,-84.5 976,-78.5 982,-72.5 988,-72.5"/>
<text text-anchor="middle" x="1135.25" y="-137.2" font-family="Times New Roman,serif" font-size="14.00">data = Umnov </text>
<text text-anchor="middle" x="1135.25" y="-120.7" font-family="Times New Roman,serif" font-size="14.00"> addr: 000001be9788a560</text>
<polyline fill="none" stroke="#004b00" points="976,-113.5 1294.5,-113.5"/>
<text text-anchor="middle" x="1055.62" y="-96.2" font-family="Times New Roman,serif" font-size="14.00">L:</text>
<text text-anchor="middle" x="1055.62" y="-79.7" font-family="Times New Roman,serif" font-size="14.00"> addr: 0000000000000000</text>
<polyline fill="none" stroke="#004b00" points="1135.25,-72.5 1135.25,-113.5"/>
<text text-anchor="middle" x="1214.88" y="-96.2" font-family="Times New Roman,serif" font-size="14.00">R: </text>
<text text-anchor="middle" x="1214.88" y="-79.7" font-family="Times New Roman,serif" font-size="14.00"> addr: 0000000000000000</text>
</g>
<!-- node_000001be9788a120&#45;&gt;node_000001be9788a560 -->
<g id="edge34" class="edge">
<title>node_000001be9788a120&#45;&gt;node_000001be9788a560</title>
<path fill="none" stroke="#004b00" d="M1156.89,-191.24C1154.59,-183.05 1152.13,-174.34 1149.73,-165.84"/>
<polygon fill="#004b00" stroke="#004b00" points="1153.12,-164.97 1147.04,-156.3 1146.38,-166.87 1153.12,-164.97"/>
</g>
<!-- node_000001be9788a200 -->
<g id="node24" class="node">
<title>node_000001be9788a200</title>
<path fill="#a2f8a4" stroke="#004b00" d="M1325,-72.5C1325,-72.5 1619.5,-72.5 1619.5,-72.5 1625.5,-72.5 1631.5,-78.5 1631.5,-84.5 1631.5,-84.5 1631.5,-142.5 1631.5,-142.5 1631.5,-148.5 1625.5,-154.5 1619.5,-154.5 1619.5,-154.5 1325,-154.5 1325,-154.5 1319,-154.5 1313,-148.5 1313,-142.5 1313,-142.5 1313,-84.5 1313,-84.5 1313,-78.5 1319,-72.5 1325,-72.5"/>
<text text-anchor="middle" x="1472.25" y="-137.2" font-family="Times New Roman,serif" font-size="14.00">data = Zagr_mamont </text>
<text text-anchor="middle" x="1472.25" y="-120.7" font-family="Times New Roman,serif" font-size="14.00"> addr: 000001be9788a200</text>
<polyline fill="none" stroke="#004b00" points="1313,-113.5 1631.5,-113.5"/>
<text text-anchor="middle" x="1392.62" y="-96.2" font-family="Times New Roman,serif" font-size="14.00">L:</text>
<text text-anchor="middle" x="1392.62" y="-79.7" font-family="Times New Roman,serif" font-size="14.00"> addr: 0000000000000000</text>
<polyline fill="none" stroke="#004b00" points="1472.25,-72.5 1472.25,-113.5"/>
<text text-anchor="middle" x="1551.88" y="-96.2" font-family="Times New Roman,serif" font-size="14.00">R: </text>
<text text-anchor="middle" x="1551.88" y="-79.7" font-family="Times New Roman,serif" font-size="14.00"> addr: 0000000000000000</text>
</g>
<!-- node_000001be9788a120&#45;&gt;node_000001be9788a200 -->
<g id="edge35" class="edge">
<title>node_000001be9788a120&#45;&gt;node_000001be9788a200</title>
<path fill="none" stroke="#004b00" d="M1273.3,-191.07C1300.23,-180.7 1329.35,-169.5 1356.78,-158.94"/>
<polygon fill="#004b00" stroke="#004b00" points="1357.71,-162.33 1365.79,-155.47 1355.2,-155.8 1357.71,-162.33"/>
</g>
<!-- node_l_null_000001be9788a560 -->
<g id="node26" class="node">
<title>node_l_null_000001be9788a560</title>
<ellipse fill="#a2f0f8" stroke="#007cff" cx="1098.25" cy="-18" rx="27" ry="18"/>
<text text-anchor="middle" x="1098.25" y="-12.95" font-family="Times New Roman,serif" font-size="14.00">null</text>
</g>
<!-- node_000001be9788a560&#45;&gt;node_l_null_000001be9788a560 -->
<g id="edge38" class="edge">
<title>node_000001be9788a560&#45;&gt;node_l_null_000001be9788a560</title>
<path fill="none" stroke="#007cff" d="M1119.24,-72.03C1115.79,-63.31 1112.22,-54.29 1109.02,-46.22"/>
<polygon fill="#007cff" stroke="#007cff" points="1112.3,-44.99 1105.36,-36.98 1105.79,-47.56 1112.3,-44.99"/>
</g>
<!-- node_r_null_000001be9788a560 -->
<g id="node27" class="node">
<title>node_r_null_000001be9788a560</title>
<ellipse fill="#a2f0f8" stroke="#007cff" cx="1171.25" cy="-18" rx="27.81" ry="18"/>
<text text-anchor="middle" x="1171.25" y="-12.95" font-family="Times New Roman,serif" font-size="14.00"> null</text>
</g>
<!-- node_000001be9788a560&#45;&gt;node_r_null_000001be9788a560 -->
<g id="edge39" class="edge">
<title>node_000001be9788a560&#45;&gt;node_r_null_000001be9788a560</title>
<path fill="none" stroke="#007cff" d="M1150.83,-72.03C1154.19,-63.31 1157.66,-54.29 1160.77,-46.22"/>
<polygon fill="#007cff" stroke="#007cff" points="1164,-47.57 1164.33,-36.98 1157.47,-45.06 1164,-47.57"/>
</g>
<!-- node_l_null_000001be9788a200 -->
<g id="node28" class="node">
<title>node_l_null_000001be9788a200</title>
<ellipse fill="#a2f0f8" stroke="#007cff" cx="1435.25" cy="-18" rx="27" ry="18"/>
<text text-anchor="middle" x="1435.25" y="-12.95" font-family="Times New Roman,serif" font-size="14.00">null</text>
</g>
<!-- node_000001be9788a200&#45;&gt;node_l_null_000001be9788a200 -->
<g id="edge42" class="edge">
<title>node_000001be9788a200&#45;&gt;node_l_null_000001be9788a200</title>
<path fill="none" stroke="#007cff" d="M1456.24,-72.03C1452.79,-63.31 1449.22,-54.29 1446.02,-46.22"/>
<polygon fill="#007cff" stroke="#007cff" points="1449.3,-44.99 1442.36,-36.98 1442.79,-47.56 1449.3,-44.99"/>
</g>
<!-- node_r_null_000001be9788a200 -->
<g id="node29" class="node">
<title>node_r_null_000001be9788a200</title>
<ellipse fill="#a2f0f8" stroke="#007cff" cx="1508.25" cy="-18" rx="27.81" ry="18"/>
<text text-anchor="middle" x="1508.25" y="-12.95" font-family="Times New Roman,serif" font-size="14.00"> null</text>
</g>
<!-- node_000001be9788a200&#45;&gt;node_r_null_000001be9788a200 -->
<g id="edge43" class="edge">
<title>node_000001be9788a200&#45;&gt;node_r_null_000001be9788a200</title>
<path fill="none" stroke="#007cff" d="M1487.83,-72.03C1491.19,-63.31 1494.66,-54.29 1497.77,-46.22"/>
<polygon fill="#007cff" stroke="#007cff" points="1501,-47.57 1501.33,-36.98 1494.47,-45.06 1501,-47.57"/>
</g>
</g>
</svg>
