<?xml version="1.0" encoding="UTF-8" standalone="no"?>
<!DOCTYPE svg PUBLIC "-//W3C//DTD SVG 1.1//EN"
 "http://www.w3.org/Graphics/SVG/1.1/DTD/svg11.dtd">
<!-- Generated by graphviz version 12.2.0 (20241103.1931)
 -->
<!-- Pages: 1 -->
<svg width="1258pt" height="520pt"
 viewBox="0.00 0.00 1258.35 520.00" xmlns="http://www.w3.org/2000/svg" xmlns:xlink="http://www.w3.org/1999/xlink">
<g id="graph0" class="graph" transform="scale(1 1) rotate(0) translate(4 516)">
<polygon fill="white" stroke="none" points="-4,4 -4,-516 1254.35,-516 1254.35,4 -4,4"/>
<!-- node_0000022b17eb90f0 -->
<g id="node1" class="node">
<title>node_0000022b17eb90f0</title>
<path fill="#ffa615" stroke="#004b00" d="M353.75,-429.5C353.75,-429.5 646.75,-429.5 646.75,-429.5 652.75,-429.5 658.75,-435.5 658.75,-441.5 658.75,-441.5 658.75,-499.5 658.75,-499.5 658.75,-505.5 652.75,-511.5 646.75,-511.5 646.75,-511.5 353.75,-511.5 353.75,-511.5 347.75,-511.5 341.75,-505.5 341.75,-499.5 341.75,-499.5 341.75,-441.5 341.75,-441.5 341.75,-435.5 347.75,-429.5 353.75,-429.5"/>
<text text-anchor="middle" x="500.25" y="-494.2" font-family="Times New Roman,serif" font-size="14.00">data = Akinator </text>
<text text-anchor="middle" x="500.25" y="-477.7" font-family="Times New Roman,serif" font-size="14.00"> addr: 0000022b17eb90f0</text>
<polyline fill="none" stroke="#004b00" points="341.75,-470.5 658.75,-470.5"/>
<text text-anchor="middle" x="421" y="-453.2" font-family="Times New Roman,serif" font-size="14.00">L:</text>
<text text-anchor="middle" x="421" y="-436.7" font-family="Times New Roman,serif" font-size="14.00"> addr: 0000022b17eb9170</text>
<polyline fill="none" stroke="#004b00" points="500.25,-429.5 500.25,-470.5"/>
<text text-anchor="middle" x="579.5" y="-453.2" font-family="Times New Roman,serif" font-size="14.00">R: </text>
<text text-anchor="middle" x="579.5" y="-436.7" font-family="Times New Roman,serif" font-size="14.00"> addr: 0000022b17eb9250</text>
</g>
<!-- node_0000022b17eb9170 -->
<g id="node4" class="node">
<title>node_0000022b17eb9170</title>
<path fill="#a2f8a4" stroke="#004b00" d="M185.38,-310.5C185.38,-310.5 479.12,-310.5 479.12,-310.5 485.12,-310.5 491.12,-316.5 491.12,-322.5 491.12,-322.5 491.12,-380.5 491.12,-380.5 491.12,-386.5 485.12,-392.5 479.12,-392.5 479.12,-392.5 185.38,-392.5 185.38,-392.5 179.38,-392.5 173.38,-386.5 173.38,-380.5 173.38,-380.5 173.38,-322.5 173.38,-322.5 173.38,-316.5 179.38,-310.5 185.38,-310.5"/>
<text text-anchor="middle" x="332.25" y="-375.2" font-family="Times New Roman,serif" font-size="14.00">data = YES_YES </text>
<text text-anchor="middle" x="332.25" y="-358.7" font-family="Times New Roman,serif" font-size="14.00"> addr: 0000022b17eb9170</text>
<polyline fill="none" stroke="#004b00" points="173.38,-351.5 491.12,-351.5"/>
<text text-anchor="middle" x="252.62" y="-334.2" font-family="Times New Roman,serif" font-size="14.00">L:</text>
<text text-anchor="middle" x="252.62" y="-317.7" font-family="Times New Roman,serif" font-size="14.00"> addr: 0000022b17eb9230</text>
<polyline fill="none" stroke="#004b00" points="331.88,-310.5 331.88,-351.5"/>
<text text-anchor="middle" x="411.5" y="-334.2" font-family="Times New Roman,serif" font-size="14.00">R: </text>
<text text-anchor="middle" x="411.5" y="-317.7" font-family="Times New Roman,serif" font-size="14.00"> addr: 0000000000000000</text>
</g>
<!-- node_0000022b17eb90f0&#45;&gt;node_0000022b17eb9170 -->
<g id="edge2" class="edge">
<title>node_0000022b17eb90f0&#45;&gt;node_0000022b17eb9170</title>
<path fill="none" stroke="#004b00" d="M442.43,-429.24C428.57,-419.58 413.66,-409.2 399.42,-399.28"/>
<polygon fill="#004b00" stroke="#004b00" points="401.62,-396.55 391.41,-393.7 397.62,-402.29 401.62,-396.55"/>
</g>
<!-- node_0000022b17eb9250 -->
<g id="node5" class="node">
<title>node_0000022b17eb9250</title>
<path fill="#a2f8a4" stroke="#004b00" d="M520.75,-310.5C520.75,-310.5 813.75,-310.5 813.75,-310.5 819.75,-310.5 825.75,-316.5 825.75,-322.5 825.75,-322.5 825.75,-380.5 825.75,-380.5 825.75,-386.5 819.75,-392.5 813.75,-392.5 813.75,-392.5 520.75,-392.5 520.75,-392.5 514.75,-392.5 508.75,-386.5 508.75,-380.5 508.75,-380.5 508.75,-322.5 508.75,-322.5 508.75,-316.5 514.75,-310.5 520.75,-310.5"/>
<text text-anchor="middle" x="667.25" y="-375.2" font-family="Times New Roman,serif" font-size="14.00">data = Skibidi dob dob yes yes </text>
<text text-anchor="middle" x="667.25" y="-358.7" font-family="Times New Roman,serif" font-size="14.00"> addr: 0000022b17eb9250</text>
<polyline fill="none" stroke="#004b00" points="508.75,-351.5 825.75,-351.5"/>
<text text-anchor="middle" x="588" y="-334.2" font-family="Times New Roman,serif" font-size="14.00">L:</text>
<text text-anchor="middle" x="588" y="-317.7" font-family="Times New Roman,serif" font-size="14.00"> addr: 0000022b17eb92b0</text>
<polyline fill="none" stroke="#004b00" points="667.25,-310.5 667.25,-351.5"/>
<text text-anchor="middle" x="746.5" y="-334.2" font-family="Times New Roman,serif" font-size="14.00">R: </text>
<text text-anchor="middle" x="746.5" y="-317.7" font-family="Times New Roman,serif" font-size="14.00"> addr: 0000022b17eb9290</text>
</g>
<!-- node_0000022b17eb90f0&#45;&gt;node_0000022b17eb9250 -->
<g id="edge3" class="edge">
<title>node_0000022b17eb90f0&#45;&gt;node_0000022b17eb9250</title>
<path fill="none" stroke="#004b00" d="M557.72,-429.24C571.5,-419.58 586.33,-409.2 600.48,-399.28"/>
<polygon fill="#004b00" stroke="#004b00" points="602.25,-402.31 608.43,-393.71 598.23,-396.58 602.25,-402.31"/>
</g>
<!-- 1 -->
<g id="node2" class="node">
<title>1</title>
<ellipse fill="#fe5656" stroke="#581804" cx="1216.25" cy="-470.5" rx="18" ry="18"/>
<text text-anchor="middle" x="1216.25" y="-465.45" font-family="Times New Roman,serif" font-size="14.00">1</text>
</g>
<!-- 2 -->
<g id="node3" class="node">
<title>2</title>
<ellipse fill="#fe5656" stroke="#581804" cx="1216.25" cy="-351.5" rx="18" ry="18"/>
<text text-anchor="middle" x="1216.25" y="-346.45" font-family="Times New Roman,serif" font-size="14.00">2</text>
</g>
<!-- 1&#45;&gt;2 -->
<g id="edge1" class="edge">
<title>1&#45;&gt;2</title>
<path fill="none" stroke="white" d="M1211.35,-452.74C1209.26,-433.88 1208.94,-402.96 1210.4,-380.44"/>
<polygon fill="white" stroke="white" points="1213.86,-381 1211.22,-370.74 1206.89,-380.41 1213.86,-381"/>
</g>
<!-- 1&#45;&gt;2 -->
<g id="edge4" class="edge">
<title>1&#45;&gt;2</title>
<path fill="none" stroke="white" d="M1221.15,-452.74C1223.24,-433.88 1223.56,-402.96 1222.1,-380.44"/>
<polygon fill="white" stroke="white" points="1225.61,-380.41 1221.28,-370.74 1218.64,-381 1225.61,-380.41"/>
</g>
<!-- 3 -->
<g id="node6" class="node">
<title>3</title>
<ellipse fill="#fe5656" stroke="#581804" cx="1216.25" cy="-232.5" rx="18" ry="18"/>
<text text-anchor="middle" x="1216.25" y="-227.45" font-family="Times New Roman,serif" font-size="14.00">3</text>
</g>
<!-- 2&#45;&gt;3 -->
<g id="edge5" class="edge">
<title>2&#45;&gt;3</title>
<path fill="none" stroke="white" d="M1203.33,-338.42C1194.94,-319.15 1193.75,-281.14 1199.76,-256.54"/>
<polygon fill="white" stroke="white" points="1203.05,-257.72 1202.81,-247.13 1196.4,-255.56 1203.05,-257.72"/>
</g>
<!-- 2&#45;&gt;3 -->
<g id="edge8" class="edge">
<title>2&#45;&gt;3</title>
<path fill="none" stroke="white" d="M1211.35,-333.74C1209.26,-314.88 1208.94,-283.96 1210.4,-261.44"/>
<polygon fill="white" stroke="white" points="1213.86,-262 1211.22,-251.74 1206.89,-261.41 1213.86,-262"/>
</g>
<!-- 2&#45;&gt;3 -->
<g id="edge13" class="edge">
<title>2&#45;&gt;3</title>
<path fill="none" stroke="white" d="M1221.15,-333.74C1223.24,-314.88 1223.56,-283.96 1222.1,-261.44"/>
<polygon fill="white" stroke="white" points="1225.61,-261.41 1221.28,-251.74 1218.64,-262 1225.61,-261.41"/>
</g>
<!-- 2&#45;&gt;3 -->
<g id="edge16" class="edge">
<title>2&#45;&gt;3</title>
<path fill="none" stroke="white" d="M1229.17,-338.42C1237.56,-319.15 1238.75,-281.14 1232.74,-256.54"/>
<polygon fill="white" stroke="white" points="1236.1,-255.56 1229.69,-247.13 1229.45,-257.72 1236.1,-255.56"/>
</g>
<!-- node_0000022b17eb9230 -->
<g id="node7" class="node">
<title>node_0000022b17eb9230</title>
<path fill="#a2f8a4" stroke="#004b00" d="M12,-191.5C12,-191.5 306.5,-191.5 306.5,-191.5 312.5,-191.5 318.5,-197.5 318.5,-203.5 318.5,-203.5 318.5,-261.5 318.5,-261.5 318.5,-267.5 312.5,-273.5 306.5,-273.5 306.5,-273.5 12,-273.5 12,-273.5 6,-273.5 0,-267.5 0,-261.5 0,-261.5 0,-203.5 0,-203.5 0,-197.5 6,-191.5 12,-191.5"/>
<text text-anchor="middle" x="159.25" y="-256.2" font-family="Times New Roman,serif" font-size="14.00">data = Eto zhe azamat </text>
<text text-anchor="middle" x="159.25" y="-239.7" font-family="Times New Roman,serif" font-size="14.00"> addr: 0000022b17eb9230</text>
<polyline fill="none" stroke="#004b00" points="0,-232.5 318.5,-232.5"/>
<text text-anchor="middle" x="79.62" y="-215.2" font-family="Times New Roman,serif" font-size="14.00">L:</text>
<text text-anchor="middle" x="79.62" y="-198.7" font-family="Times New Roman,serif" font-size="14.00"> addr: 0000000000000000</text>
<polyline fill="none" stroke="#004b00" points="159.25,-191.5 159.25,-232.5"/>
<text text-anchor="middle" x="238.88" y="-215.2" font-family="Times New Roman,serif" font-size="14.00">R: </text>
<text text-anchor="middle" x="238.88" y="-198.7" font-family="Times New Roman,serif" font-size="14.00"> addr: 0000000000000000</text>
</g>
<!-- node_0000022b17eb9170&#45;&gt;node_0000022b17eb9230 -->
<g id="edge6" class="edge">
<title>node_0000022b17eb9170&#45;&gt;node_0000022b17eb9230</title>
<path fill="none" stroke="#004b00" d="M272.71,-310.24C258.44,-300.58 243.08,-290.2 228.42,-280.28"/>
<polygon fill="#004b00" stroke="#004b00" points="230.39,-277.39 220.15,-274.69 226.47,-283.19 230.39,-277.39"/>
</g>
<!-- node_r_null_0000022b17eb9170 -->
<g id="node8" class="node">
<title>node_r_null_0000022b17eb9170</title>
<ellipse fill="#a2f0f8" stroke="#007cff" cx="364.25" cy="-232.5" rx="27.81" ry="18"/>
<text text-anchor="middle" x="364.25" y="-227.45" font-family="Times New Roman,serif" font-size="14.00"> null</text>
</g>
<!-- node_0000022b17eb9170&#45;&gt;node_r_null_0000022b17eb9170 -->
<g id="edge7" class="edge">
<title>node_0000022b17eb9170&#45;&gt;node_r_null_0000022b17eb9170</title>
<path fill="none" stroke="#007cff" d="M343.26,-310.24C347.66,-294.17 352.61,-276.07 356.6,-261.48"/>
<polygon fill="#007cff" stroke="#007cff" points="359.9,-262.67 359.16,-252.1 353.15,-260.82 359.9,-262.67"/>
</g>
<!-- node_0000022b17eb92b0 -->
<g id="node12" class="node">
<title>node_0000022b17eb92b0</title>
<path fill="#a2f8a4" stroke="#004b00" d="M487,-191.5C487,-191.5 781.5,-191.5 781.5,-191.5 787.5,-191.5 793.5,-197.5 793.5,-203.5 793.5,-203.5 793.5,-261.5 793.5,-261.5 793.5,-267.5 787.5,-273.5 781.5,-273.5 781.5,-273.5 487,-273.5 487,-273.5 481,-273.5 475,-267.5 475,-261.5 475,-261.5 475,-203.5 475,-203.5 475,-197.5 481,-191.5 487,-191.5"/>
<text text-anchor="middle" x="634.25" y="-256.2" font-family="Times New Roman,serif" font-size="14.00">data = Sonya topi </text>
<text text-anchor="middle" x="634.25" y="-239.7" font-family="Times New Roman,serif" font-size="14.00"> addr: 0000022b17eb92b0</text>
<polyline fill="none" stroke="#004b00" points="475,-232.5 793.5,-232.5"/>
<text text-anchor="middle" x="554.62" y="-215.2" font-family="Times New Roman,serif" font-size="14.00">L:</text>
<text text-anchor="middle" x="554.62" y="-198.7" font-family="Times New Roman,serif" font-size="14.00"> addr: 0000000000000000</text>
<polyline fill="none" stroke="#004b00" points="634.25,-191.5 634.25,-232.5"/>
<text text-anchor="middle" x="713.88" y="-215.2" font-family="Times New Roman,serif" font-size="14.00">R: </text>
<text text-anchor="middle" x="713.88" y="-198.7" font-family="Times New Roman,serif" font-size="14.00"> addr: 0000000000000000</text>
</g>
<!-- node_0000022b17eb9250&#45;&gt;node_0000022b17eb92b0 -->
<g id="edge14" class="edge">
<title>node_0000022b17eb9250&#45;&gt;node_0000022b17eb92b0</title>
<path fill="none" stroke="#004b00" d="M655.89,-310.24C653.59,-302.05 651.13,-293.34 648.73,-284.84"/>
<polygon fill="#004b00" stroke="#004b00" points="652.12,-283.97 646.04,-275.3 645.38,-285.87 652.12,-283.97"/>
</g>
<!-- node_0000022b17eb9290 -->
<g id="node13" class="node">
<title>node_0000022b17eb9290</title>
<path fill="#a2f8a4" stroke="#004b00" d="M823.75,-191.5C823.75,-191.5 1116.75,-191.5 1116.75,-191.5 1122.75,-191.5 1128.75,-197.5 1128.75,-203.5 1128.75,-203.5 1128.75,-261.5 1128.75,-261.5 1128.75,-267.5 1122.75,-273.5 1116.75,-273.5 1116.75,-273.5 823.75,-273.5 823.75,-273.5 817.75,-273.5 811.75,-267.5 811.75,-261.5 811.75,-261.5 811.75,-203.5 811.75,-203.5 811.75,-197.5 817.75,-191.5 823.75,-191.5"/>
<text text-anchor="middle" x="970.25" y="-256.2" font-family="Times New Roman,serif" font-size="14.00">data = Nastya_topi </text>
<text text-anchor="middle" x="970.25" y="-239.7" font-family="Times New Roman,serif" font-size="14.00"> addr: 0000022b17eb9290</text>
<polyline fill="none" stroke="#004b00" points="811.75,-232.5 1128.75,-232.5"/>
<text text-anchor="middle" x="890.62" y="-215.2" font-family="Times New Roman,serif" font-size="14.00">L:</text>
<text text-anchor="middle" x="890.62" y="-198.7" font-family="Times New Roman,serif" font-size="14.00"> addr: 0000022b17eb9ab0</text>
<polyline fill="none" stroke="#004b00" points="969.5,-191.5 969.5,-232.5"/>
<text text-anchor="middle" x="1049.12" y="-215.2" font-family="Times New Roman,serif" font-size="14.00">R: </text>
<text text-anchor="middle" x="1049.12" y="-198.7" font-family="Times New Roman,serif" font-size="14.00"> addr: 0000000000000000</text>
</g>
<!-- node_0000022b17eb9250&#45;&gt;node_0000022b17eb9290 -->
<g id="edge15" class="edge">
<title>node_0000022b17eb9250&#45;&gt;node_0000022b17eb9290</title>
<path fill="none" stroke="#004b00" d="M771.95,-310.07C798.8,-299.7 827.82,-288.5 855.16,-277.94"/>
<polygon fill="#004b00" stroke="#004b00" points="856.07,-281.34 864.13,-274.48 853.54,-274.81 856.07,-281.34"/>
</g>
<!-- 4 -->
<g id="node9" class="node">
<title>4</title>
<ellipse fill="#fe5656" stroke="#581804" cx="1216.25" cy="-113.5" rx="18" ry="18"/>
<text text-anchor="middle" x="1216.25" y="-108.45" font-family="Times New Roman,serif" font-size="14.00">4</text>
</g>
<!-- 3&#45;&gt;4 -->
<g id="edge9" class="edge">
<title>3&#45;&gt;4</title>
<path fill="none" stroke="white" d="M1199.56,-224.87C1179.46,-206.69 1177.12,-155.67 1192.55,-129.86"/>
<polygon fill="white" stroke="white" points="1195.15,-132.22 1198.69,-122.23 1189.7,-127.83 1195.15,-132.22"/>
</g>
<!-- 3&#45;&gt;4 -->
<g id="edge12" class="edge">
<title>3&#45;&gt;4</title>
<path fill="none" stroke="white" d="M1203.33,-219.42C1194.94,-200.15 1193.75,-162.14 1199.76,-137.54"/>
<polygon fill="white" stroke="white" points="1203.05,-138.72 1202.81,-128.13 1196.4,-136.56 1203.05,-138.72"/>
</g>
<!-- 3&#45;&gt;4 -->
<g id="edge17" class="edge">
<title>3&#45;&gt;4</title>
<path fill="none" stroke="white" d="M1211.35,-214.74C1209.26,-195.88 1208.94,-164.96 1210.4,-142.44"/>
<polygon fill="white" stroke="white" points="1213.86,-143 1211.22,-132.74 1206.89,-142.41 1213.86,-143"/>
</g>
<!-- 3&#45;&gt;4 -->
<g id="edge20" class="edge">
<title>3&#45;&gt;4</title>
<path fill="none" stroke="white" d="M1221.15,-214.74C1223.24,-195.88 1223.56,-164.96 1222.1,-142.44"/>
<polygon fill="white" stroke="white" points="1225.61,-142.41 1221.28,-132.74 1218.64,-143 1225.61,-142.41"/>
</g>
<!-- 3&#45;&gt;4 -->
<g id="edge21" class="edge">
<title>3&#45;&gt;4</title>
<path fill="none" stroke="white" d="M1229.17,-219.42C1237.56,-200.15 1238.75,-162.14 1232.74,-137.54"/>
<polygon fill="white" stroke="white" points="1236.1,-136.56 1229.69,-128.13 1229.45,-138.72 1236.1,-136.56"/>
</g>
<!-- 3&#45;&gt;4 -->
<g id="edge24" class="edge">
<title>3&#45;&gt;4</title>
<path fill="none" stroke="white" d="M1232.94,-224.87C1253.04,-206.69 1255.38,-155.67 1239.95,-129.86"/>
<polygon fill="white" stroke="white" points="1242.8,-127.83 1233.81,-122.23 1237.35,-132.22 1242.8,-127.83"/>
</g>
<!-- node_l_null_0000022b17eb9230 -->
<g id="node10" class="node">
<title>node_l_null_0000022b17eb9230</title>
<ellipse fill="#a2f0f8" stroke="#007cff" cx="123.25" cy="-113.5" rx="27" ry="18"/>
<text text-anchor="middle" x="123.25" y="-108.45" font-family="Times New Roman,serif" font-size="14.00">null</text>
</g>
<!-- node_0000022b17eb9230&#45;&gt;node_l_null_0000022b17eb9230 -->
<g id="edge10" class="edge">
<title>node_0000022b17eb9230&#45;&gt;node_l_null_0000022b17eb9230</title>
<path fill="none" stroke="#007cff" d="M146.86,-191.24C141.92,-175.17 136.35,-157.07 131.86,-142.48"/>
<polygon fill="#007cff" stroke="#007cff" points="135.26,-141.62 128.97,-133.09 128.57,-143.68 135.26,-141.62"/>
</g>
<!-- node_r_null_0000022b17eb9230 -->
<g id="node11" class="node">
<title>node_r_null_0000022b17eb9230</title>
<ellipse fill="#a2f0f8" stroke="#007cff" cx="196.25" cy="-113.5" rx="27.81" ry="18"/>
<text text-anchor="middle" x="196.25" y="-108.45" font-family="Times New Roman,serif" font-size="14.00"> null</text>
</g>
<!-- node_0000022b17eb9230&#45;&gt;node_r_null_0000022b17eb9230 -->
<g id="edge11" class="edge">
<title>node_0000022b17eb9230&#45;&gt;node_r_null_0000022b17eb9230</title>
<path fill="none" stroke="#007cff" d="M171.98,-191.24C177.06,-175.17 182.79,-157.07 187.4,-142.48"/>
<polygon fill="#007cff" stroke="#007cff" points="190.69,-143.68 190.37,-133.09 184.02,-141.56 190.69,-143.68"/>
</g>
<!-- 5 -->
<g id="node18" class="node">
<title>5</title>
<ellipse fill="#fe5656" stroke="#581804" cx="1216.25" cy="-18" rx="18" ry="18"/>
<text text-anchor="middle" x="1216.25" y="-12.95" font-family="Times New Roman,serif" font-size="14.00">5</text>
</g>
<!-- 4&#45;&gt;5 -->
<g id="edge25" class="edge">
<title>4&#45;&gt;5</title>
<path fill="none" stroke="white" d="M1210.93,-95.78C1209.41,-82.22 1209.1,-62.81 1210.01,-46.9"/>
<polygon fill="white" stroke="white" points="1213.49,-47.33 1210.83,-37.08 1206.51,-46.76 1213.49,-47.33"/>
</g>
<!-- 4&#45;&gt;5 -->
<g id="edge28" class="edge">
<title>4&#45;&gt;5</title>
<path fill="none" stroke="white" d="M1221.57,-95.78C1223.09,-82.22 1223.4,-62.81 1222.49,-46.9"/>
<polygon fill="white" stroke="white" points="1225.99,-46.76 1221.67,-37.08 1219.01,-47.33 1225.99,-46.76"/>
</g>
<!-- node_l_null_0000022b17eb92b0 -->
<g id="node14" class="node">
<title>node_l_null_0000022b17eb92b0</title>
<ellipse fill="#a2f0f8" stroke="#007cff" cx="597.25" cy="-113.5" rx="27" ry="18"/>
<text text-anchor="middle" x="597.25" y="-108.45" font-family="Times New Roman,serif" font-size="14.00">null</text>
</g>
<!-- node_0000022b17eb92b0&#45;&gt;node_l_null_0000022b17eb92b0 -->
<g id="edge18" class="edge">
<title>node_0000022b17eb92b0&#45;&gt;node_l_null_0000022b17eb92b0</title>
<path fill="none" stroke="#007cff" d="M621.52,-191.24C616.4,-175.07 610.64,-156.83 606.01,-142.2"/>
<polygon fill="#007cff" stroke="#007cff" points="609.38,-141.26 603.03,-132.78 602.71,-143.37 609.38,-141.26"/>
</g>
<!-- node_r_null_0000022b17eb92b0 -->
<g id="node15" class="node">
<title>node_r_null_0000022b17eb92b0</title>
<ellipse fill="#a2f0f8" stroke="#007cff" cx="670.25" cy="-113.5" rx="27.81" ry="18"/>
<text text-anchor="middle" x="670.25" y="-108.45" font-family="Times New Roman,serif" font-size="14.00"> null</text>
</g>
<!-- node_0000022b17eb92b0&#45;&gt;node_r_null_0000022b17eb92b0 -->
<g id="edge19" class="edge">
<title>node_0000022b17eb92b0&#45;&gt;node_r_null_0000022b17eb92b0</title>
<path fill="none" stroke="#007cff" d="M646.64,-191.24C651.58,-175.17 657.15,-157.07 661.64,-142.48"/>
<polygon fill="#007cff" stroke="#007cff" points="664.93,-143.68 664.53,-133.09 658.24,-141.62 664.93,-143.68"/>
</g>
<!-- node_0000022b17eb9ab0 -->
<g id="node16" class="node">
<title>node_0000022b17eb9ab0</title>
<path fill="#a2f8a4" stroke="#004b00" d="M772,-72.5C772,-72.5 1066.5,-72.5 1066.5,-72.5 1072.5,-72.5 1078.5,-78.5 1078.5,-84.5 1078.5,-84.5 1078.5,-142.5 1078.5,-142.5 1078.5,-148.5 1072.5,-154.5 1066.5,-154.5 1066.5,-154.5 772,-154.5 772,-154.5 766,-154.5 760,-148.5 760,-142.5 760,-142.5 760,-84.5 760,-84.5 760,-78.5 766,-72.5 772,-72.5"/>
<text text-anchor="middle" x="919.25" y="-137.2" font-family="Times New Roman,serif" font-size="14.00">data = Danya_topi </text>
<text text-anchor="middle" x="919.25" y="-120.7" font-family="Times New Roman,serif" font-size="14.00"> addr: 0000022b17eb9ab0</text>
<polyline fill="none" stroke="#004b00" points="760,-113.5 1078.5,-113.5"/>
<text text-anchor="middle" x="839.62" y="-96.2" font-family="Times New Roman,serif" font-size="14.00">L:</text>
<text text-anchor="middle" x="839.62" y="-79.7" font-family="Times New Roman,serif" font-size="14.00"> addr: 0000000000000000</text>
<polyline fill="none" stroke="#004b00" points="919.25,-72.5 919.25,-113.5"/>
<text text-anchor="middle" x="998.88" y="-96.2" font-family="Times New Roman,serif" font-size="14.00">R: </text>
<text text-anchor="middle" x="998.88" y="-79.7" font-family="Times New Roman,serif" font-size="14.00"> addr: 0000000000000000</text>
</g>
<!-- node_0000022b17eb9290&#45;&gt;node_0000022b17eb9ab0 -->
<g id="edge22" class="edge">
<title>node_0000022b17eb9290&#45;&gt;node_0000022b17eb9ab0</title>
<path fill="none" stroke="#004b00" d="M952.7,-191.24C949.05,-182.87 945.17,-173.95 941.38,-165.27"/>
<polygon fill="#004b00" stroke="#004b00" points="944.64,-163.99 937.44,-156.23 938.23,-166.79 944.64,-163.99"/>
</g>
<!-- node_r_null_0000022b17eb9290 -->
<g id="node17" class="node">
<title>node_r_null_0000022b17eb9290</title>
<ellipse fill="#a2f0f8" stroke="#007cff" cx="1124.25" cy="-113.5" rx="27.81" ry="18"/>
<text text-anchor="middle" x="1124.25" y="-108.45" font-family="Times New Roman,serif" font-size="14.00"> null</text>
</g>
<!-- node_0000022b17eb9290&#45;&gt;node_r_null_0000022b17eb9290 -->
<g id="edge23" class="edge">
<title>node_0000022b17eb9290&#45;&gt;node_r_null_0000022b17eb9290</title>
<path fill="none" stroke="#007cff" d="M1038.22,-191.19C1054.85,-180.22 1072.18,-167.81 1087.25,-155 1093.2,-149.94 1099.13,-143.97 1104.45,-138.19"/>
<polygon fill="#007cff" stroke="#007cff" points="1106.7,-140.92 1110.72,-131.12 1101.47,-136.27 1106.7,-140.92"/>
</g>
<!-- node_l_null_0000022b17eb9ab0 -->
<g id="node19" class="node">
<title>node_l_null_0000022b17eb9ab0</title>
<ellipse fill="#a2f0f8" stroke="#007cff" cx="882.25" cy="-18" rx="27" ry="18"/>
<text text-anchor="middle" x="882.25" y="-12.95" font-family="Times New Roman,serif" font-size="14.00">null</text>
</g>
<!-- node_0000022b17eb9ab0&#45;&gt;node_l_null_0000022b17eb9ab0 -->
<g id="edge26" class="edge">
<title>node_0000022b17eb9ab0&#45;&gt;node_l_null_0000022b17eb9ab0</title>
<path fill="none" stroke="#007cff" d="M903.24,-72.03C899.79,-63.31 896.22,-54.29 893.02,-46.22"/>
<polygon fill="#007cff" stroke="#007cff" points="896.3,-44.99 889.36,-36.98 889.79,-47.56 896.3,-44.99"/>
</g>
<!-- node_r_null_0000022b17eb9ab0 -->
<g id="node20" class="node">
<title>node_r_null_0000022b17eb9ab0</title>
<ellipse fill="#a2f0f8" stroke="#007cff" cx="955.25" cy="-18" rx="27.81" ry="18"/>
<text text-anchor="middle" x="955.25" y="-12.95" font-family="Times New Roman,serif" font-size="14.00"> null</text>
</g>
<!-- node_0000022b17eb9ab0&#45;&gt;node_r_null_0000022b17eb9ab0 -->
<g id="edge27" class="edge">
<title>node_0000022b17eb9ab0&#45;&gt;node_r_null_0000022b17eb9ab0</title>
<path fill="none" stroke="#007cff" d="M934.83,-72.03C938.19,-63.31 941.66,-54.29 944.77,-46.22"/>
<polygon fill="#007cff" stroke="#007cff" points="948,-47.57 948.33,-36.98 941.47,-45.06 948,-47.57"/>
</g>
</g>
</svg>
