<?xml version="1.0" encoding="UTF-8" standalone="no"?>
<!DOCTYPE svg PUBLIC "-//W3C//DTD SVG 1.1//EN"
 "http://www.w3.org/Graphics/SVG/1.1/DTD/svg11.dtd">
<!-- Generated by graphviz version 12.2.0 (20241103.1931)
 -->
<!-- Pages: 1 -->
<svg width="1208pt" height="401pt"
 viewBox="0.00 0.00 1208.35 401.00" xmlns="http://www.w3.org/2000/svg" xmlns:xlink="http://www.w3.org/1999/xlink">
<g id="graph0" class="graph" transform="scale(1 1) rotate(0) translate(4 397)">
<polygon fill="white" stroke="none" points="-4,4 -4,-397 1204.35,-397 1204.35,4 -4,4"/>
<!-- node_0000024a261790b0 -->
<g id="node1" class="node">
<title>node_0000024a261790b0</title>
<path fill="#ffa615" stroke="#004b00" d="M353.75,-310.5C353.75,-310.5 646.75,-310.5 646.75,-310.5 652.75,-310.5 658.75,-316.5 658.75,-322.5 658.75,-322.5 658.75,-380.5 658.75,-380.5 658.75,-386.5 652.75,-392.5 646.75,-392.5 646.75,-392.5 353.75,-392.5 353.75,-392.5 347.75,-392.5 341.75,-386.5 341.75,-380.5 341.75,-380.5 341.75,-322.5 341.75,-322.5 341.75,-316.5 347.75,-310.5 353.75,-310.5"/>
<text text-anchor="middle" x="500.25" y="-375.2" font-family="Times New Roman,serif" font-size="14.00">data = Akinator </text>
<text text-anchor="middle" x="500.25" y="-358.7" font-family="Times New Roman,serif" font-size="14.00"> addr: 0000024a261790b0</text>
<polyline fill="none" stroke="#004b00" points="341.75,-351.5 658.75,-351.5"/>
<text text-anchor="middle" x="421" y="-334.2" font-family="Times New Roman,serif" font-size="14.00">L:</text>
<text text-anchor="middle" x="421" y="-317.7" font-family="Times New Roman,serif" font-size="14.00"> addr: 0000024a26179010</text>
<polyline fill="none" stroke="#004b00" points="500.25,-310.5 500.25,-351.5"/>
<text text-anchor="middle" x="579.5" y="-334.2" font-family="Times New Roman,serif" font-size="14.00">R: </text>
<text text-anchor="middle" x="579.5" y="-317.7" font-family="Times New Roman,serif" font-size="14.00"> addr: 0000024a261790d0</text>
</g>
<!-- node_0000024a26179010 -->
<g id="node4" class="node">
<title>node_0000024a26179010</title>
<path fill="#a2f8a4" stroke="#004b00" d="M185.38,-191.5C185.38,-191.5 479.12,-191.5 479.12,-191.5 485.12,-191.5 491.12,-197.5 491.12,-203.5 491.12,-203.5 491.12,-261.5 491.12,-261.5 491.12,-267.5 485.12,-273.5 479.12,-273.5 479.12,-273.5 185.38,-273.5 185.38,-273.5 179.38,-273.5 173.38,-267.5 173.38,-261.5 173.38,-261.5 173.38,-203.5 173.38,-203.5 173.38,-197.5 179.38,-191.5 185.38,-191.5"/>
<text text-anchor="middle" x="332.25" y="-256.2" font-family="Times New Roman,serif" font-size="14.00">data = YES_YES </text>
<text text-anchor="middle" x="332.25" y="-239.7" font-family="Times New Roman,serif" font-size="14.00"> addr: 0000024a26179010</text>
<polyline fill="none" stroke="#004b00" points="173.38,-232.5 491.12,-232.5"/>
<text text-anchor="middle" x="252.62" y="-215.2" font-family="Times New Roman,serif" font-size="14.00">L:</text>
<text text-anchor="middle" x="252.62" y="-198.7" font-family="Times New Roman,serif" font-size="14.00"> addr: 0000024a26179210</text>
<polyline fill="none" stroke="#004b00" points="331.88,-191.5 331.88,-232.5"/>
<text text-anchor="middle" x="411.5" y="-215.2" font-family="Times New Roman,serif" font-size="14.00">R: </text>
<text text-anchor="middle" x="411.5" y="-198.7" font-family="Times New Roman,serif" font-size="14.00"> addr: 0000000000000000</text>
</g>
<!-- node_0000024a261790b0&#45;&gt;node_0000024a26179010 -->
<g id="edge2" class="edge">
<title>node_0000024a261790b0&#45;&gt;node_0000024a26179010</title>
<path fill="none" stroke="#004b00" d="M442.43,-310.24C428.57,-300.58 413.66,-290.2 399.42,-280.28"/>
<polygon fill="#004b00" stroke="#004b00" points="401.62,-277.55 391.41,-274.7 397.62,-283.29 401.62,-277.55"/>
</g>
<!-- node_0000024a261790d0 -->
<g id="node5" class="node">
<title>node_0000024a261790d0</title>
<path fill="#a2f8a4" stroke="#004b00" d="M520.75,-191.5C520.75,-191.5 813.75,-191.5 813.75,-191.5 819.75,-191.5 825.75,-197.5 825.75,-203.5 825.75,-203.5 825.75,-261.5 825.75,-261.5 825.75,-267.5 819.75,-273.5 813.75,-273.5 813.75,-273.5 520.75,-273.5 520.75,-273.5 514.75,-273.5 508.75,-267.5 508.75,-261.5 508.75,-261.5 508.75,-203.5 508.75,-203.5 508.75,-197.5 514.75,-191.5 520.75,-191.5"/>
<text text-anchor="middle" x="667.25" y="-256.2" font-family="Times New Roman,serif" font-size="14.00">data = Skibidi dob dob yes yes </text>
<text text-anchor="middle" x="667.25" y="-239.7" font-family="Times New Roman,serif" font-size="14.00"> addr: 0000024a261790d0</text>
<polyline fill="none" stroke="#004b00" points="508.75,-232.5 825.75,-232.5"/>
<text text-anchor="middle" x="588" y="-215.2" font-family="Times New Roman,serif" font-size="14.00">L:</text>
<text text-anchor="middle" x="588" y="-198.7" font-family="Times New Roman,serif" font-size="14.00"> addr: 0000024a26179030</text>
<polyline fill="none" stroke="#004b00" points="667.25,-191.5 667.25,-232.5"/>
<text text-anchor="middle" x="746.5" y="-215.2" font-family="Times New Roman,serif" font-size="14.00">R: </text>
<text text-anchor="middle" x="746.5" y="-198.7" font-family="Times New Roman,serif" font-size="14.00"> addr: 0000024a26179350</text>
</g>
<!-- node_0000024a261790b0&#45;&gt;node_0000024a261790d0 -->
<g id="edge3" class="edge">
<title>node_0000024a261790b0&#45;&gt;node_0000024a261790d0</title>
<path fill="none" stroke="#004b00" d="M557.72,-310.24C571.5,-300.58 586.33,-290.2 600.48,-280.28"/>
<polygon fill="#004b00" stroke="#004b00" points="602.25,-283.31 608.43,-274.71 598.23,-277.58 602.25,-283.31"/>
</g>
<!-- 1 -->
<g id="node2" class="node">
<title>1</title>
<ellipse fill="#fe5656" stroke="#581804" cx="1166.25" cy="-351.5" rx="18" ry="18"/>
<text text-anchor="middle" x="1166.25" y="-346.45" font-family="Times New Roman,serif" font-size="14.00">1</text>
</g>
<!-- 2 -->
<g id="node3" class="node">
<title>2</title>
<ellipse fill="#fe5656" stroke="#581804" cx="1166.25" cy="-232.5" rx="18" ry="18"/>
<text text-anchor="middle" x="1166.25" y="-227.45" font-family="Times New Roman,serif" font-size="14.00">2</text>
</g>
<!-- 1&#45;&gt;2 -->
<g id="edge1" class="edge">
<title>1&#45;&gt;2</title>
<path fill="none" stroke="white" d="M1161.35,-333.74C1159.26,-314.88 1158.94,-283.96 1160.4,-261.44"/>
<polygon fill="white" stroke="white" points="1163.86,-262 1161.22,-251.74 1156.89,-261.41 1163.86,-262"/>
</g>
<!-- 1&#45;&gt;2 -->
<g id="edge4" class="edge">
<title>1&#45;&gt;2</title>
<path fill="none" stroke="white" d="M1171.15,-333.74C1173.24,-314.88 1173.56,-283.96 1172.1,-261.44"/>
<polygon fill="white" stroke="white" points="1175.61,-261.41 1171.28,-251.74 1168.64,-262 1175.61,-261.41"/>
</g>
<!-- 3 -->
<g id="node6" class="node">
<title>3</title>
<ellipse fill="#fe5656" stroke="#581804" cx="1166.25" cy="-113.5" rx="18" ry="18"/>
<text text-anchor="middle" x="1166.25" y="-108.45" font-family="Times New Roman,serif" font-size="14.00">3</text>
</g>
<!-- 2&#45;&gt;3 -->
<g id="edge5" class="edge">
<title>2&#45;&gt;3</title>
<path fill="none" stroke="white" d="M1153.33,-219.42C1144.94,-200.15 1143.75,-162.14 1149.76,-137.54"/>
<polygon fill="white" stroke="white" points="1153.05,-138.72 1152.81,-128.13 1146.4,-136.56 1153.05,-138.72"/>
</g>
<!-- 2&#45;&gt;3 -->
<g id="edge8" class="edge">
<title>2&#45;&gt;3</title>
<path fill="none" stroke="white" d="M1161.35,-214.74C1159.26,-195.88 1158.94,-164.96 1160.4,-142.44"/>
<polygon fill="white" stroke="white" points="1163.86,-143 1161.22,-132.74 1156.89,-142.41 1163.86,-143"/>
</g>
<!-- 2&#45;&gt;3 -->
<g id="edge13" class="edge">
<title>2&#45;&gt;3</title>
<path fill="none" stroke="white" d="M1171.15,-214.74C1173.24,-195.88 1173.56,-164.96 1172.1,-142.44"/>
<polygon fill="white" stroke="white" points="1175.61,-142.41 1171.28,-132.74 1168.64,-143 1175.61,-142.41"/>
</g>
<!-- 2&#45;&gt;3 -->
<g id="edge16" class="edge">
<title>2&#45;&gt;3</title>
<path fill="none" stroke="white" d="M1179.17,-219.42C1187.56,-200.15 1188.75,-162.14 1182.74,-137.54"/>
<polygon fill="white" stroke="white" points="1186.1,-136.56 1179.69,-128.13 1179.45,-138.72 1186.1,-136.56"/>
</g>
<!-- node_0000024a26179210 -->
<g id="node7" class="node">
<title>node_0000024a26179210</title>
<path fill="#a2f8a4" stroke="#004b00" d="M12,-72.5C12,-72.5 306.5,-72.5 306.5,-72.5 312.5,-72.5 318.5,-78.5 318.5,-84.5 318.5,-84.5 318.5,-142.5 318.5,-142.5 318.5,-148.5 312.5,-154.5 306.5,-154.5 306.5,-154.5 12,-154.5 12,-154.5 6,-154.5 0,-148.5 0,-142.5 0,-142.5 0,-84.5 0,-84.5 0,-78.5 6,-72.5 12,-72.5"/>
<text text-anchor="middle" x="159.25" y="-137.2" font-family="Times New Roman,serif" font-size="14.00">data = Eto zhe azamat </text>
<text text-anchor="middle" x="159.25" y="-120.7" font-family="Times New Roman,serif" font-size="14.00"> addr: 0000024a26179210</text>
<polyline fill="none" stroke="#004b00" points="0,-113.5 318.5,-113.5"/>
<text text-anchor="middle" x="79.62" y="-96.2" font-family="Times New Roman,serif" font-size="14.00">L:</text>
<text text-anchor="middle" x="79.62" y="-79.7" font-family="Times New Roman,serif" font-size="14.00"> addr: 0000000000000000</text>
<polyline fill="none" stroke="#004b00" points="159.25,-72.5 159.25,-113.5"/>
<text text-anchor="middle" x="238.88" y="-96.2" font-family="Times New Roman,serif" font-size="14.00">R: </text>
<text text-anchor="middle" x="238.88" y="-79.7" font-family="Times New Roman,serif" font-size="14.00"> addr: 0000000000000000</text>
</g>
<!-- node_0000024a26179010&#45;&gt;node_0000024a26179210 -->
<g id="edge6" class="edge">
<title>node_0000024a26179010&#45;&gt;node_0000024a26179210</title>
<path fill="none" stroke="#004b00" d="M272.71,-191.24C258.44,-181.58 243.08,-171.2 228.42,-161.28"/>
<polygon fill="#004b00" stroke="#004b00" points="230.39,-158.39 220.15,-155.69 226.47,-164.19 230.39,-158.39"/>
</g>
<!-- node_r_null_0000024a26179010 -->
<g id="node8" class="node">
<title>node_r_null_0000024a26179010</title>
<ellipse fill="#a2f0f8" stroke="#007cff" cx="364.25" cy="-113.5" rx="27.81" ry="18"/>
<text text-anchor="middle" x="364.25" y="-108.45" font-family="Times New Roman,serif" font-size="14.00"> null</text>
</g>
<!-- node_0000024a26179010&#45;&gt;node_r_null_0000024a26179010 -->
<g id="edge7" class="edge">
<title>node_0000024a26179010&#45;&gt;node_r_null_0000024a26179010</title>
<path fill="none" stroke="#007cff" d="M343.26,-191.24C347.66,-175.17 352.61,-157.07 356.6,-142.48"/>
<polygon fill="#007cff" stroke="#007cff" points="359.9,-143.67 359.16,-133.1 353.15,-141.82 359.9,-143.67"/>
</g>
<!-- node_0000024a26179030 -->
<g id="node12" class="node">
<title>node_0000024a26179030</title>
<path fill="#a2f8a4" stroke="#004b00" d="M487,-72.5C487,-72.5 781.5,-72.5 781.5,-72.5 787.5,-72.5 793.5,-78.5 793.5,-84.5 793.5,-84.5 793.5,-142.5 793.5,-142.5 793.5,-148.5 787.5,-154.5 781.5,-154.5 781.5,-154.5 487,-154.5 487,-154.5 481,-154.5 475,-148.5 475,-142.5 475,-142.5 475,-84.5 475,-84.5 475,-78.5 481,-72.5 487,-72.5"/>
<text text-anchor="middle" x="634.25" y="-137.2" font-family="Times New Roman,serif" font-size="14.00">data = Sonya topi </text>
<text text-anchor="middle" x="634.25" y="-120.7" font-family="Times New Roman,serif" font-size="14.00"> addr: 0000024a26179030</text>
<polyline fill="none" stroke="#004b00" points="475,-113.5 793.5,-113.5"/>
<text text-anchor="middle" x="554.62" y="-96.2" font-family="Times New Roman,serif" font-size="14.00">L:</text>
<text text-anchor="middle" x="554.62" y="-79.7" font-family="Times New Roman,serif" font-size="14.00"> addr: 0000000000000000</text>
<polyline fill="none" stroke="#004b00" points="634.25,-72.5 634.25,-113.5"/>
<text text-anchor="middle" x="713.88" y="-96.2" font-family="Times New Roman,serif" font-size="14.00">R: </text>
<text text-anchor="middle" x="713.88" y="-79.7" font-family="Times New Roman,serif" font-size="14.00"> addr: 0000000000000000</text>
</g>
<!-- node_0000024a261790d0&#45;&gt;node_0000024a26179030 -->
<g id="edge14" class="edge">
<title>node_0000024a261790d0&#45;&gt;node_0000024a26179030</title>
<path fill="none" stroke="#004b00" d="M655.89,-191.24C653.59,-183.05 651.13,-174.34 648.73,-165.84"/>
<polygon fill="#004b00" stroke="#004b00" points="652.12,-164.97 646.04,-156.3 645.38,-166.87 652.12,-164.97"/>
</g>
<!-- node_0000024a26179350 -->
<g id="node13" class="node">
<title>node_0000024a26179350</title>
<path fill="#a2f8a4" stroke="#004b00" d="M824,-72.5C824,-72.5 1118.5,-72.5 1118.5,-72.5 1124.5,-72.5 1130.5,-78.5 1130.5,-84.5 1130.5,-84.5 1130.5,-142.5 1130.5,-142.5 1130.5,-148.5 1124.5,-154.5 1118.5,-154.5 1118.5,-154.5 824,-154.5 824,-154.5 818,-154.5 812,-148.5 812,-142.5 812,-142.5 812,-84.5 812,-84.5 812,-78.5 818,-72.5 824,-72.5"/>
<text text-anchor="middle" x="971.25" y="-137.2" font-family="Times New Roman,serif" font-size="14.00">data = Nastya_topi </text>
<text text-anchor="middle" x="971.25" y="-120.7" font-family="Times New Roman,serif" font-size="14.00"> addr: 0000024a26179350</text>
<polyline fill="none" stroke="#004b00" points="812,-113.5 1130.5,-113.5"/>
<text text-anchor="middle" x="891.62" y="-96.2" font-family="Times New Roman,serif" font-size="14.00">L:</text>
<text text-anchor="middle" x="891.62" y="-79.7" font-family="Times New Roman,serif" font-size="14.00"> addr: 0000000000000000</text>
<polyline fill="none" stroke="#004b00" points="971.25,-72.5 971.25,-113.5"/>
<text text-anchor="middle" x="1050.88" y="-96.2" font-family="Times New Roman,serif" font-size="14.00">R: </text>
<text text-anchor="middle" x="1050.88" y="-79.7" font-family="Times New Roman,serif" font-size="14.00"> addr: 0000000000000000</text>
</g>
<!-- node_0000024a261790d0&#45;&gt;node_0000024a26179350 -->
<g id="edge15" class="edge">
<title>node_0000024a261790d0&#45;&gt;node_0000024a26179350</title>
<path fill="none" stroke="#004b00" d="M772.3,-191.07C799.23,-180.7 828.35,-169.5 855.78,-158.94"/>
<polygon fill="#004b00" stroke="#004b00" points="856.71,-162.33 864.79,-155.47 854.2,-155.8 856.71,-162.33"/>
</g>
<!-- 4 -->
<g id="node9" class="node">
<title>4</title>
<ellipse fill="#fe5656" stroke="#581804" cx="1166.25" cy="-18" rx="18" ry="18"/>
<text text-anchor="middle" x="1166.25" y="-12.95" font-family="Times New Roman,serif" font-size="14.00">4</text>
</g>
<!-- 3&#45;&gt;4 -->
<g id="edge9" class="edge">
<title>3&#45;&gt;4</title>
<path fill="none" stroke="white" d="M1149.19,-106.93C1129.93,-92.54 1127.34,-53.8 1141.42,-32.87"/>
<polygon fill="white" stroke="white" points="1143.78,-35.47 1148.04,-25.77 1138.66,-30.7 1143.78,-35.47"/>
</g>
<!-- 3&#45;&gt;4 -->
<g id="edge12" class="edge">
<title>3&#45;&gt;4</title>
<path fill="none" stroke="white" d="M1152.59,-101.41C1145.31,-86.51 1144.06,-59.7 1148.84,-40.71"/>
<polygon fill="white" stroke="white" points="1152.06,-42.1 1152.09,-31.51 1145.46,-39.77 1152.06,-42.1"/>
</g>
<!-- 3&#45;&gt;4 -->
<g id="edge17" class="edge">
<title>3&#45;&gt;4</title>
<path fill="none" stroke="white" d="M1160.93,-95.78C1159.41,-82.22 1159.1,-62.81 1160.01,-46.9"/>
<polygon fill="white" stroke="white" points="1163.49,-47.33 1160.83,-37.08 1156.51,-46.76 1163.49,-47.33"/>
</g>
<!-- 3&#45;&gt;4 -->
<g id="edge20" class="edge">
<title>3&#45;&gt;4</title>
<path fill="none" stroke="white" d="M1171.57,-95.78C1173.09,-82.22 1173.4,-62.81 1172.49,-46.9"/>
<polygon fill="white" stroke="white" points="1175.99,-46.76 1171.67,-37.08 1169.01,-47.33 1175.99,-46.76"/>
</g>
<!-- 3&#45;&gt;4 -->
<g id="edge21" class="edge">
<title>3&#45;&gt;4</title>
<path fill="none" stroke="white" d="M1179.91,-101.41C1187.19,-86.51 1188.44,-59.7 1183.66,-40.71"/>
<polygon fill="white" stroke="white" points="1187.04,-39.77 1180.41,-31.51 1180.44,-42.1 1187.04,-39.77"/>
</g>
<!-- 3&#45;&gt;4 -->
<g id="edge24" class="edge">
<title>3&#45;&gt;4</title>
<path fill="none" stroke="white" d="M1183.31,-106.93C1202.57,-92.54 1205.16,-53.8 1191.08,-32.87"/>
<polygon fill="white" stroke="white" points="1193.84,-30.7 1184.46,-25.77 1188.72,-35.47 1193.84,-30.7"/>
</g>
<!-- node_l_null_0000024a26179210 -->
<g id="node10" class="node">
<title>node_l_null_0000024a26179210</title>
<ellipse fill="#a2f0f8" stroke="#007cff" cx="123.25" cy="-18" rx="27" ry="18"/>
<text text-anchor="middle" x="123.25" y="-12.95" font-family="Times New Roman,serif" font-size="14.00">null</text>
</g>
<!-- node_0000024a26179210&#45;&gt;node_l_null_0000024a26179210 -->
<g id="edge10" class="edge">
<title>node_0000024a26179210&#45;&gt;node_l_null_0000024a26179210</title>
<path fill="none" stroke="#007cff" d="M143.67,-72.03C140.31,-63.31 136.84,-54.29 133.73,-46.22"/>
<polygon fill="#007cff" stroke="#007cff" points="137.03,-45.06 130.17,-36.98 130.5,-47.57 137.03,-45.06"/>
</g>
<!-- node_r_null_0000024a26179210 -->
<g id="node11" class="node">
<title>node_r_null_0000024a26179210</title>
<ellipse fill="#a2f0f8" stroke="#007cff" cx="196.25" cy="-18" rx="27.81" ry="18"/>
<text text-anchor="middle" x="196.25" y="-12.95" font-family="Times New Roman,serif" font-size="14.00"> null</text>
</g>
<!-- node_0000024a26179210&#45;&gt;node_r_null_0000024a26179210 -->
<g id="edge11" class="edge">
<title>node_0000024a26179210&#45;&gt;node_r_null_0000024a26179210</title>
<path fill="none" stroke="#007cff" d="M175.26,-72.03C178.71,-63.31 182.28,-54.29 185.48,-46.22"/>
<polygon fill="#007cff" stroke="#007cff" points="188.71,-47.56 189.14,-36.98 182.2,-44.99 188.71,-47.56"/>
</g>
<!-- node_l_null_0000024a26179030 -->
<g id="node14" class="node">
<title>node_l_null_0000024a26179030</title>
<ellipse fill="#a2f0f8" stroke="#007cff" cx="597.25" cy="-18" rx="27" ry="18"/>
<text text-anchor="middle" x="597.25" y="-12.95" font-family="Times New Roman,serif" font-size="14.00">null</text>
</g>
<!-- node_0000024a26179030&#45;&gt;node_l_null_0000024a26179030 -->
<g id="edge18" class="edge">
<title>node_0000024a26179030&#45;&gt;node_l_null_0000024a26179030</title>
<path fill="none" stroke="#007cff" d="M618.24,-72.03C614.79,-63.31 611.22,-54.29 608.02,-46.22"/>
<polygon fill="#007cff" stroke="#007cff" points="611.3,-44.99 604.36,-36.98 604.79,-47.56 611.3,-44.99"/>
</g>
<!-- node_r_null_0000024a26179030 -->
<g id="node15" class="node">
<title>node_r_null_0000024a26179030</title>
<ellipse fill="#a2f0f8" stroke="#007cff" cx="670.25" cy="-18" rx="27.81" ry="18"/>
<text text-anchor="middle" x="670.25" y="-12.95" font-family="Times New Roman,serif" font-size="14.00"> null</text>
</g>
<!-- node_0000024a26179030&#45;&gt;node_r_null_0000024a26179030 -->
<g id="edge19" class="edge">
<title>node_0000024a26179030&#45;&gt;node_r_null_0000024a26179030</title>
<path fill="none" stroke="#007cff" d="M649.83,-72.03C653.19,-63.31 656.66,-54.29 659.77,-46.22"/>
<polygon fill="#007cff" stroke="#007cff" points="663,-47.57 663.33,-36.98 656.47,-45.06 663,-47.57"/>
</g>
<!-- node_l_null_0000024a26179350 -->
<g id="node16" class="node">
<title>node_l_null_0000024a26179350</title>
<ellipse fill="#a2f0f8" stroke="#007cff" cx="934.25" cy="-18" rx="27" ry="18"/>
<text text-anchor="middle" x="934.25" y="-12.95" font-family="Times New Roman,serif" font-size="14.00">null</text>
</g>
<!-- node_0000024a26179350&#45;&gt;node_l_null_0000024a26179350 -->
<g id="edge22" class="edge">
<title>node_0000024a26179350&#45;&gt;node_l_null_0000024a26179350</title>
<path fill="none" stroke="#007cff" d="M955.24,-72.03C951.79,-63.31 948.22,-54.29 945.02,-46.22"/>
<polygon fill="#007cff" stroke="#007cff" points="948.3,-44.99 941.36,-36.98 941.79,-47.56 948.3,-44.99"/>
</g>
<!-- node_r_null_0000024a26179350 -->
<g id="node17" class="node">
<title>node_r_null_0000024a26179350</title>
<ellipse fill="#a2f0f8" stroke="#007cff" cx="1007.25" cy="-18" rx="27.81" ry="18"/>
<text text-anchor="middle" x="1007.25" y="-12.95" font-family="Times New Roman,serif" font-size="14.00"> null</text>
</g>
<!-- node_0000024a26179350&#45;&gt;node_r_null_0000024a26179350 -->
<g id="edge23" class="edge">
<title>node_0000024a26179350&#45;&gt;node_r_null_0000024a26179350</title>
<path fill="none" stroke="#007cff" d="M986.83,-72.03C990.19,-63.31 993.66,-54.29 996.77,-46.22"/>
<polygon fill="#007cff" stroke="#007cff" points="1000,-47.57 1000.33,-36.98 993.47,-45.06 1000,-47.57"/>
</g>
</g>
</svg>
