<?xml version="1.0" encoding="UTF-8" standalone="no"?>
<!DOCTYPE svg PUBLIC "-//W3C//DTD SVG 1.1//EN"
 "http://www.w3.org/Graphics/SVG/1.1/DTD/svg11.dtd">
<!-- Generated by graphviz version 12.2.0 (20241103.1931)
 -->
<!-- Pages: 1 -->
<svg width="720pt" height="401pt"
 viewBox="0.00 0.00 719.95 401.00" xmlns="http://www.w3.org/2000/svg" xmlns:xlink="http://www.w3.org/1999/xlink">
<g id="graph0" class="graph" transform="scale(1 1) rotate(0) translate(4 397)">
<polygon fill="white" stroke="none" points="-4,4 -4,-397 715.95,-397 715.95,4 -4,4"/>
<!-- node_000002a1ef5990b0 -->
<g id="node1" class="node">
<title>node_000002a1ef5990b0</title>
<path fill="#ffa615" stroke="#004b00" d="M107.88,-310.5C107.88,-310.5 392.62,-310.5 392.62,-310.5 398.62,-310.5 404.62,-316.5 404.62,-322.5 404.62,-322.5 404.62,-380.5 404.62,-380.5 404.62,-386.5 398.62,-392.5 392.62,-392.5 392.62,-392.5 107.88,-392.5 107.88,-392.5 101.88,-392.5 95.88,-386.5 95.88,-380.5 95.88,-380.5 95.88,-322.5 95.88,-322.5 95.88,-316.5 101.88,-310.5 107.88,-310.5"/>
<text text-anchor="middle" x="250.25" y="-375.2" font-family="Times New Roman,serif" font-size="14.00">data = Akinator </text>
<text text-anchor="middle" x="250.25" y="-358.7" font-family="Times New Roman,serif" font-size="14.00"> addr: 000002a1ef5990b0</text>
<polyline fill="none" stroke="#004b00" points="95.88,-351.5 404.62,-351.5"/>
<text text-anchor="middle" x="172.5" y="-334.2" font-family="Times New Roman,serif" font-size="14.00">L:</text>
<text text-anchor="middle" x="172.5" y="-317.7" font-family="Times New Roman,serif" font-size="14.00"> addr: 000002a1ef5990f0</text>
<polyline fill="none" stroke="#004b00" points="249.12,-310.5 249.12,-351.5"/>
<text text-anchor="middle" x="326.88" y="-334.2" font-family="Times New Roman,serif" font-size="14.00">R: </text>
<text text-anchor="middle" x="326.88" y="-317.7" font-family="Times New Roman,serif" font-size="14.00"> addr: 000002a1ef5991d0</text>
</g>
<!-- node_000002a1ef5990f0 -->
<g id="node4" class="node">
<title>node_000002a1ef5990f0</title>
<path fill="#a2f8a4" stroke="#004b00" d="M12,-72.5C12,-72.5 306.5,-72.5 306.5,-72.5 312.5,-72.5 318.5,-78.5 318.5,-84.5 318.5,-84.5 318.5,-142.5 318.5,-142.5 318.5,-148.5 312.5,-154.5 306.5,-154.5 306.5,-154.5 12,-154.5 12,-154.5 6,-154.5 0,-148.5 0,-142.5 0,-142.5 0,-84.5 0,-84.5 0,-78.5 6,-72.5 12,-72.5"/>
<text text-anchor="middle" x="159.25" y="-137.2" font-family="Times New Roman,serif" font-size="14.00">data = YES_YES </text>
<text text-anchor="middle" x="159.25" y="-120.7" font-family="Times New Roman,serif" font-size="14.00"> addr: 000002a1ef5990f0</text>
<polyline fill="none" stroke="#004b00" points="0,-113.5 318.5,-113.5"/>
<text text-anchor="middle" x="79.62" y="-96.2" font-family="Times New Roman,serif" font-size="14.00">L:</text>
<text text-anchor="middle" x="79.62" y="-79.7" font-family="Times New Roman,serif" font-size="14.00"> addr: 0000000000000000</text>
<polyline fill="none" stroke="#004b00" points="159.25,-72.5 159.25,-113.5"/>
<text text-anchor="middle" x="238.88" y="-96.2" font-family="Times New Roman,serif" font-size="14.00">R: </text>
<text text-anchor="middle" x="238.88" y="-79.7" font-family="Times New Roman,serif" font-size="14.00"> addr: 0000000000000000</text>
</g>
<!-- node_000002a1ef5990b0&#45;&gt;node_000002a1ef5990f0 -->
<g id="edge2" class="edge">
<title>node_000002a1ef5990b0&#45;&gt;node_000002a1ef5990f0</title>
<path fill="none" stroke="#004b00" d="M203.33,-310.08C193.54,-299.34 184.35,-287.06 178.25,-274 162.54,-240.36 158.03,-198.56 157.32,-166.2"/>
<polygon fill="#004b00" stroke="#004b00" points="160.82,-166.21 157.23,-156.25 153.82,-166.28 160.82,-166.21"/>
</g>
<!-- node_000002a1ef5991d0 -->
<g id="node5" class="node">
<title>node_000002a1ef5991d0</title>
<path fill="#a2f8a4" stroke="#004b00" d="M198.88,-191.5C198.88,-191.5 483.62,-191.5 483.62,-191.5 489.62,-191.5 495.62,-197.5 495.62,-203.5 495.62,-203.5 495.62,-261.5 495.62,-261.5 495.62,-267.5 489.62,-273.5 483.62,-273.5 483.62,-273.5 198.88,-273.5 198.88,-273.5 192.88,-273.5 186.88,-267.5 186.88,-261.5 186.88,-261.5 186.88,-203.5 186.88,-203.5 186.88,-197.5 192.88,-191.5 198.88,-191.5"/>
<text text-anchor="middle" x="341.25" y="-256.2" font-family="Times New Roman,serif" font-size="14.00">data = robit </text>
<text text-anchor="middle" x="341.25" y="-239.7" font-family="Times New Roman,serif" font-size="14.00"> addr: 000002a1ef5991d0</text>
<polyline fill="none" stroke="#004b00" points="186.88,-232.5 495.62,-232.5"/>
<text text-anchor="middle" x="264.62" y="-215.2" font-family="Times New Roman,serif" font-size="14.00">L:</text>
<text text-anchor="middle" x="264.62" y="-198.7" font-family="Times New Roman,serif" font-size="14.00"> addr: 000002a1ef5991b0</text>
<polyline fill="none" stroke="#004b00" points="342.38,-191.5 342.38,-232.5"/>
<text text-anchor="middle" x="419" y="-215.2" font-family="Times New Roman,serif" font-size="14.00">R: </text>
<text text-anchor="middle" x="419" y="-198.7" font-family="Times New Roman,serif" font-size="14.00"> addr: 000002a1ef5990f0</text>
</g>
<!-- node_000002a1ef5990b0&#45;&gt;node_000002a1ef5991d0 -->
<g id="edge3" class="edge">
<title>node_000002a1ef5990b0&#45;&gt;node_000002a1ef5991d0</title>
<path fill="none" stroke="#004b00" d="M281.57,-310.24C288.43,-301.41 295.77,-291.97 302.88,-282.84"/>
<polygon fill="#004b00" stroke="#004b00" points="305.57,-285.08 308.95,-275.03 300.04,-280.78 305.57,-285.08"/>
</g>
<!-- 1 -->
<g id="node2" class="node">
<title>1</title>
<ellipse fill="#fe5656" stroke="#581804" cx="691.25" cy="-351.5" rx="18" ry="18"/>
<text text-anchor="middle" x="691.25" y="-346.45" font-family="Times New Roman,serif" font-size="14.00">1</text>
</g>
<!-- 2 -->
<g id="node3" class="node">
<title>2</title>
<ellipse fill="#fe5656" stroke="#581804" cx="691.25" cy="-232.5" rx="18" ry="18"/>
<text text-anchor="middle" x="691.25" y="-227.45" font-family="Times New Roman,serif" font-size="14.00">2</text>
</g>
<!-- 1&#45;&gt;2 -->
<g id="edge1" class="edge">
<title>1&#45;&gt;2</title>
<path fill="none" stroke="white" d="M686.35,-333.74C684.26,-314.88 683.94,-283.96 685.4,-261.44"/>
<polygon fill="white" stroke="white" points="688.86,-262 686.22,-251.74 681.89,-261.41 688.86,-262"/>
</g>
<!-- 1&#45;&gt;2 -->
<g id="edge4" class="edge">
<title>1&#45;&gt;2</title>
<path fill="none" stroke="white" d="M696.15,-333.74C698.24,-314.88 698.56,-283.96 697.1,-261.44"/>
<polygon fill="white" stroke="white" points="700.61,-261.41 696.28,-251.74 693.64,-262 700.61,-261.41"/>
</g>
<!-- 3 -->
<g id="node6" class="node">
<title>3</title>
<ellipse fill="#fe5656" stroke="#581804" cx="691.25" cy="-113.5" rx="18" ry="18"/>
<text text-anchor="middle" x="691.25" y="-108.45" font-family="Times New Roman,serif" font-size="14.00">3</text>
</g>
<!-- 2&#45;&gt;3 -->
<g id="edge5" class="edge">
<title>2&#45;&gt;3</title>
<path fill="none" stroke="white" d="M678.33,-219.42C669.94,-200.15 668.75,-162.14 674.76,-137.54"/>
<polygon fill="white" stroke="white" points="678.05,-138.72 677.81,-128.13 671.4,-136.56 678.05,-138.72"/>
</g>
<!-- 2&#45;&gt;3 -->
<g id="edge8" class="edge">
<title>2&#45;&gt;3</title>
<path fill="none" stroke="white" d="M686.35,-214.74C684.26,-195.88 683.94,-164.96 685.4,-142.44"/>
<polygon fill="white" stroke="white" points="688.86,-143 686.22,-132.74 681.89,-142.41 688.86,-143"/>
</g>
<!-- 2&#45;&gt;3 -->
<g id="edge9" class="edge">
<title>2&#45;&gt;3</title>
<path fill="none" stroke="white" d="M696.15,-214.74C698.24,-195.88 698.56,-164.96 697.1,-142.44"/>
<polygon fill="white" stroke="white" points="700.61,-142.41 696.28,-132.74 693.64,-143 700.61,-142.41"/>
</g>
<!-- 2&#45;&gt;3 -->
<g id="edge12" class="edge">
<title>2&#45;&gt;3</title>
<path fill="none" stroke="white" d="M704.17,-219.42C712.56,-200.15 713.75,-162.14 707.74,-137.54"/>
<polygon fill="white" stroke="white" points="711.1,-136.56 704.69,-128.13 704.45,-138.72 711.1,-136.56"/>
</g>
<!-- node_l_null_000002a1ef5990f0 -->
<g id="node7" class="node">
<title>node_l_null_000002a1ef5990f0</title>
<ellipse fill="#a2f0f8" stroke="#007cff" cx="123.25" cy="-18" rx="27" ry="18"/>
<text text-anchor="middle" x="123.25" y="-12.95" font-family="Times New Roman,serif" font-size="14.00">null</text>
</g>
<!-- node_000002a1ef5990f0&#45;&gt;node_l_null_000002a1ef5990f0 -->
<g id="edge6" class="edge">
<title>node_000002a1ef5990f0&#45;&gt;node_l_null_000002a1ef5990f0</title>
<path fill="none" stroke="#007cff" d="M136.97,-72.03C133.56,-63.54 130.33,-54.77 127.75,-46.87"/>
<polygon fill="#007cff" stroke="#007cff" points="131.15,-46.04 124.9,-37.49 124.45,-48.07 131.15,-46.04"/>
</g>
<!-- node_000002a1ef5990f0&#45;&gt;node_l_null_000002a1ef5990f0 -->
<g id="edge18" class="edge">
<title>node_000002a1ef5990f0&#45;&gt;node_l_null_000002a1ef5990f0</title>
<path fill="none" stroke="#007cff" d="M150.36,-72.03C146.98,-62.84 143.12,-53.31 139.34,-44.91"/>
<polygon fill="#007cff" stroke="#007cff" points="142.56,-43.54 135.11,-36.01 136.24,-46.54 142.56,-43.54"/>
</g>
<!-- node_r_null_000002a1ef5990f0 -->
<g id="node8" class="node">
<title>node_r_null_000002a1ef5990f0</title>
<ellipse fill="#a2f0f8" stroke="#007cff" cx="196.25" cy="-18" rx="27.81" ry="18"/>
<text text-anchor="middle" x="196.25" y="-12.95" font-family="Times New Roman,serif" font-size="14.00"> null</text>
</g>
<!-- node_000002a1ef5990f0&#45;&gt;node_r_null_000002a1ef5990f0 -->
<g id="edge7" class="edge">
<title>node_000002a1ef5990f0&#45;&gt;node_r_null_000002a1ef5990f0</title>
<path fill="none" stroke="#007cff" d="M168.57,-72.03C172.05,-62.84 176.01,-53.31 179.88,-44.91"/>
<polygon fill="#007cff" stroke="#007cff" points="182.99,-46.53 184.21,-36 176.69,-43.47 182.99,-46.53"/>
</g>
<!-- node_000002a1ef5990f0&#45;&gt;node_r_null_000002a1ef5990f0 -->
<g id="edge19" class="edge">
<title>node_000002a1ef5990f0&#45;&gt;node_r_null_000002a1ef5990f0</title>
<path fill="none" stroke="#007cff" d="M181.96,-72.03C185.47,-63.54 188.78,-54.77 191.46,-46.87"/>
<polygon fill="#007cff" stroke="#007cff" points="194.75,-48.07 194.41,-37.48 188.07,-45.98 194.75,-48.07"/>
</g>
<!-- node_000002a1ef5991d0&#45;&gt;node_000002a1ef5990f0 -->
<g id="edge11" class="edge">
<title>node_000002a1ef5991d0&#45;&gt;node_000002a1ef5990f0</title>
<path fill="none" stroke="#004b00" d="M278.36,-191.07C263.3,-181.39 247.1,-170.98 231.65,-161.04"/>
<polygon fill="#004b00" stroke="#004b00" points="233.72,-158.21 223.41,-155.75 229.93,-164.1 233.72,-158.21"/>
</g>
<!-- node_000002a1ef5991b0 -->
<g id="node9" class="node">
<title>node_000002a1ef5991b0</title>
<path fill="#a2f8a4" stroke="#004b00" d="M349,-72.5C349,-72.5 643.5,-72.5 643.5,-72.5 649.5,-72.5 655.5,-78.5 655.5,-84.5 655.5,-84.5 655.5,-142.5 655.5,-142.5 655.5,-148.5 649.5,-154.5 643.5,-154.5 643.5,-154.5 349,-154.5 349,-154.5 343,-154.5 337,-148.5 337,-142.5 337,-142.5 337,-84.5 337,-84.5 337,-78.5 343,-72.5 349,-72.5"/>
<text text-anchor="middle" x="496.25" y="-137.2" font-family="Times New Roman,serif" font-size="14.00">data = bro </text>
<text text-anchor="middle" x="496.25" y="-120.7" font-family="Times New Roman,serif" font-size="14.00"> addr: 000002a1ef5991b0</text>
<polyline fill="none" stroke="#004b00" points="337,-113.5 655.5,-113.5"/>
<text text-anchor="middle" x="416.62" y="-96.2" font-family="Times New Roman,serif" font-size="14.00">L:</text>
<text text-anchor="middle" x="416.62" y="-79.7" font-family="Times New Roman,serif" font-size="14.00"> addr: 0000000000000000</text>
<polyline fill="none" stroke="#004b00" points="496.25,-72.5 496.25,-113.5"/>
<text text-anchor="middle" x="575.88" y="-96.2" font-family="Times New Roman,serif" font-size="14.00">R: </text>
<text text-anchor="middle" x="575.88" y="-79.7" font-family="Times New Roman,serif" font-size="14.00"> addr: 0000000000000000</text>
</g>
<!-- node_000002a1ef5991d0&#45;&gt;node_000002a1ef5991b0 -->
<g id="edge10" class="edge">
<title>node_000002a1ef5991d0&#45;&gt;node_000002a1ef5991b0</title>
<path fill="none" stroke="#004b00" d="M394.59,-191.24C407.26,-181.68 420.88,-171.39 433.9,-161.56"/>
<polygon fill="#004b00" stroke="#004b00" points="435.73,-164.57 441.6,-155.75 431.51,-158.98 435.73,-164.57"/>
</g>
<!-- 4 -->
<g id="node10" class="node">
<title>4</title>
<ellipse fill="#fe5656" stroke="#581804" cx="691.25" cy="-18" rx="18" ry="18"/>
<text text-anchor="middle" x="691.25" y="-12.95" font-family="Times New Roman,serif" font-size="14.00">4</text>
</g>
<!-- 3&#45;&gt;4 -->
<g id="edge13" class="edge">
<title>3&#45;&gt;4</title>
<path fill="none" stroke="white" d="M677.59,-101.41C670.31,-86.51 669.06,-59.7 673.84,-40.71"/>
<polygon fill="white" stroke="white" points="677.06,-42.1 677.09,-31.51 670.46,-39.77 677.06,-42.1"/>
</g>
<!-- 3&#45;&gt;4 -->
<g id="edge16" class="edge">
<title>3&#45;&gt;4</title>
<path fill="none" stroke="white" d="M685.93,-95.78C684.41,-82.22 684.1,-62.81 685.01,-46.9"/>
<polygon fill="white" stroke="white" points="688.49,-47.33 685.83,-37.08 681.51,-46.76 688.49,-47.33"/>
</g>
<!-- 3&#45;&gt;4 -->
<g id="edge17" class="edge">
<title>3&#45;&gt;4</title>
<path fill="none" stroke="white" d="M696.57,-95.78C698.09,-82.22 698.4,-62.81 697.49,-46.9"/>
<polygon fill="white" stroke="white" points="700.99,-46.76 696.67,-37.08 694.01,-47.33 700.99,-46.76"/>
</g>
<!-- 3&#45;&gt;4 -->
<g id="edge20" class="edge">
<title>3&#45;&gt;4</title>
<path fill="none" stroke="white" d="M704.91,-101.41C712.19,-86.51 713.44,-59.7 708.66,-40.71"/>
<polygon fill="white" stroke="white" points="712.04,-39.77 705.41,-31.51 705.44,-42.1 712.04,-39.77"/>
</g>
<!-- node_l_null_000002a1ef5991b0 -->
<g id="node11" class="node">
<title>node_l_null_000002a1ef5991b0</title>
<ellipse fill="#a2f0f8" stroke="#007cff" cx="459.25" cy="-18" rx="27" ry="18"/>
<text text-anchor="middle" x="459.25" y="-12.95" font-family="Times New Roman,serif" font-size="14.00">null</text>
</g>
<!-- node_000002a1ef5991b0&#45;&gt;node_l_null_000002a1ef5991b0 -->
<g id="edge14" class="edge">
<title>node_000002a1ef5991b0&#45;&gt;node_l_null_000002a1ef5991b0</title>
<path fill="none" stroke="#007cff" d="M480.24,-72.03C476.79,-63.31 473.22,-54.29 470.02,-46.22"/>
<polygon fill="#007cff" stroke="#007cff" points="473.3,-44.99 466.36,-36.98 466.79,-47.56 473.3,-44.99"/>
</g>
<!-- node_r_null_000002a1ef5991b0 -->
<g id="node12" class="node">
<title>node_r_null_000002a1ef5991b0</title>
<ellipse fill="#a2f0f8" stroke="#007cff" cx="532.25" cy="-18" rx="27.81" ry="18"/>
<text text-anchor="middle" x="532.25" y="-12.95" font-family="Times New Roman,serif" font-size="14.00"> null</text>
</g>
<!-- node_000002a1ef5991b0&#45;&gt;node_r_null_000002a1ef5991b0 -->
<g id="edge15" class="edge">
<title>node_000002a1ef5991b0&#45;&gt;node_r_null_000002a1ef5991b0</title>
<path fill="none" stroke="#007cff" d="M511.83,-72.03C515.19,-63.31 518.66,-54.29 521.77,-46.22"/>
<polygon fill="#007cff" stroke="#007cff" points="525,-47.57 525.33,-36.98 518.47,-45.06 525,-47.57"/>
</g>
</g>
</svg>
