<?xml version="1.0" encoding="UTF-8" standalone="no"?>
<!DOCTYPE svg PUBLIC "-//W3C//DTD SVG 1.1//EN"
 "http://www.w3.org/Graphics/SVG/1.1/DTD/svg11.dtd">
<!-- Generated by graphviz version 12.2.0 (20241103.1931)
 -->
<!-- Pages: 1 -->
<svg width="1205pt" height="401pt"
 viewBox="0.00 0.00 1205.35 401.00" xmlns="http://www.w3.org/2000/svg" xmlns:xlink="http://www.w3.org/1999/xlink">
<g id="graph0" class="graph" transform="scale(1 1) rotate(0) translate(4 397)">
<polygon fill="white" stroke="none" points="-4,4 -4,-397 1201.35,-397 1201.35,4 -4,4"/>
<!-- node_00000206e0f39350 -->
<g id="node1" class="node">
<title>node_00000206e0f39350</title>
<path fill="#ffa615" stroke="#004b00" d="M355.12,-310.5C355.12,-310.5 641.38,-310.5 641.38,-310.5 647.38,-310.5 653.38,-316.5 653.38,-322.5 653.38,-322.5 653.38,-380.5 653.38,-380.5 653.38,-386.5 647.38,-392.5 641.38,-392.5 641.38,-392.5 355.12,-392.5 355.12,-392.5 349.12,-392.5 343.12,-386.5 343.12,-380.5 343.12,-380.5 343.12,-322.5 343.12,-322.5 343.12,-316.5 349.12,-310.5 355.12,-310.5"/>
<text text-anchor="middle" x="498.25" y="-375.2" font-family="Times New Roman,serif" font-size="14.00">data = Akinator </text>
<text text-anchor="middle" x="498.25" y="-358.7" font-family="Times New Roman,serif" font-size="14.00"> addr: 00000206e0f39350</text>
<polyline fill="none" stroke="#004b00" points="343.12,-351.5 653.38,-351.5"/>
<text text-anchor="middle" x="420.12" y="-334.2" font-family="Times New Roman,serif" font-size="14.00">L:</text>
<text text-anchor="middle" x="420.12" y="-317.7" font-family="Times New Roman,serif" font-size="14.00"> addr: 00000206e0f38fd0</text>
<polyline fill="none" stroke="#004b00" points="497.12,-310.5 497.12,-351.5"/>
<text text-anchor="middle" x="575.25" y="-334.2" font-family="Times New Roman,serif" font-size="14.00">R: </text>
<text text-anchor="middle" x="575.25" y="-317.7" font-family="Times New Roman,serif" font-size="14.00"> addr: 00000206e0f39070</text>
</g>
<!-- node_00000206e0f38fd0 -->
<g id="node4" class="node">
<title>node_00000206e0f38fd0</title>
<path fill="#a2f8a4" stroke="#004b00" d="M189.75,-191.5C189.75,-191.5 476.75,-191.5 476.75,-191.5 482.75,-191.5 488.75,-197.5 488.75,-203.5 488.75,-203.5 488.75,-261.5 488.75,-261.5 488.75,-267.5 482.75,-273.5 476.75,-273.5 476.75,-273.5 189.75,-273.5 189.75,-273.5 183.75,-273.5 177.75,-267.5 177.75,-261.5 177.75,-261.5 177.75,-203.5 177.75,-203.5 177.75,-197.5 183.75,-191.5 189.75,-191.5"/>
<text text-anchor="middle" x="333.25" y="-256.2" font-family="Times New Roman,serif" font-size="14.00">data = YES_YES </text>
<text text-anchor="middle" x="333.25" y="-239.7" font-family="Times New Roman,serif" font-size="14.00"> addr: 00000206e0f38fd0</text>
<polyline fill="none" stroke="#004b00" points="177.75,-232.5 488.75,-232.5"/>
<text text-anchor="middle" x="253.62" y="-215.2" font-family="Times New Roman,serif" font-size="14.00">L:</text>
<text text-anchor="middle" x="253.62" y="-198.7" font-family="Times New Roman,serif" font-size="14.00"> addr: 00000206e0f38ff0</text>
<polyline fill="none" stroke="#004b00" points="329.5,-191.5 329.5,-232.5"/>
<text text-anchor="middle" x="409.12" y="-215.2" font-family="Times New Roman,serif" font-size="14.00">R: </text>
<text text-anchor="middle" x="409.12" y="-198.7" font-family="Times New Roman,serif" font-size="14.00"> addr: 0000000000000000</text>
</g>
<!-- node_00000206e0f39350&#45;&gt;node_00000206e0f38fd0 -->
<g id="edge2" class="edge">
<title>node_00000206e0f39350&#45;&gt;node_00000206e0f38fd0</title>
<path fill="none" stroke="#004b00" d="M441.47,-310.24C427.85,-300.58 413.21,-290.2 399.22,-280.28"/>
<polygon fill="#004b00" stroke="#004b00" points="401.55,-277.64 391.37,-274.71 397.51,-283.35 401.55,-277.64"/>
</g>
<!-- node_00000206e0f39070 -->
<g id="node5" class="node">
<title>node_00000206e0f39070</title>
<path fill="#a2f8a4" stroke="#004b00" d="M519,-191.5C519,-191.5 807.5,-191.5 807.5,-191.5 813.5,-191.5 819.5,-197.5 819.5,-203.5 819.5,-203.5 819.5,-261.5 819.5,-261.5 819.5,-267.5 813.5,-273.5 807.5,-273.5 807.5,-273.5 519,-273.5 519,-273.5 513,-273.5 507,-267.5 507,-261.5 507,-261.5 507,-203.5 507,-203.5 507,-197.5 513,-191.5 519,-191.5"/>
<text text-anchor="middle" x="663.25" y="-256.2" font-family="Times New Roman,serif" font-size="14.00">data = Skibidi dob dob yes yes </text>
<text text-anchor="middle" x="663.25" y="-239.7" font-family="Times New Roman,serif" font-size="14.00"> addr: 00000206e0f39070</text>
<polyline fill="none" stroke="#004b00" points="507,-232.5 819.5,-232.5"/>
<text text-anchor="middle" x="585.12" y="-215.2" font-family="Times New Roman,serif" font-size="14.00">L:</text>
<text text-anchor="middle" x="585.12" y="-198.7" font-family="Times New Roman,serif" font-size="14.00"> addr: 00000206e0f39030</text>
<polyline fill="none" stroke="#004b00" points="663.25,-191.5 663.25,-232.5"/>
<text text-anchor="middle" x="741.38" y="-215.2" font-family="Times New Roman,serif" font-size="14.00">R: </text>
<text text-anchor="middle" x="741.38" y="-198.7" font-family="Times New Roman,serif" font-size="14.00"> addr: 00000206e0f39130</text>
</g>
<!-- node_00000206e0f39350&#45;&gt;node_00000206e0f39070 -->
<g id="edge3" class="edge">
<title>node_00000206e0f39350&#45;&gt;node_00000206e0f39070</title>
<path fill="none" stroke="#004b00" d="M555.03,-310.24C568.65,-300.58 583.29,-290.2 597.28,-280.28"/>
<polygon fill="#004b00" stroke="#004b00" points="598.99,-283.35 605.13,-274.71 594.95,-277.64 598.99,-283.35"/>
</g>
<!-- 1 -->
<g id="node2" class="node">
<title>1</title>
<ellipse fill="#fe5656" stroke="#581804" cx="1163.25" cy="-351.5" rx="18" ry="18"/>
<text text-anchor="middle" x="1163.25" y="-346.45" font-family="Times New Roman,serif" font-size="14.00">1</text>
</g>
<!-- 2 -->
<g id="node3" class="node">
<title>2</title>
<ellipse fill="#fe5656" stroke="#581804" cx="1163.25" cy="-232.5" rx="18" ry="18"/>
<text text-anchor="middle" x="1163.25" y="-227.45" font-family="Times New Roman,serif" font-size="14.00">2</text>
</g>
<!-- 1&#45;&gt;2 -->
<g id="edge1" class="edge">
<title>1&#45;&gt;2</title>
<path fill="none" stroke="white" d="M1158.35,-333.74C1156.26,-314.88 1155.94,-283.96 1157.4,-261.44"/>
<polygon fill="white" stroke="white" points="1160.86,-262 1158.22,-251.74 1153.89,-261.41 1160.86,-262"/>
</g>
<!-- 1&#45;&gt;2 -->
<g id="edge4" class="edge">
<title>1&#45;&gt;2</title>
<path fill="none" stroke="white" d="M1168.15,-333.74C1170.24,-314.88 1170.56,-283.96 1169.1,-261.44"/>
<polygon fill="white" stroke="white" points="1172.61,-261.41 1168.28,-251.74 1165.64,-262 1172.61,-261.41"/>
</g>
<!-- 3 -->
<g id="node6" class="node">
<title>3</title>
<ellipse fill="#fe5656" stroke="#581804" cx="1163.25" cy="-113.5" rx="18" ry="18"/>
<text text-anchor="middle" x="1163.25" y="-108.45" font-family="Times New Roman,serif" font-size="14.00">3</text>
</g>
<!-- 2&#45;&gt;3 -->
<g id="edge5" class="edge">
<title>2&#45;&gt;3</title>
<path fill="none" stroke="white" d="M1150.33,-219.42C1141.94,-200.15 1140.75,-162.14 1146.76,-137.54"/>
<polygon fill="white" stroke="white" points="1150.05,-138.72 1149.81,-128.13 1143.4,-136.56 1150.05,-138.72"/>
</g>
<!-- 2&#45;&gt;3 -->
<g id="edge8" class="edge">
<title>2&#45;&gt;3</title>
<path fill="none" stroke="white" d="M1158.35,-214.74C1156.26,-195.88 1155.94,-164.96 1157.4,-142.44"/>
<polygon fill="white" stroke="white" points="1160.86,-143 1158.22,-132.74 1153.89,-142.41 1160.86,-143"/>
</g>
<!-- 2&#45;&gt;3 -->
<g id="edge13" class="edge">
<title>2&#45;&gt;3</title>
<path fill="none" stroke="white" d="M1168.15,-214.74C1170.24,-195.88 1170.56,-164.96 1169.1,-142.44"/>
<polygon fill="white" stroke="white" points="1172.61,-142.41 1168.28,-132.74 1165.64,-143 1172.61,-142.41"/>
</g>
<!-- 2&#45;&gt;3 -->
<g id="edge16" class="edge">
<title>2&#45;&gt;3</title>
<path fill="none" stroke="white" d="M1176.17,-219.42C1184.56,-200.15 1185.75,-162.14 1179.74,-137.54"/>
<polygon fill="white" stroke="white" points="1183.1,-136.56 1176.69,-128.13 1176.45,-138.72 1183.1,-136.56"/>
</g>
<!-- node_00000206e0f38ff0 -->
<g id="node7" class="node">
<title>node_00000206e0f38ff0</title>
<path fill="#a2f8a4" stroke="#004b00" d="M12,-72.5C12,-72.5 306.5,-72.5 306.5,-72.5 312.5,-72.5 318.5,-78.5 318.5,-84.5 318.5,-84.5 318.5,-142.5 318.5,-142.5 318.5,-148.5 312.5,-154.5 306.5,-154.5 306.5,-154.5 12,-154.5 12,-154.5 6,-154.5 0,-148.5 0,-142.5 0,-142.5 0,-84.5 0,-84.5 0,-78.5 6,-72.5 12,-72.5"/>
<text text-anchor="middle" x="159.25" y="-137.2" font-family="Times New Roman,serif" font-size="14.00">data = Eto zhe azamat </text>
<text text-anchor="middle" x="159.25" y="-120.7" font-family="Times New Roman,serif" font-size="14.00"> addr: 00000206e0f38ff0</text>
<polyline fill="none" stroke="#004b00" points="0,-113.5 318.5,-113.5"/>
<text text-anchor="middle" x="79.62" y="-96.2" font-family="Times New Roman,serif" font-size="14.00">L:</text>
<text text-anchor="middle" x="79.62" y="-79.7" font-family="Times New Roman,serif" font-size="14.00"> addr: 0000000000000000</text>
<polyline fill="none" stroke="#004b00" points="159.25,-72.5 159.25,-113.5"/>
<text text-anchor="middle" x="238.88" y="-96.2" font-family="Times New Roman,serif" font-size="14.00">R: </text>
<text text-anchor="middle" x="238.88" y="-79.7" font-family="Times New Roman,serif" font-size="14.00"> addr: 0000000000000000</text>
</g>
<!-- node_00000206e0f38fd0&#45;&gt;node_00000206e0f38ff0 -->
<g id="edge6" class="edge">
<title>node_00000206e0f38fd0&#45;&gt;node_00000206e0f38ff0</title>
<path fill="none" stroke="#004b00" d="M273.37,-191.24C258.88,-181.49 243.27,-171 228.39,-160.99"/>
<polygon fill="#004b00" stroke="#004b00" points="230.75,-158.36 220.5,-155.68 226.84,-164.17 230.75,-158.36"/>
</g>
<!-- node_r_null_00000206e0f38fd0 -->
<g id="node8" class="node">
<title>node_r_null_00000206e0f38fd0</title>
<ellipse fill="#a2f0f8" stroke="#007cff" cx="364.25" cy="-113.5" rx="27.81" ry="18"/>
<text text-anchor="middle" x="364.25" y="-108.45" font-family="Times New Roman,serif" font-size="14.00"> null</text>
</g>
<!-- node_00000206e0f38fd0&#45;&gt;node_r_null_00000206e0f38fd0 -->
<g id="edge7" class="edge">
<title>node_00000206e0f38fd0&#45;&gt;node_r_null_00000206e0f38fd0</title>
<path fill="none" stroke="#007cff" d="M343.92,-191.24C348.17,-175.17 352.97,-157.07 356.84,-142.48"/>
<polygon fill="#007cff" stroke="#007cff" points="360.14,-143.67 359.32,-133.11 353.38,-141.88 360.14,-143.67"/>
</g>
<!-- node_00000206e0f39030 -->
<g id="node12" class="node">
<title>node_00000206e0f39030</title>
<path fill="#a2f8a4" stroke="#004b00" d="M484,-72.5C484,-72.5 778.5,-72.5 778.5,-72.5 784.5,-72.5 790.5,-78.5 790.5,-84.5 790.5,-84.5 790.5,-142.5 790.5,-142.5 790.5,-148.5 784.5,-154.5 778.5,-154.5 778.5,-154.5 484,-154.5 484,-154.5 478,-154.5 472,-148.5 472,-142.5 472,-142.5 472,-84.5 472,-84.5 472,-78.5 478,-72.5 484,-72.5"/>
<text text-anchor="middle" x="631.25" y="-137.2" font-family="Times New Roman,serif" font-size="14.00">data = Sonya topi </text>
<text text-anchor="middle" x="631.25" y="-120.7" font-family="Times New Roman,serif" font-size="14.00"> addr: 00000206e0f39030</text>
<polyline fill="none" stroke="#004b00" points="472,-113.5 790.5,-113.5"/>
<text text-anchor="middle" x="551.62" y="-96.2" font-family="Times New Roman,serif" font-size="14.00">L:</text>
<text text-anchor="middle" x="551.62" y="-79.7" font-family="Times New Roman,serif" font-size="14.00"> addr: 0000000000000000</text>
<polyline fill="none" stroke="#004b00" points="631.25,-72.5 631.25,-113.5"/>
<text text-anchor="middle" x="710.88" y="-96.2" font-family="Times New Roman,serif" font-size="14.00">R: </text>
<text text-anchor="middle" x="710.88" y="-79.7" font-family="Times New Roman,serif" font-size="14.00"> addr: 0000000000000000</text>
</g>
<!-- node_00000206e0f39070&#45;&gt;node_00000206e0f39030 -->
<g id="edge14" class="edge">
<title>node_00000206e0f39070&#45;&gt;node_00000206e0f39030</title>
<path fill="none" stroke="#004b00" d="M652.24,-191.24C650,-183.05 647.62,-174.34 645.29,-165.84"/>
<polygon fill="#004b00" stroke="#004b00" points="648.7,-165.02 642.68,-156.3 641.94,-166.87 648.7,-165.02"/>
</g>
<!-- node_00000206e0f39130 -->
<g id="node13" class="node">
<title>node_00000206e0f39130</title>
<path fill="#a2f8a4" stroke="#004b00" d="M821,-72.5C821,-72.5 1115.5,-72.5 1115.5,-72.5 1121.5,-72.5 1127.5,-78.5 1127.5,-84.5 1127.5,-84.5 1127.5,-142.5 1127.5,-142.5 1127.5,-148.5 1121.5,-154.5 1115.5,-154.5 1115.5,-154.5 821,-154.5 821,-154.5 815,-154.5 809,-148.5 809,-142.5 809,-142.5 809,-84.5 809,-84.5 809,-78.5 815,-72.5 821,-72.5"/>
<text text-anchor="middle" x="968.25" y="-137.2" font-family="Times New Roman,serif" font-size="14.00">data = Nastya_topi </text>
<text text-anchor="middle" x="968.25" y="-120.7" font-family="Times New Roman,serif" font-size="14.00"> addr: 00000206e0f39130</text>
<polyline fill="none" stroke="#004b00" points="809,-113.5 1127.5,-113.5"/>
<text text-anchor="middle" x="888.62" y="-96.2" font-family="Times New Roman,serif" font-size="14.00">L:</text>
<text text-anchor="middle" x="888.62" y="-79.7" font-family="Times New Roman,serif" font-size="14.00"> addr: 0000000000000000</text>
<polyline fill="none" stroke="#004b00" points="968.25,-72.5 968.25,-113.5"/>
<text text-anchor="middle" x="1047.88" y="-96.2" font-family="Times New Roman,serif" font-size="14.00">R: </text>
<text text-anchor="middle" x="1047.88" y="-79.7" font-family="Times New Roman,serif" font-size="14.00"> addr: 0000000000000000</text>
</g>
<!-- node_00000206e0f39070&#45;&gt;node_00000206e0f39130 -->
<g id="edge15" class="edge">
<title>node_00000206e0f39070&#45;&gt;node_00000206e0f39130</title>
<path fill="none" stroke="#004b00" d="M768.64,-191.07C795.67,-180.7 824.88,-169.5 852.4,-158.94"/>
<polygon fill="#004b00" stroke="#004b00" points="853.36,-162.32 861.44,-155.47 850.85,-155.79 853.36,-162.32"/>
</g>
<!-- 4 -->
<g id="node9" class="node">
<title>4</title>
<ellipse fill="#fe5656" stroke="#581804" cx="1163.25" cy="-18" rx="18" ry="18"/>
<text text-anchor="middle" x="1163.25" y="-12.95" font-family="Times New Roman,serif" font-size="14.00">4</text>
</g>
<!-- 3&#45;&gt;4 -->
<g id="edge9" class="edge">
<title>3&#45;&gt;4</title>
<path fill="none" stroke="white" d="M1146.19,-106.93C1126.93,-92.54 1124.34,-53.8 1138.42,-32.87"/>
<polygon fill="white" stroke="white" points="1140.78,-35.47 1145.04,-25.77 1135.66,-30.7 1140.78,-35.47"/>
</g>
<!-- 3&#45;&gt;4 -->
<g id="edge12" class="edge">
<title>3&#45;&gt;4</title>
<path fill="none" stroke="white" d="M1149.59,-101.41C1142.31,-86.51 1141.06,-59.7 1145.84,-40.71"/>
<polygon fill="white" stroke="white" points="1149.06,-42.1 1149.09,-31.51 1142.46,-39.77 1149.06,-42.1"/>
</g>
<!-- 3&#45;&gt;4 -->
<g id="edge17" class="edge">
<title>3&#45;&gt;4</title>
<path fill="none" stroke="white" d="M1157.93,-95.78C1156.41,-82.22 1156.1,-62.81 1157.01,-46.9"/>
<polygon fill="white" stroke="white" points="1160.49,-47.33 1157.83,-37.08 1153.51,-46.76 1160.49,-47.33"/>
</g>
<!-- 3&#45;&gt;4 -->
<g id="edge20" class="edge">
<title>3&#45;&gt;4</title>
<path fill="none" stroke="white" d="M1168.57,-95.78C1170.09,-82.22 1170.4,-62.81 1169.49,-46.9"/>
<polygon fill="white" stroke="white" points="1172.99,-46.76 1168.67,-37.08 1166.01,-47.33 1172.99,-46.76"/>
</g>
<!-- 3&#45;&gt;4 -->
<g id="edge21" class="edge">
<title>3&#45;&gt;4</title>
<path fill="none" stroke="white" d="M1176.91,-101.41C1184.19,-86.51 1185.44,-59.7 1180.66,-40.71"/>
<polygon fill="white" stroke="white" points="1184.04,-39.77 1177.41,-31.51 1177.44,-42.1 1184.04,-39.77"/>
</g>
<!-- 3&#45;&gt;4 -->
<g id="edge24" class="edge">
<title>3&#45;&gt;4</title>
<path fill="none" stroke="white" d="M1180.31,-106.93C1199.57,-92.54 1202.16,-53.8 1188.08,-32.87"/>
<polygon fill="white" stroke="white" points="1190.84,-30.7 1181.46,-25.77 1185.72,-35.47 1190.84,-30.7"/>
</g>
<!-- node_l_null_00000206e0f38ff0 -->
<g id="node10" class="node">
<title>node_l_null_00000206e0f38ff0</title>
<ellipse fill="#a2f0f8" stroke="#007cff" cx="123.25" cy="-18" rx="27" ry="18"/>
<text text-anchor="middle" x="123.25" y="-12.95" font-family="Times New Roman,serif" font-size="14.00">null</text>
</g>
<!-- node_00000206e0f38ff0&#45;&gt;node_l_null_00000206e0f38ff0 -->
<g id="edge10" class="edge">
<title>node_00000206e0f38ff0&#45;&gt;node_l_null_00000206e0f38ff0</title>
<path fill="none" stroke="#007cff" d="M143.67,-72.03C140.31,-63.31 136.84,-54.29 133.73,-46.22"/>
<polygon fill="#007cff" stroke="#007cff" points="137.03,-45.06 130.17,-36.98 130.5,-47.57 137.03,-45.06"/>
</g>
<!-- node_r_null_00000206e0f38ff0 -->
<g id="node11" class="node">
<title>node_r_null_00000206e0f38ff0</title>
<ellipse fill="#a2f0f8" stroke="#007cff" cx="196.25" cy="-18" rx="27.81" ry="18"/>
<text text-anchor="middle" x="196.25" y="-12.95" font-family="Times New Roman,serif" font-size="14.00"> null</text>
</g>
<!-- node_00000206e0f38ff0&#45;&gt;node_r_null_00000206e0f38ff0 -->
<g id="edge11" class="edge">
<title>node_00000206e0f38ff0&#45;&gt;node_r_null_00000206e0f38ff0</title>
<path fill="none" stroke="#007cff" d="M175.26,-72.03C178.71,-63.31 182.28,-54.29 185.48,-46.22"/>
<polygon fill="#007cff" stroke="#007cff" points="188.71,-47.56 189.14,-36.98 182.2,-44.99 188.71,-47.56"/>
</g>
<!-- node_l_null_00000206e0f39030 -->
<g id="node14" class="node">
<title>node_l_null_00000206e0f39030</title>
<ellipse fill="#a2f0f8" stroke="#007cff" cx="594.25" cy="-18" rx="27" ry="18"/>
<text text-anchor="middle" x="594.25" y="-12.95" font-family="Times New Roman,serif" font-size="14.00">null</text>
</g>
<!-- node_00000206e0f39030&#45;&gt;node_l_null_00000206e0f39030 -->
<g id="edge18" class="edge">
<title>node_00000206e0f39030&#45;&gt;node_l_null_00000206e0f39030</title>
<path fill="none" stroke="#007cff" d="M615.24,-72.03C611.79,-63.31 608.22,-54.29 605.02,-46.22"/>
<polygon fill="#007cff" stroke="#007cff" points="608.3,-44.99 601.36,-36.98 601.79,-47.56 608.3,-44.99"/>
</g>
<!-- node_r_null_00000206e0f39030 -->
<g id="node15" class="node">
<title>node_r_null_00000206e0f39030</title>
<ellipse fill="#a2f0f8" stroke="#007cff" cx="667.25" cy="-18" rx="27.81" ry="18"/>
<text text-anchor="middle" x="667.25" y="-12.95" font-family="Times New Roman,serif" font-size="14.00"> null</text>
</g>
<!-- node_00000206e0f39030&#45;&gt;node_r_null_00000206e0f39030 -->
<g id="edge19" class="edge">
<title>node_00000206e0f39030&#45;&gt;node_r_null_00000206e0f39030</title>
<path fill="none" stroke="#007cff" d="M646.83,-72.03C650.19,-63.31 653.66,-54.29 656.77,-46.22"/>
<polygon fill="#007cff" stroke="#007cff" points="660,-47.57 660.33,-36.98 653.47,-45.06 660,-47.57"/>
</g>
<!-- node_l_null_00000206e0f39130 -->
<g id="node16" class="node">
<title>node_l_null_00000206e0f39130</title>
<ellipse fill="#a2f0f8" stroke="#007cff" cx="931.25" cy="-18" rx="27" ry="18"/>
<text text-anchor="middle" x="931.25" y="-12.95" font-family="Times New Roman,serif" font-size="14.00">null</text>
</g>
<!-- node_00000206e0f39130&#45;&gt;node_l_null_00000206e0f39130 -->
<g id="edge22" class="edge">
<title>node_00000206e0f39130&#45;&gt;node_l_null_00000206e0f39130</title>
<path fill="none" stroke="#007cff" d="M952.24,-72.03C948.79,-63.31 945.22,-54.29 942.02,-46.22"/>
<polygon fill="#007cff" stroke="#007cff" points="945.3,-44.99 938.36,-36.98 938.79,-47.56 945.3,-44.99"/>
</g>
<!-- node_r_null_00000206e0f39130 -->
<g id="node17" class="node">
<title>node_r_null_00000206e0f39130</title>
<ellipse fill="#a2f0f8" stroke="#007cff" cx="1004.25" cy="-18" rx="27.81" ry="18"/>
<text text-anchor="middle" x="1004.25" y="-12.95" font-family="Times New Roman,serif" font-size="14.00"> null</text>
</g>
<!-- node_00000206e0f39130&#45;&gt;node_r_null_00000206e0f39130 -->
<g id="edge23" class="edge">
<title>node_00000206e0f39130&#45;&gt;node_r_null_00000206e0f39130</title>
<path fill="none" stroke="#007cff" d="M983.83,-72.03C987.19,-63.31 990.66,-54.29 993.77,-46.22"/>
<polygon fill="#007cff" stroke="#007cff" points="997,-47.57 997.33,-36.98 990.47,-45.06 997,-47.57"/>
</g>
</g>
</svg>
