<?xml version="1.0" encoding="UTF-8" standalone="no"?>
<!DOCTYPE svg PUBLIC "-//W3C//DTD SVG 1.1//EN"
 "http://www.w3.org/Graphics/SVG/1.1/DTD/svg11.dtd">
<!-- Generated by graphviz version 12.2.0 (20241103.1931)
 -->
<!-- Pages: 1 -->
<svg width="1209pt" height="401pt"
 viewBox="0.00 0.00 1209.35 401.00" xmlns="http://www.w3.org/2000/svg" xmlns:xlink="http://www.w3.org/1999/xlink">
<g id="graph0" class="graph" transform="scale(1 1) rotate(0) translate(4 397)">
<polygon fill="white" stroke="none" points="-4,4 -4,-397 1205.35,-397 1205.35,4 -4,4"/>
<!-- node_0000022552409210 -->
<g id="node1" class="node">
<title>node_0000022552409210</title>
<path fill="#ffa615" stroke="#004b00" d="M353,-310.5C353,-310.5 647.5,-310.5 647.5,-310.5 653.5,-310.5 659.5,-316.5 659.5,-322.5 659.5,-322.5 659.5,-380.5 659.5,-380.5 659.5,-386.5 653.5,-392.5 647.5,-392.5 647.5,-392.5 353,-392.5 353,-392.5 347,-392.5 341,-386.5 341,-380.5 341,-380.5 341,-322.5 341,-322.5 341,-316.5 347,-310.5 353,-310.5"/>
<text text-anchor="middle" x="500.25" y="-375.2" font-family="Times New Roman,serif" font-size="14.00">data = Akinator </text>
<text text-anchor="middle" x="500.25" y="-358.7" font-family="Times New Roman,serif" font-size="14.00"> addr: 0000022552409210</text>
<polyline fill="none" stroke="#004b00" points="341,-351.5 659.5,-351.5"/>
<text text-anchor="middle" x="420.62" y="-334.2" font-family="Times New Roman,serif" font-size="14.00">L:</text>
<text text-anchor="middle" x="420.62" y="-317.7" font-family="Times New Roman,serif" font-size="14.00"> addr: 0000022552409290</text>
<polyline fill="none" stroke="#004b00" points="500.25,-310.5 500.25,-351.5"/>
<text text-anchor="middle" x="579.88" y="-334.2" font-family="Times New Roman,serif" font-size="14.00">R: </text>
<text text-anchor="middle" x="579.88" y="-317.7" font-family="Times New Roman,serif" font-size="14.00"> addr: 0000022552409130</text>
</g>
<!-- node_0000022552409290 -->
<g id="node4" class="node">
<title>node_0000022552409290</title>
<path fill="#a2f8a4" stroke="#004b00" d="M184,-191.5C184,-191.5 478.5,-191.5 478.5,-191.5 484.5,-191.5 490.5,-197.5 490.5,-203.5 490.5,-203.5 490.5,-261.5 490.5,-261.5 490.5,-267.5 484.5,-273.5 478.5,-273.5 478.5,-273.5 184,-273.5 184,-273.5 178,-273.5 172,-267.5 172,-261.5 172,-261.5 172,-203.5 172,-203.5 172,-197.5 178,-191.5 184,-191.5"/>
<text text-anchor="middle" x="331.25" y="-256.2" font-family="Times New Roman,serif" font-size="14.00">data = YES_YES </text>
<text text-anchor="middle" x="331.25" y="-239.7" font-family="Times New Roman,serif" font-size="14.00"> addr: 0000022552409290</text>
<polyline fill="none" stroke="#004b00" points="172,-232.5 490.5,-232.5"/>
<text text-anchor="middle" x="251.62" y="-215.2" font-family="Times New Roman,serif" font-size="14.00">L:</text>
<text text-anchor="middle" x="251.62" y="-198.7" font-family="Times New Roman,serif" font-size="14.00"> addr: 0000022552409110</text>
<polyline fill="none" stroke="#004b00" points="331.25,-191.5 331.25,-232.5"/>
<text text-anchor="middle" x="410.88" y="-215.2" font-family="Times New Roman,serif" font-size="14.00">R: </text>
<text text-anchor="middle" x="410.88" y="-198.7" font-family="Times New Roman,serif" font-size="14.00"> addr: 0000000000000000</text>
</g>
<!-- node_0000022552409210&#45;&gt;node_0000022552409290 -->
<g id="edge2" class="edge">
<title>node_0000022552409210&#45;&gt;node_0000022552409290</title>
<path fill="none" stroke="#004b00" d="M442.09,-310.24C428.15,-300.58 413.14,-290.2 398.82,-280.28"/>
<polygon fill="#004b00" stroke="#004b00" points="400.98,-277.51 390.76,-274.7 396.99,-283.27 400.98,-277.51"/>
</g>
<!-- node_0000022552409130 -->
<g id="node5" class="node">
<title>node_0000022552409130</title>
<path fill="#a2f8a4" stroke="#004b00" d="M521,-191.5C521,-191.5 815.5,-191.5 815.5,-191.5 821.5,-191.5 827.5,-197.5 827.5,-203.5 827.5,-203.5 827.5,-261.5 827.5,-261.5 827.5,-267.5 821.5,-273.5 815.5,-273.5 815.5,-273.5 521,-273.5 521,-273.5 515,-273.5 509,-267.5 509,-261.5 509,-261.5 509,-203.5 509,-203.5 509,-197.5 515,-191.5 521,-191.5"/>
<text text-anchor="middle" x="668.25" y="-256.2" font-family="Times New Roman,serif" font-size="14.00">data = Skibidi dob dob yes yes </text>
<text text-anchor="middle" x="668.25" y="-239.7" font-family="Times New Roman,serif" font-size="14.00"> addr: 0000022552409130</text>
<polyline fill="none" stroke="#004b00" points="509,-232.5 827.5,-232.5"/>
<text text-anchor="middle" x="588.62" y="-215.2" font-family="Times New Roman,serif" font-size="14.00">L:</text>
<text text-anchor="middle" x="588.62" y="-198.7" font-family="Times New Roman,serif" font-size="14.00"> addr: 00000225524091b0</text>
<polyline fill="none" stroke="#004b00" points="668.25,-191.5 668.25,-232.5"/>
<text text-anchor="middle" x="747.88" y="-215.2" font-family="Times New Roman,serif" font-size="14.00">R: </text>
<text text-anchor="middle" x="747.88" y="-198.7" font-family="Times New Roman,serif" font-size="14.00"> addr: 0000022552409150</text>
</g>
<!-- node_0000022552409210&#45;&gt;node_0000022552409130 -->
<g id="edge3" class="edge">
<title>node_0000022552409210&#45;&gt;node_0000022552409130</title>
<path fill="none" stroke="#004b00" d="M558.07,-310.24C571.93,-300.58 586.84,-290.2 601.08,-280.28"/>
<polygon fill="#004b00" stroke="#004b00" points="602.88,-283.29 609.09,-274.7 598.88,-277.55 602.88,-283.29"/>
</g>
<!-- 1 -->
<g id="node2" class="node">
<title>1</title>
<ellipse fill="#fe5656" stroke="#581804" cx="1167.25" cy="-351.5" rx="18" ry="18"/>
<text text-anchor="middle" x="1167.25" y="-346.45" font-family="Times New Roman,serif" font-size="14.00">1</text>
</g>
<!-- 2 -->
<g id="node3" class="node">
<title>2</title>
<ellipse fill="#fe5656" stroke="#581804" cx="1167.25" cy="-232.5" rx="18" ry="18"/>
<text text-anchor="middle" x="1167.25" y="-227.45" font-family="Times New Roman,serif" font-size="14.00">2</text>
</g>
<!-- 1&#45;&gt;2 -->
<g id="edge1" class="edge">
<title>1&#45;&gt;2</title>
<path fill="none" stroke="white" d="M1162.35,-333.74C1160.26,-314.88 1159.94,-283.96 1161.4,-261.44"/>
<polygon fill="white" stroke="white" points="1164.86,-262 1162.22,-251.74 1157.89,-261.41 1164.86,-262"/>
</g>
<!-- 1&#45;&gt;2 -->
<g id="edge4" class="edge">
<title>1&#45;&gt;2</title>
<path fill="none" stroke="white" d="M1172.15,-333.74C1174.24,-314.88 1174.56,-283.96 1173.1,-261.44"/>
<polygon fill="white" stroke="white" points="1176.61,-261.41 1172.28,-251.74 1169.64,-262 1176.61,-261.41"/>
</g>
<!-- 3 -->
<g id="node6" class="node">
<title>3</title>
<ellipse fill="#fe5656" stroke="#581804" cx="1167.25" cy="-113.5" rx="18" ry="18"/>
<text text-anchor="middle" x="1167.25" y="-108.45" font-family="Times New Roman,serif" font-size="14.00">3</text>
</g>
<!-- 2&#45;&gt;3 -->
<g id="edge5" class="edge">
<title>2&#45;&gt;3</title>
<path fill="none" stroke="white" d="M1154.33,-219.42C1145.94,-200.15 1144.75,-162.14 1150.76,-137.54"/>
<polygon fill="white" stroke="white" points="1154.05,-138.72 1153.81,-128.13 1147.4,-136.56 1154.05,-138.72"/>
</g>
<!-- 2&#45;&gt;3 -->
<g id="edge8" class="edge">
<title>2&#45;&gt;3</title>
<path fill="none" stroke="white" d="M1162.35,-214.74C1160.26,-195.88 1159.94,-164.96 1161.4,-142.44"/>
<polygon fill="white" stroke="white" points="1164.86,-143 1162.22,-132.74 1157.89,-142.41 1164.86,-143"/>
</g>
<!-- 2&#45;&gt;3 -->
<g id="edge13" class="edge">
<title>2&#45;&gt;3</title>
<path fill="none" stroke="white" d="M1172.15,-214.74C1174.24,-195.88 1174.56,-164.96 1173.1,-142.44"/>
<polygon fill="white" stroke="white" points="1176.61,-142.41 1172.28,-132.74 1169.64,-143 1176.61,-142.41"/>
</g>
<!-- 2&#45;&gt;3 -->
<g id="edge16" class="edge">
<title>2&#45;&gt;3</title>
<path fill="none" stroke="white" d="M1180.17,-219.42C1188.56,-200.15 1189.75,-162.14 1183.74,-137.54"/>
<polygon fill="white" stroke="white" points="1187.1,-136.56 1180.69,-128.13 1180.45,-138.72 1187.1,-136.56"/>
</g>
<!-- node_0000022552409110 -->
<g id="node7" class="node">
<title>node_0000022552409110</title>
<path fill="#a2f8a4" stroke="#004b00" d="M12,-72.5C12,-72.5 306.5,-72.5 306.5,-72.5 312.5,-72.5 318.5,-78.5 318.5,-84.5 318.5,-84.5 318.5,-142.5 318.5,-142.5 318.5,-148.5 312.5,-154.5 306.5,-154.5 306.5,-154.5 12,-154.5 12,-154.5 6,-154.5 0,-148.5 0,-142.5 0,-142.5 0,-84.5 0,-84.5 0,-78.5 6,-72.5 12,-72.5"/>
<text text-anchor="middle" x="159.25" y="-137.2" font-family="Times New Roman,serif" font-size="14.00">data = Eto zhe azamat </text>
<text text-anchor="middle" x="159.25" y="-120.7" font-family="Times New Roman,serif" font-size="14.00"> addr: 0000022552409110</text>
<polyline fill="none" stroke="#004b00" points="0,-113.5 318.5,-113.5"/>
<text text-anchor="middle" x="79.62" y="-96.2" font-family="Times New Roman,serif" font-size="14.00">L:</text>
<text text-anchor="middle" x="79.62" y="-79.7" font-family="Times New Roman,serif" font-size="14.00"> addr: 0000000000000000</text>
<polyline fill="none" stroke="#004b00" points="159.25,-72.5 159.25,-113.5"/>
<text text-anchor="middle" x="238.88" y="-96.2" font-family="Times New Roman,serif" font-size="14.00">R: </text>
<text text-anchor="middle" x="238.88" y="-79.7" font-family="Times New Roman,serif" font-size="14.00"> addr: 0000000000000000</text>
</g>
<!-- node_0000022552409290&#45;&gt;node_0000022552409110 -->
<g id="edge6" class="edge">
<title>node_0000022552409290&#45;&gt;node_0000022552409110</title>
<path fill="none" stroke="#004b00" d="M272.06,-191.24C257.87,-181.58 242.6,-171.2 228.02,-161.28"/>
<polygon fill="#004b00" stroke="#004b00" points="230.04,-158.42 219.8,-155.69 226.1,-164.21 230.04,-158.42"/>
</g>
<!-- node_r_null_0000022552409290 -->
<g id="node8" class="node">
<title>node_r_null_0000022552409290</title>
<ellipse fill="#a2f0f8" stroke="#007cff" cx="364.25" cy="-113.5" rx="27.81" ry="18"/>
<text text-anchor="middle" x="364.25" y="-108.45" font-family="Times New Roman,serif" font-size="14.00"> null</text>
</g>
<!-- node_0000022552409290&#45;&gt;node_r_null_0000022552409290 -->
<g id="edge7" class="edge">
<title>node_0000022552409290&#45;&gt;node_r_null_0000022552409290</title>
<path fill="none" stroke="#007cff" d="M342.61,-191.24C347.14,-175.17 352.24,-157.07 356.36,-142.48"/>
<polygon fill="#007cff" stroke="#007cff" points="359.66,-143.67 359,-133.1 352.92,-141.77 359.66,-143.67"/>
</g>
<!-- node_00000225524091b0 -->
<g id="node12" class="node">
<title>node_00000225524091b0</title>
<path fill="#a2f8a4" stroke="#004b00" d="M488,-72.5C488,-72.5 782.5,-72.5 782.5,-72.5 788.5,-72.5 794.5,-78.5 794.5,-84.5 794.5,-84.5 794.5,-142.5 794.5,-142.5 794.5,-148.5 788.5,-154.5 782.5,-154.5 782.5,-154.5 488,-154.5 488,-154.5 482,-154.5 476,-148.5 476,-142.5 476,-142.5 476,-84.5 476,-84.5 476,-78.5 482,-72.5 488,-72.5"/>
<text text-anchor="middle" x="635.25" y="-137.2" font-family="Times New Roman,serif" font-size="14.00">data = Sonya topi </text>
<text text-anchor="middle" x="635.25" y="-120.7" font-family="Times New Roman,serif" font-size="14.00"> addr: 00000225524091b0</text>
<polyline fill="none" stroke="#004b00" points="476,-113.5 794.5,-113.5"/>
<text text-anchor="middle" x="555.62" y="-96.2" font-family="Times New Roman,serif" font-size="14.00">L:</text>
<text text-anchor="middle" x="555.62" y="-79.7" font-family="Times New Roman,serif" font-size="14.00"> addr: 0000000000000000</text>
<polyline fill="none" stroke="#004b00" points="635.25,-72.5 635.25,-113.5"/>
<text text-anchor="middle" x="714.88" y="-96.2" font-family="Times New Roman,serif" font-size="14.00">R: </text>
<text text-anchor="middle" x="714.88" y="-79.7" font-family="Times New Roman,serif" font-size="14.00"> addr: 0000000000000000</text>
</g>
<!-- node_0000022552409130&#45;&gt;node_00000225524091b0 -->
<g id="edge14" class="edge">
<title>node_0000022552409130&#45;&gt;node_00000225524091b0</title>
<path fill="none" stroke="#004b00" d="M656.89,-191.24C654.59,-183.05 652.13,-174.34 649.73,-165.84"/>
<polygon fill="#004b00" stroke="#004b00" points="653.12,-164.97 647.04,-156.3 646.38,-166.87 653.12,-164.97"/>
</g>
<!-- node_0000022552409150 -->
<g id="node13" class="node">
<title>node_0000022552409150</title>
<path fill="#a2f8a4" stroke="#004b00" d="M825,-72.5C825,-72.5 1119.5,-72.5 1119.5,-72.5 1125.5,-72.5 1131.5,-78.5 1131.5,-84.5 1131.5,-84.5 1131.5,-142.5 1131.5,-142.5 1131.5,-148.5 1125.5,-154.5 1119.5,-154.5 1119.5,-154.5 825,-154.5 825,-154.5 819,-154.5 813,-148.5 813,-142.5 813,-142.5 813,-84.5 813,-84.5 813,-78.5 819,-72.5 825,-72.5"/>
<text text-anchor="middle" x="972.25" y="-137.2" font-family="Times New Roman,serif" font-size="14.00">data = Nastya_topi </text>
<text text-anchor="middle" x="972.25" y="-120.7" font-family="Times New Roman,serif" font-size="14.00"> addr: 0000022552409150</text>
<polyline fill="none" stroke="#004b00" points="813,-113.5 1131.5,-113.5"/>
<text text-anchor="middle" x="892.62" y="-96.2" font-family="Times New Roman,serif" font-size="14.00">L:</text>
<text text-anchor="middle" x="892.62" y="-79.7" font-family="Times New Roman,serif" font-size="14.00"> addr: 0000000000000000</text>
<polyline fill="none" stroke="#004b00" points="972.25,-72.5 972.25,-113.5"/>
<text text-anchor="middle" x="1051.88" y="-96.2" font-family="Times New Roman,serif" font-size="14.00">R: </text>
<text text-anchor="middle" x="1051.88" y="-79.7" font-family="Times New Roman,serif" font-size="14.00"> addr: 0000000000000000</text>
</g>
<!-- node_0000022552409130&#45;&gt;node_0000022552409150 -->
<g id="edge15" class="edge">
<title>node_0000022552409130&#45;&gt;node_0000022552409150</title>
<path fill="none" stroke="#004b00" d="M773.3,-191.07C800.23,-180.7 829.35,-169.5 856.78,-158.94"/>
<polygon fill="#004b00" stroke="#004b00" points="857.71,-162.33 865.79,-155.47 855.2,-155.8 857.71,-162.33"/>
</g>
<!-- 4 -->
<g id="node9" class="node">
<title>4</title>
<ellipse fill="#fe5656" stroke="#581804" cx="1167.25" cy="-18" rx="18" ry="18"/>
<text text-anchor="middle" x="1167.25" y="-12.95" font-family="Times New Roman,serif" font-size="14.00">4</text>
</g>
<!-- 3&#45;&gt;4 -->
<g id="edge9" class="edge">
<title>3&#45;&gt;4</title>
<path fill="none" stroke="white" d="M1150.19,-106.93C1130.93,-92.54 1128.34,-53.8 1142.42,-32.87"/>
<polygon fill="white" stroke="white" points="1144.78,-35.47 1149.04,-25.77 1139.66,-30.7 1144.78,-35.47"/>
</g>
<!-- 3&#45;&gt;4 -->
<g id="edge12" class="edge">
<title>3&#45;&gt;4</title>
<path fill="none" stroke="white" d="M1153.59,-101.41C1146.31,-86.51 1145.06,-59.7 1149.84,-40.71"/>
<polygon fill="white" stroke="white" points="1153.06,-42.1 1153.09,-31.51 1146.46,-39.77 1153.06,-42.1"/>
</g>
<!-- 3&#45;&gt;4 -->
<g id="edge17" class="edge">
<title>3&#45;&gt;4</title>
<path fill="none" stroke="white" d="M1161.93,-95.78C1160.41,-82.22 1160.1,-62.81 1161.01,-46.9"/>
<polygon fill="white" stroke="white" points="1164.49,-47.33 1161.83,-37.08 1157.51,-46.76 1164.49,-47.33"/>
</g>
<!-- 3&#45;&gt;4 -->
<g id="edge20" class="edge">
<title>3&#45;&gt;4</title>
<path fill="none" stroke="white" d="M1172.57,-95.78C1174.09,-82.22 1174.4,-62.81 1173.49,-46.9"/>
<polygon fill="white" stroke="white" points="1176.99,-46.76 1172.67,-37.08 1170.01,-47.33 1176.99,-46.76"/>
</g>
<!-- 3&#45;&gt;4 -->
<g id="edge21" class="edge">
<title>3&#45;&gt;4</title>
<path fill="none" stroke="white" d="M1180.91,-101.41C1188.19,-86.51 1189.44,-59.7 1184.66,-40.71"/>
<polygon fill="white" stroke="white" points="1188.04,-39.77 1181.41,-31.51 1181.44,-42.1 1188.04,-39.77"/>
</g>
<!-- 3&#45;&gt;4 -->
<g id="edge24" class="edge">
<title>3&#45;&gt;4</title>
<path fill="none" stroke="white" d="M1184.31,-106.93C1203.57,-92.54 1206.16,-53.8 1192.08,-32.87"/>
<polygon fill="white" stroke="white" points="1194.84,-30.7 1185.46,-25.77 1189.72,-35.47 1194.84,-30.7"/>
</g>
<!-- node_l_null_0000022552409110 -->
<g id="node10" class="node">
<title>node_l_null_0000022552409110</title>
<ellipse fill="#a2f0f8" stroke="#007cff" cx="123.25" cy="-18" rx="27" ry="18"/>
<text text-anchor="middle" x="123.25" y="-12.95" font-family="Times New Roman,serif" font-size="14.00">null</text>
</g>
<!-- node_0000022552409110&#45;&gt;node_l_null_0000022552409110 -->
<g id="edge10" class="edge">
<title>node_0000022552409110&#45;&gt;node_l_null_0000022552409110</title>
<path fill="none" stroke="#007cff" d="M143.67,-72.03C140.31,-63.31 136.84,-54.29 133.73,-46.22"/>
<polygon fill="#007cff" stroke="#007cff" points="137.03,-45.06 130.17,-36.98 130.5,-47.57 137.03,-45.06"/>
</g>
<!-- node_r_null_0000022552409110 -->
<g id="node11" class="node">
<title>node_r_null_0000022552409110</title>
<ellipse fill="#a2f0f8" stroke="#007cff" cx="196.25" cy="-18" rx="27.81" ry="18"/>
<text text-anchor="middle" x="196.25" y="-12.95" font-family="Times New Roman,serif" font-size="14.00"> null</text>
</g>
<!-- node_0000022552409110&#45;&gt;node_r_null_0000022552409110 -->
<g id="edge11" class="edge">
<title>node_0000022552409110&#45;&gt;node_r_null_0000022552409110</title>
<path fill="none" stroke="#007cff" d="M175.26,-72.03C178.71,-63.31 182.28,-54.29 185.48,-46.22"/>
<polygon fill="#007cff" stroke="#007cff" points="188.71,-47.56 189.14,-36.98 182.2,-44.99 188.71,-47.56"/>
</g>
<!-- node_l_null_00000225524091b0 -->
<g id="node14" class="node">
<title>node_l_null_00000225524091b0</title>
<ellipse fill="#a2f0f8" stroke="#007cff" cx="598.25" cy="-18" rx="27" ry="18"/>
<text text-anchor="middle" x="598.25" y="-12.95" font-family="Times New Roman,serif" font-size="14.00">null</text>
</g>
<!-- node_00000225524091b0&#45;&gt;node_l_null_00000225524091b0 -->
<g id="edge18" class="edge">
<title>node_00000225524091b0&#45;&gt;node_l_null_00000225524091b0</title>
<path fill="none" stroke="#007cff" d="M619.24,-72.03C615.79,-63.31 612.22,-54.29 609.02,-46.22"/>
<polygon fill="#007cff" stroke="#007cff" points="612.3,-44.99 605.36,-36.98 605.79,-47.56 612.3,-44.99"/>
</g>
<!-- node_r_null_00000225524091b0 -->
<g id="node15" class="node">
<title>node_r_null_00000225524091b0</title>
<ellipse fill="#a2f0f8" stroke="#007cff" cx="671.25" cy="-18" rx="27.81" ry="18"/>
<text text-anchor="middle" x="671.25" y="-12.95" font-family="Times New Roman,serif" font-size="14.00"> null</text>
</g>
<!-- node_00000225524091b0&#45;&gt;node_r_null_00000225524091b0 -->
<g id="edge19" class="edge">
<title>node_00000225524091b0&#45;&gt;node_r_null_00000225524091b0</title>
<path fill="none" stroke="#007cff" d="M650.83,-72.03C654.19,-63.31 657.66,-54.29 660.77,-46.22"/>
<polygon fill="#007cff" stroke="#007cff" points="664,-47.57 664.33,-36.98 657.47,-45.06 664,-47.57"/>
</g>
<!-- node_l_null_0000022552409150 -->
<g id="node16" class="node">
<title>node_l_null_0000022552409150</title>
<ellipse fill="#a2f0f8" stroke="#007cff" cx="935.25" cy="-18" rx="27" ry="18"/>
<text text-anchor="middle" x="935.25" y="-12.95" font-family="Times New Roman,serif" font-size="14.00">null</text>
</g>
<!-- node_0000022552409150&#45;&gt;node_l_null_0000022552409150 -->
<g id="edge22" class="edge">
<title>node_0000022552409150&#45;&gt;node_l_null_0000022552409150</title>
<path fill="none" stroke="#007cff" d="M956.24,-72.03C952.79,-63.31 949.22,-54.29 946.02,-46.22"/>
<polygon fill="#007cff" stroke="#007cff" points="949.3,-44.99 942.36,-36.98 942.79,-47.56 949.3,-44.99"/>
</g>
<!-- node_r_null_0000022552409150 -->
<g id="node17" class="node">
<title>node_r_null_0000022552409150</title>
<ellipse fill="#a2f0f8" stroke="#007cff" cx="1008.25" cy="-18" rx="27.81" ry="18"/>
<text text-anchor="middle" x="1008.25" y="-12.95" font-family="Times New Roman,serif" font-size="14.00"> null</text>
</g>
<!-- node_0000022552409150&#45;&gt;node_r_null_0000022552409150 -->
<g id="edge23" class="edge">
<title>node_0000022552409150&#45;&gt;node_r_null_0000022552409150</title>
<path fill="none" stroke="#007cff" d="M987.83,-72.03C991.19,-63.31 994.66,-54.29 997.77,-46.22"/>
<polygon fill="#007cff" stroke="#007cff" points="1001,-47.57 1001.33,-36.98 994.47,-45.06 1001,-47.57"/>
</g>
</g>
</svg>
