<?xml version="1.0" encoding="UTF-8" standalone="no"?>
<!DOCTYPE svg PUBLIC "-//W3C//DTD SVG 1.1//EN"
 "http://www.w3.org/Graphics/SVG/1.1/DTD/svg11.dtd">
<!-- Generated by graphviz version 12.2.0 (20241103.1931)
 -->
<!-- Pages: 1 -->
<svg width="1308pt" height="520pt"
 viewBox="0.00 0.00 1308.10 520.00" xmlns="http://www.w3.org/2000/svg" xmlns:xlink="http://www.w3.org/1999/xlink">
<g id="graph0" class="graph" transform="scale(1 1) rotate(0) translate(4 516)">
<polygon fill="white" stroke="none" points="-4,4 -4,-516 1304.1,-516 1304.1,4 -4,4"/>
<!-- node_00000212e1af91f0 -->
<g id="node1" class="node">
<title>node_00000212e1af91f0</title>
<path fill="#ffa615" stroke="#004b00" d="M255.5,-429.5C255.5,-429.5 542.5,-429.5 542.5,-429.5 548.5,-429.5 554.5,-435.5 554.5,-441.5 554.5,-441.5 554.5,-499.5 554.5,-499.5 554.5,-505.5 548.5,-511.5 542.5,-511.5 542.5,-511.5 255.5,-511.5 255.5,-511.5 249.5,-511.5 243.5,-505.5 243.5,-499.5 243.5,-499.5 243.5,-441.5 243.5,-441.5 243.5,-435.5 249.5,-429.5 255.5,-429.5"/>
<text text-anchor="middle" x="399" y="-494.2" font-family="Times New Roman,serif" font-size="14.00">data = Qvadrober </text>
<text text-anchor="middle" x="399" y="-477.7" font-family="Times New Roman,serif" font-size="14.00"> addr: 00000212e1af91f0</text>
<polyline fill="none" stroke="#004b00" points="243.5,-470.5 554.5,-470.5"/>
<text text-anchor="middle" x="321.25" y="-453.2" font-family="Times New Roman,serif" font-size="14.00">L:</text>
<text text-anchor="middle" x="321.25" y="-436.7" font-family="Times New Roman,serif" font-size="14.00"> addr: 00000212e1af9210</text>
<polyline fill="none" stroke="#004b00" points="399,-429.5 399,-470.5"/>
<text text-anchor="middle" x="476.75" y="-453.2" font-family="Times New Roman,serif" font-size="14.00">R: </text>
<text text-anchor="middle" x="476.75" y="-436.7" font-family="Times New Roman,serif" font-size="14.00"> addr: 00000212e1af9270</text>
</g>
<!-- node_00000212e1af9210 -->
<g id="node4" class="node">
<title>node_00000212e1af9210</title>
<path fill="#a2f8a4" stroke="#004b00" d="M85.62,-310.5C85.62,-310.5 376.38,-310.5 376.38,-310.5 382.38,-310.5 388.38,-316.5 388.38,-322.5 388.38,-322.5 388.38,-380.5 388.38,-380.5 388.38,-386.5 382.38,-392.5 376.38,-392.5 376.38,-392.5 85.62,-392.5 85.62,-392.5 79.62,-392.5 73.62,-386.5 73.62,-380.5 73.62,-380.5 73.62,-322.5 73.62,-322.5 73.62,-316.5 79.62,-310.5 85.62,-310.5"/>
<text text-anchor="middle" x="231" y="-375.2" font-family="Times New Roman,serif" font-size="14.00">data = Ded </text>
<text text-anchor="middle" x="231" y="-358.7" font-family="Times New Roman,serif" font-size="14.00"> addr: 00000212e1af9210</text>
<polyline fill="none" stroke="#004b00" points="73.62,-351.5 388.38,-351.5"/>
<text text-anchor="middle" x="153.25" y="-334.2" font-family="Times New Roman,serif" font-size="14.00">L:</text>
<text text-anchor="middle" x="153.25" y="-317.7" font-family="Times New Roman,serif" font-size="14.00"> addr: 0000000000000000</text>
<polyline fill="none" stroke="#004b00" points="232.88,-310.5 232.88,-351.5"/>
<text text-anchor="middle" x="310.62" y="-334.2" font-family="Times New Roman,serif" font-size="14.00">R: </text>
<text text-anchor="middle" x="310.62" y="-317.7" font-family="Times New Roman,serif" font-size="14.00"> addr: 00000212e1af9250</text>
</g>
<!-- node_00000212e1af91f0&#45;&gt;node_00000212e1af9210 -->
<g id="edge2" class="edge">
<title>node_00000212e1af91f0&#45;&gt;node_00000212e1af9210</title>
<path fill="none" stroke="#004b00" d="M341.18,-429.24C327.32,-419.58 312.41,-409.2 298.17,-399.28"/>
<polygon fill="#004b00" stroke="#004b00" points="300.37,-396.55 290.16,-393.7 296.37,-402.29 300.37,-396.55"/>
</g>
<!-- node_00000212e1af9270 -->
<g id="node5" class="node">
<title>node_00000212e1af9270</title>
<path fill="#a2f8a4" stroke="#004b00" d="M422.5,-310.5C422.5,-310.5 709.5,-310.5 709.5,-310.5 715.5,-310.5 721.5,-316.5 721.5,-322.5 721.5,-322.5 721.5,-380.5 721.5,-380.5 721.5,-386.5 715.5,-392.5 709.5,-392.5 709.5,-392.5 422.5,-392.5 422.5,-392.5 416.5,-392.5 410.5,-386.5 410.5,-380.5 410.5,-380.5 410.5,-322.5 410.5,-322.5 410.5,-316.5 416.5,-310.5 422.5,-310.5"/>
<text text-anchor="middle" x="566" y="-375.2" font-family="Times New Roman,serif" font-size="14.00">data = Zhivitnoe </text>
<text text-anchor="middle" x="566" y="-358.7" font-family="Times New Roman,serif" font-size="14.00"> addr: 00000212e1af9270</text>
<polyline fill="none" stroke="#004b00" points="410.5,-351.5 721.5,-351.5"/>
<text text-anchor="middle" x="488.25" y="-334.2" font-family="Times New Roman,serif" font-size="14.00">L:</text>
<text text-anchor="middle" x="488.25" y="-317.7" font-family="Times New Roman,serif" font-size="14.00"> addr: 00000212e1af92b0</text>
<polyline fill="none" stroke="#004b00" points="566,-310.5 566,-351.5"/>
<text text-anchor="middle" x="643.75" y="-334.2" font-family="Times New Roman,serif" font-size="14.00">R: </text>
<text text-anchor="middle" x="643.75" y="-317.7" font-family="Times New Roman,serif" font-size="14.00"> addr: 00000212e1af9010</text>
</g>
<!-- node_00000212e1af91f0&#45;&gt;node_00000212e1af9270 -->
<g id="edge3" class="edge">
<title>node_00000212e1af91f0&#45;&gt;node_00000212e1af9270</title>
<path fill="none" stroke="#004b00" d="M456.47,-429.24C470.25,-419.58 485.08,-409.2 499.23,-399.28"/>
<polygon fill="#004b00" stroke="#004b00" points="501,-402.31 507.18,-393.71 496.98,-396.58 501,-402.31"/>
</g>
<!-- 1 -->
<g id="node2" class="node">
<title>1</title>
<ellipse fill="#fe5656" stroke="#581804" cx="1266" cy="-470.5" rx="18" ry="18"/>
<text text-anchor="middle" x="1266" y="-465.45" font-family="Times New Roman,serif" font-size="14.00">1</text>
</g>
<!-- 2 -->
<g id="node3" class="node">
<title>2</title>
<ellipse fill="#fe5656" stroke="#581804" cx="1266" cy="-351.5" rx="18" ry="18"/>
<text text-anchor="middle" x="1266" y="-346.45" font-family="Times New Roman,serif" font-size="14.00">2</text>
</g>
<!-- 1&#45;&gt;2 -->
<g id="edge1" class="edge">
<title>1&#45;&gt;2</title>
<path fill="none" stroke="white" d="M1261.1,-452.74C1259.01,-433.88 1258.69,-402.96 1260.15,-380.44"/>
<polygon fill="white" stroke="white" points="1263.61,-381 1260.97,-370.74 1256.64,-380.41 1263.61,-381"/>
</g>
<!-- 1&#45;&gt;2 -->
<g id="edge4" class="edge">
<title>1&#45;&gt;2</title>
<path fill="none" stroke="white" d="M1270.9,-452.74C1272.99,-433.88 1273.31,-402.96 1271.85,-380.44"/>
<polygon fill="white" stroke="white" points="1275.36,-380.41 1271.03,-370.74 1268.39,-381 1275.36,-380.41"/>
</g>
<!-- 3 -->
<g id="node6" class="node">
<title>3</title>
<ellipse fill="#fe5656" stroke="#581804" cx="1266" cy="-232.5" rx="18" ry="18"/>
<text text-anchor="middle" x="1266" y="-227.45" font-family="Times New Roman,serif" font-size="14.00">3</text>
</g>
<!-- 2&#45;&gt;3 -->
<g id="edge5" class="edge">
<title>2&#45;&gt;3</title>
<path fill="none" stroke="white" d="M1253.08,-338.42C1244.69,-319.15 1243.5,-281.14 1249.51,-256.54"/>
<polygon fill="white" stroke="white" points="1252.8,-257.72 1252.56,-247.13 1246.15,-255.56 1252.8,-257.72"/>
</g>
<!-- 2&#45;&gt;3 -->
<g id="edge8" class="edge">
<title>2&#45;&gt;3</title>
<path fill="none" stroke="white" d="M1261.1,-333.74C1259.01,-314.88 1258.69,-283.96 1260.15,-261.44"/>
<polygon fill="white" stroke="white" points="1263.61,-262 1260.97,-251.74 1256.64,-261.41 1263.61,-262"/>
</g>
<!-- 2&#45;&gt;3 -->
<g id="edge13" class="edge">
<title>2&#45;&gt;3</title>
<path fill="none" stroke="white" d="M1270.9,-333.74C1272.99,-314.88 1273.31,-283.96 1271.85,-261.44"/>
<polygon fill="white" stroke="white" points="1275.36,-261.41 1271.03,-251.74 1268.39,-262 1275.36,-261.41"/>
</g>
<!-- 2&#45;&gt;3 -->
<g id="edge16" class="edge">
<title>2&#45;&gt;3</title>
<path fill="none" stroke="white" d="M1278.92,-338.42C1287.31,-319.15 1288.5,-281.14 1282.49,-256.54"/>
<polygon fill="white" stroke="white" points="1285.85,-255.56 1279.44,-247.13 1279.2,-257.72 1285.85,-255.56"/>
</g>
<!-- node_l_null_00000212e1af9210 -->
<g id="node7" class="node">
<title>node_l_null_00000212e1af9210</title>
<ellipse fill="#a2f0f8" stroke="#007cff" cx="27" cy="-232.5" rx="27" ry="18"/>
<text text-anchor="middle" x="27" y="-227.45" font-family="Times New Roman,serif" font-size="14.00">null</text>
</g>
<!-- node_00000212e1af9210&#45;&gt;node_l_null_00000212e1af9210 -->
<g id="edge6" class="edge">
<title>node_00000212e1af9210&#45;&gt;node_l_null_00000212e1af9210</title>
<path fill="none" stroke="#007cff" d="M124.61,-310.2C103.28,-299.91 81.7,-287.8 63,-274 56.69,-269.35 50.68,-263.43 45.43,-257.57"/>
<polygon fill="#007cff" stroke="#007cff" points="48.45,-255.72 39.33,-250.33 43.1,-260.23 48.45,-255.72"/>
</g>
<!-- node_00000212e1af9250 -->
<g id="node8" class="node">
<title>node_00000212e1af9250</title>
<path fill="#a2f8a4" stroke="#004b00" d="M83.75,-191.5C83.75,-191.5 378.25,-191.5 378.25,-191.5 384.25,-191.5 390.25,-197.5 390.25,-203.5 390.25,-203.5 390.25,-261.5 390.25,-261.5 390.25,-267.5 384.25,-273.5 378.25,-273.5 378.25,-273.5 83.75,-273.5 83.75,-273.5 77.75,-273.5 71.75,-267.5 71.75,-261.5 71.75,-261.5 71.75,-203.5 71.75,-203.5 71.75,-197.5 77.75,-191.5 83.75,-191.5"/>
<text text-anchor="middle" x="231" y="-256.2" font-family="Times New Roman,serif" font-size="14.00">data = Itsa </text>
<text text-anchor="middle" x="231" y="-239.7" font-family="Times New Roman,serif" font-size="14.00"> addr: 00000212e1af9250</text>
<polyline fill="none" stroke="#004b00" points="71.75,-232.5 390.25,-232.5"/>
<text text-anchor="middle" x="151.38" y="-215.2" font-family="Times New Roman,serif" font-size="14.00">L:</text>
<text text-anchor="middle" x="151.38" y="-198.7" font-family="Times New Roman,serif" font-size="14.00"> addr: 0000000000000000</text>
<polyline fill="none" stroke="#004b00" points="231,-191.5 231,-232.5"/>
<text text-anchor="middle" x="310.62" y="-215.2" font-family="Times New Roman,serif" font-size="14.00">R: </text>
<text text-anchor="middle" x="310.62" y="-198.7" font-family="Times New Roman,serif" font-size="14.00"> addr: 0000000000000000</text>
</g>
<!-- node_00000212e1af9210&#45;&gt;node_00000212e1af9250 -->
<g id="edge7" class="edge">
<title>node_00000212e1af9210&#45;&gt;node_00000212e1af9250</title>
<path fill="none" stroke="#004b00" d="M231,-310.24C231,-302.15 231,-293.54 231,-285.13"/>
<polygon fill="#004b00" stroke="#004b00" points="234.5,-285.35 231,-275.35 227.5,-285.35 234.5,-285.35"/>
</g>
<!-- node_00000212e1af92b0 -->
<g id="node12" class="node">
<title>node_00000212e1af92b0</title>
<path fill="#a2f8a4" stroke="#004b00" d="M420.62,-191.5C420.62,-191.5 711.38,-191.5 711.38,-191.5 717.38,-191.5 723.38,-197.5 723.38,-203.5 723.38,-203.5 723.38,-261.5 723.38,-261.5 723.38,-267.5 717.38,-273.5 711.38,-273.5 711.38,-273.5 420.62,-273.5 420.62,-273.5 414.62,-273.5 408.62,-267.5 408.62,-261.5 408.62,-261.5 408.62,-203.5 408.62,-203.5 408.62,-197.5 414.62,-191.5 420.62,-191.5"/>
<text text-anchor="middle" x="566" y="-256.2" font-family="Times New Roman,serif" font-size="14.00">data = Na phistexe </text>
<text text-anchor="middle" x="566" y="-239.7" font-family="Times New Roman,serif" font-size="14.00"> addr: 00000212e1af92b0</text>
<polyline fill="none" stroke="#004b00" points="408.62,-232.5 723.38,-232.5"/>
<text text-anchor="middle" x="486.38" y="-215.2" font-family="Times New Roman,serif" font-size="14.00">L:</text>
<text text-anchor="middle" x="486.38" y="-198.7" font-family="Times New Roman,serif" font-size="14.00"> addr: 00000212e1af9330</text>
<polyline fill="none" stroke="#004b00" points="564.12,-191.5 564.12,-232.5"/>
<text text-anchor="middle" x="643.75" y="-215.2" font-family="Times New Roman,serif" font-size="14.00">R: </text>
<text text-anchor="middle" x="643.75" y="-198.7" font-family="Times New Roman,serif" font-size="14.00"> addr: 0000000000000000</text>
</g>
<!-- node_00000212e1af9270&#45;&gt;node_00000212e1af92b0 -->
<g id="edge14" class="edge">
<title>node_00000212e1af9270&#45;&gt;node_00000212e1af92b0</title>
<path fill="none" stroke="#004b00" d="M566,-310.24C566,-302.15 566,-293.54 566,-285.13"/>
<polygon fill="#004b00" stroke="#004b00" points="569.5,-285.35 566,-275.35 562.5,-285.35 569.5,-285.35"/>
</g>
<!-- node_00000212e1af9010 -->
<g id="node13" class="node">
<title>node_00000212e1af9010</title>
<path fill="#a2f8a4" stroke="#004b00" d="M753.88,-191.5C753.88,-191.5 1040.12,-191.5 1040.12,-191.5 1046.12,-191.5 1052.12,-197.5 1052.12,-203.5 1052.12,-203.5 1052.12,-261.5 1052.12,-261.5 1052.12,-267.5 1046.12,-273.5 1040.12,-273.5 1040.12,-273.5 753.88,-273.5 753.88,-273.5 747.88,-273.5 741.88,-267.5 741.88,-261.5 741.88,-261.5 741.88,-203.5 741.88,-203.5 741.88,-197.5 747.88,-191.5 753.88,-191.5"/>
<text text-anchor="middle" x="897" y="-256.2" font-family="Times New Roman,serif" font-size="14.00">data = Vedet matan </text>
<text text-anchor="middle" x="897" y="-239.7" font-family="Times New Roman,serif" font-size="14.00"> addr: 00000212e1af9010</text>
<polyline fill="none" stroke="#004b00" points="741.88,-232.5 1052.12,-232.5"/>
<text text-anchor="middle" x="821.5" y="-215.2" font-family="Times New Roman,serif" font-size="14.00">L:</text>
<text text-anchor="middle" x="821.5" y="-198.7" font-family="Times New Roman,serif" font-size="14.00"> addr: 0000000000000000</text>
<polyline fill="none" stroke="#004b00" points="901.12,-191.5 901.12,-232.5"/>
<text text-anchor="middle" x="976.62" y="-215.2" font-family="Times New Roman,serif" font-size="14.00">R: </text>
<text text-anchor="middle" x="976.62" y="-198.7" font-family="Times New Roman,serif" font-size="14.00"> addr: 00000212e1af8ff0</text>
</g>
<!-- node_00000212e1af9270&#45;&gt;node_00000212e1af9010 -->
<g id="edge15" class="edge">
<title>node_00000212e1af9270&#45;&gt;node_00000212e1af9010</title>
<path fill="none" stroke="#004b00" d="M680.37,-310.07C709.96,-299.61 741.97,-288.3 772.06,-277.66"/>
<polygon fill="#004b00" stroke="#004b00" points="772.93,-281.07 781.19,-274.43 770.6,-274.47 772.93,-281.07"/>
</g>
<!-- 4 -->
<g id="node9" class="node">
<title>4</title>
<ellipse fill="#fe5656" stroke="#581804" cx="1266" cy="-113.5" rx="18" ry="18"/>
<text text-anchor="middle" x="1266" y="-108.45" font-family="Times New Roman,serif" font-size="14.00">4</text>
</g>
<!-- 3&#45;&gt;4 -->
<g id="edge9" class="edge">
<title>3&#45;&gt;4</title>
<path fill="none" stroke="white" d="M1249.31,-224.87C1229.21,-206.69 1226.87,-155.67 1242.3,-129.86"/>
<polygon fill="white" stroke="white" points="1244.9,-132.22 1248.44,-122.23 1239.45,-127.83 1244.9,-132.22"/>
</g>
<!-- 3&#45;&gt;4 -->
<g id="edge12" class="edge">
<title>3&#45;&gt;4</title>
<path fill="none" stroke="white" d="M1253.08,-219.42C1244.69,-200.15 1243.5,-162.14 1249.51,-137.54"/>
<polygon fill="white" stroke="white" points="1252.8,-138.72 1252.56,-128.13 1246.15,-136.56 1252.8,-138.72"/>
</g>
<!-- 3&#45;&gt;4 -->
<g id="edge17" class="edge">
<title>3&#45;&gt;4</title>
<path fill="none" stroke="white" d="M1261.1,-214.74C1259.01,-195.88 1258.69,-164.96 1260.15,-142.44"/>
<polygon fill="white" stroke="white" points="1263.61,-143 1260.97,-132.74 1256.64,-142.41 1263.61,-143"/>
</g>
<!-- 3&#45;&gt;4 -->
<g id="edge20" class="edge">
<title>3&#45;&gt;4</title>
<path fill="none" stroke="white" d="M1270.9,-214.74C1272.99,-195.88 1273.31,-164.96 1271.85,-142.44"/>
<polygon fill="white" stroke="white" points="1275.36,-142.41 1271.03,-132.74 1268.39,-143 1275.36,-142.41"/>
</g>
<!-- 3&#45;&gt;4 -->
<g id="edge25" class="edge">
<title>3&#45;&gt;4</title>
<path fill="none" stroke="white" d="M1278.92,-219.42C1287.31,-200.15 1288.5,-162.14 1282.49,-137.54"/>
<polygon fill="white" stroke="white" points="1285.85,-136.56 1279.44,-128.13 1279.2,-138.72 1285.85,-136.56"/>
</g>
<!-- 3&#45;&gt;4 -->
<g id="edge28" class="edge">
<title>3&#45;&gt;4</title>
<path fill="none" stroke="white" d="M1282.69,-224.87C1302.79,-206.69 1305.13,-155.67 1289.7,-129.86"/>
<polygon fill="white" stroke="white" points="1292.55,-127.83 1283.56,-122.23 1287.1,-132.22 1292.55,-127.83"/>
</g>
<!-- node_l_null_00000212e1af9250 -->
<g id="node10" class="node">
<title>node_l_null_00000212e1af9250</title>
<ellipse fill="#a2f0f8" stroke="#007cff" cx="187" cy="-113.5" rx="27" ry="18"/>
<text text-anchor="middle" x="187" y="-108.45" font-family="Times New Roman,serif" font-size="14.00">null</text>
</g>
<!-- node_00000212e1af9250&#45;&gt;node_l_null_00000212e1af9250 -->
<g id="edge10" class="edge">
<title>node_00000212e1af9250&#45;&gt;node_l_null_00000212e1af9250</title>
<path fill="none" stroke="#007cff" d="M215.86,-191.24C209.72,-174.91 202.78,-156.47 197.25,-141.76"/>
<polygon fill="#007cff" stroke="#007cff" points="200.66,-140.88 193.87,-132.76 194.11,-143.35 200.66,-140.88"/>
</g>
<!-- node_r_null_00000212e1af9250 -->
<g id="node11" class="node">
<title>node_r_null_00000212e1af9250</title>
<ellipse fill="#a2f0f8" stroke="#007cff" cx="260" cy="-113.5" rx="27.81" ry="18"/>
<text text-anchor="middle" x="260" y="-108.45" font-family="Times New Roman,serif" font-size="14.00"> null</text>
</g>
<!-- node_00000212e1af9250&#45;&gt;node_r_null_00000212e1af9250 -->
<g id="edge11" class="edge">
<title>node_00000212e1af9250&#45;&gt;node_r_null_00000212e1af9250</title>
<path fill="none" stroke="#007cff" d="M240.98,-191.24C244.96,-175.17 249.45,-157.07 253.06,-142.48"/>
<polygon fill="#007cff" stroke="#007cff" points="256.38,-143.66 255.39,-133.11 249.58,-141.98 256.38,-143.66"/>
</g>
<!-- 5 -->
<g id="node16" class="node">
<title>5</title>
<ellipse fill="#fe5656" stroke="#581804" cx="1266" cy="-18" rx="18" ry="18"/>
<text text-anchor="middle" x="1266" y="-12.95" font-family="Times New Roman,serif" font-size="14.00">5</text>
</g>
<!-- 4&#45;&gt;5 -->
<g id="edge21" class="edge">
<title>4&#45;&gt;5</title>
<path fill="none" stroke="white" d="M1252.34,-101.41C1245.06,-86.51 1243.81,-59.7 1248.59,-40.71"/>
<polygon fill="white" stroke="white" points="1251.81,-42.1 1251.84,-31.51 1245.21,-39.77 1251.81,-42.1"/>
</g>
<!-- 4&#45;&gt;5 -->
<g id="edge24" class="edge">
<title>4&#45;&gt;5</title>
<path fill="none" stroke="white" d="M1260.68,-95.78C1259.16,-82.22 1258.85,-62.81 1259.76,-46.9"/>
<polygon fill="white" stroke="white" points="1263.24,-47.33 1260.58,-37.08 1256.26,-46.76 1263.24,-47.33"/>
</g>
<!-- 4&#45;&gt;5 -->
<g id="edge29" class="edge">
<title>4&#45;&gt;5</title>
<path fill="none" stroke="white" d="M1271.32,-95.78C1272.84,-82.22 1273.15,-62.81 1272.24,-46.9"/>
<polygon fill="white" stroke="white" points="1275.74,-46.76 1271.42,-37.08 1268.76,-47.33 1275.74,-46.76"/>
</g>
<!-- 4&#45;&gt;5 -->
<g id="edge32" class="edge">
<title>4&#45;&gt;5</title>
<path fill="none" stroke="white" d="M1279.66,-101.41C1286.94,-86.51 1288.19,-59.7 1283.41,-40.71"/>
<polygon fill="white" stroke="white" points="1286.79,-39.77 1280.16,-31.51 1280.19,-42.1 1286.79,-39.77"/>
</g>
<!-- node_00000212e1af9330 -->
<g id="node14" class="node">
<title>node_00000212e1af9330</title>
<path fill="#a2f8a4" stroke="#004b00" d="M382.75,-72.5C382.75,-72.5 677.25,-72.5 677.25,-72.5 683.25,-72.5 689.25,-78.5 689.25,-84.5 689.25,-84.5 689.25,-142.5 689.25,-142.5 689.25,-148.5 683.25,-154.5 677.25,-154.5 677.25,-154.5 382.75,-154.5 382.75,-154.5 376.75,-154.5 370.75,-148.5 370.75,-142.5 370.75,-142.5 370.75,-84.5 370.75,-84.5 370.75,-78.5 376.75,-72.5 382.75,-72.5"/>
<text text-anchor="middle" x="530" y="-137.2" font-family="Times New Roman,serif" font-size="14.00">data = Svinya </text>
<text text-anchor="middle" x="530" y="-120.7" font-family="Times New Roman,serif" font-size="14.00"> addr: 00000212e1af9330</text>
<polyline fill="none" stroke="#004b00" points="370.75,-113.5 689.25,-113.5"/>
<text text-anchor="middle" x="450.38" y="-96.2" font-family="Times New Roman,serif" font-size="14.00">L:</text>
<text text-anchor="middle" x="450.38" y="-79.7" font-family="Times New Roman,serif" font-size="14.00"> addr: 0000000000000000</text>
<polyline fill="none" stroke="#004b00" points="530,-72.5 530,-113.5"/>
<text text-anchor="middle" x="609.62" y="-96.2" font-family="Times New Roman,serif" font-size="14.00">R: </text>
<text text-anchor="middle" x="609.62" y="-79.7" font-family="Times New Roman,serif" font-size="14.00"> addr: 0000000000000000</text>
</g>
<!-- node_00000212e1af92b0&#45;&gt;node_00000212e1af9330 -->
<g id="edge18" class="edge">
<title>node_00000212e1af92b0&#45;&gt;node_00000212e1af9330</title>
<path fill="none" stroke="#004b00" d="M553.61,-191.24C551.09,-183.05 548.41,-174.34 545.8,-165.84"/>
<polygon fill="#004b00" stroke="#004b00" points="549.14,-164.81 542.86,-156.29 542.45,-166.87 549.14,-164.81"/>
</g>
<!-- node_r_null_00000212e1af92b0 -->
<g id="node15" class="node">
<title>node_r_null_00000212e1af92b0</title>
<ellipse fill="#a2f0f8" stroke="#007cff" cx="735" cy="-113.5" rx="27.81" ry="18"/>
<text text-anchor="middle" x="735" y="-108.45" font-family="Times New Roman,serif" font-size="14.00"> null</text>
</g>
<!-- node_00000212e1af92b0&#45;&gt;node_r_null_00000212e1af92b0 -->
<g id="edge19" class="edge">
<title>node_00000212e1af92b0&#45;&gt;node_r_null_00000212e1af92b0</title>
<path fill="none" stroke="#007cff" d="M644.67,-191.18C662.89,-180.43 681.7,-168.12 698,-155 704.18,-150.02 710.26,-144 715.64,-138.13"/>
<polygon fill="#007cff" stroke="#007cff" points="718,-140.75 721.97,-130.93 712.74,-136.13 718,-140.75"/>
</g>
<!-- node_l_null_00000212e1af9010 -->
<g id="node19" class="node">
<title>node_l_null_00000212e1af9010</title>
<ellipse fill="#a2f0f8" stroke="#007cff" cx="867" cy="-113.5" rx="27" ry="18"/>
<text text-anchor="middle" x="867" y="-108.45" font-family="Times New Roman,serif" font-size="14.00">null</text>
</g>
<!-- node_00000212e1af9010&#45;&gt;node_l_null_00000212e1af9010 -->
<g id="edge26" class="edge">
<title>node_00000212e1af9010&#45;&gt;node_l_null_00000212e1af9010</title>
<path fill="none" stroke="#007cff" d="M886.68,-191.24C882.56,-175.17 877.91,-157.07 874.17,-142.48"/>
<polygon fill="#007cff" stroke="#007cff" points="877.65,-141.93 871.77,-133.11 870.86,-143.66 877.65,-141.93"/>
</g>
<!-- node_00000212e1af8ff0 -->
<g id="node20" class="node">
<title>node_00000212e1af8ff0</title>
<path fill="#a2f8a4" stroke="#004b00" d="M923.75,-72.5C923.75,-72.5 1218.25,-72.5 1218.25,-72.5 1224.25,-72.5 1230.25,-78.5 1230.25,-84.5 1230.25,-84.5 1230.25,-142.5 1230.25,-142.5 1230.25,-148.5 1224.25,-154.5 1218.25,-154.5 1218.25,-154.5 923.75,-154.5 923.75,-154.5 917.75,-154.5 911.75,-148.5 911.75,-142.5 911.75,-142.5 911.75,-84.5 911.75,-84.5 911.75,-78.5 917.75,-72.5 923.75,-72.5"/>
<text text-anchor="middle" x="1071" y="-137.2" font-family="Times New Roman,serif" font-size="14.00">data = Ovchos </text>
<text text-anchor="middle" x="1071" y="-120.7" font-family="Times New Roman,serif" font-size="14.00"> addr: 00000212e1af8ff0</text>
<polyline fill="none" stroke="#004b00" points="911.75,-113.5 1230.25,-113.5"/>
<text text-anchor="middle" x="991.38" y="-96.2" font-family="Times New Roman,serif" font-size="14.00">L:</text>
<text text-anchor="middle" x="991.38" y="-79.7" font-family="Times New Roman,serif" font-size="14.00"> addr: 0000000000000000</text>
<polyline fill="none" stroke="#004b00" points="1071,-72.5 1071,-113.5"/>
<text text-anchor="middle" x="1150.62" y="-96.2" font-family="Times New Roman,serif" font-size="14.00">R: </text>
<text text-anchor="middle" x="1150.62" y="-79.7" font-family="Times New Roman,serif" font-size="14.00"> addr: 0000000000000000</text>
</g>
<!-- node_00000212e1af9010&#45;&gt;node_00000212e1af8ff0 -->
<g id="edge27" class="edge">
<title>node_00000212e1af9010&#45;&gt;node_00000212e1af8ff0</title>
<path fill="none" stroke="#004b00" d="M956.88,-191.24C971.37,-181.49 986.98,-171 1001.86,-160.99"/>
<polygon fill="#004b00" stroke="#004b00" points="1003.41,-164.17 1009.75,-155.68 999.5,-158.36 1003.41,-164.17"/>
</g>
<!-- node_l_null_00000212e1af9330 -->
<g id="node17" class="node">
<title>node_l_null_00000212e1af9330</title>
<ellipse fill="#a2f0f8" stroke="#007cff" cx="493" cy="-18" rx="27" ry="18"/>
<text text-anchor="middle" x="493" y="-12.95" font-family="Times New Roman,serif" font-size="14.00">null</text>
</g>
<!-- node_00000212e1af9330&#45;&gt;node_l_null_00000212e1af9330 -->
<g id="edge22" class="edge">
<title>node_00000212e1af9330&#45;&gt;node_l_null_00000212e1af9330</title>
<path fill="none" stroke="#007cff" d="M513.99,-72.03C510.54,-63.31 506.97,-54.29 503.77,-46.22"/>
<polygon fill="#007cff" stroke="#007cff" points="507.05,-44.99 500.11,-36.98 500.54,-47.56 507.05,-44.99"/>
</g>
<!-- node_r_null_00000212e1af9330 -->
<g id="node18" class="node">
<title>node_r_null_00000212e1af9330</title>
<ellipse fill="#a2f0f8" stroke="#007cff" cx="566" cy="-18" rx="27.81" ry="18"/>
<text text-anchor="middle" x="566" y="-12.95" font-family="Times New Roman,serif" font-size="14.00"> null</text>
</g>
<!-- node_00000212e1af9330&#45;&gt;node_r_null_00000212e1af9330 -->
<g id="edge23" class="edge">
<title>node_00000212e1af9330&#45;&gt;node_r_null_00000212e1af9330</title>
<path fill="none" stroke="#007cff" d="M545.58,-72.03C548.94,-63.31 552.41,-54.29 555.52,-46.22"/>
<polygon fill="#007cff" stroke="#007cff" points="558.75,-47.57 559.08,-36.98 552.22,-45.06 558.75,-47.57"/>
</g>
<!-- node_l_null_00000212e1af8ff0 -->
<g id="node21" class="node">
<title>node_l_null_00000212e1af8ff0</title>
<ellipse fill="#a2f0f8" stroke="#007cff" cx="1034" cy="-18" rx="27" ry="18"/>
<text text-anchor="middle" x="1034" y="-12.95" font-family="Times New Roman,serif" font-size="14.00">null</text>
</g>
<!-- node_00000212e1af8ff0&#45;&gt;node_l_null_00000212e1af8ff0 -->
<g id="edge30" class="edge">
<title>node_00000212e1af8ff0&#45;&gt;node_l_null_00000212e1af8ff0</title>
<path fill="none" stroke="#007cff" d="M1054.99,-72.03C1051.54,-63.31 1047.97,-54.29 1044.77,-46.22"/>
<polygon fill="#007cff" stroke="#007cff" points="1048.05,-44.99 1041.11,-36.98 1041.54,-47.56 1048.05,-44.99"/>
</g>
<!-- node_r_null_00000212e1af8ff0 -->
<g id="node22" class="node">
<title>node_r_null_00000212e1af8ff0</title>
<ellipse fill="#a2f0f8" stroke="#007cff" cx="1107" cy="-18" rx="27.81" ry="18"/>
<text text-anchor="middle" x="1107" y="-12.95" font-family="Times New Roman,serif" font-size="14.00"> null</text>
</g>
<!-- node_00000212e1af8ff0&#45;&gt;node_r_null_00000212e1af8ff0 -->
<g id="edge31" class="edge">
<title>node_00000212e1af8ff0&#45;&gt;node_r_null_00000212e1af8ff0</title>
<path fill="none" stroke="#007cff" d="M1086.58,-72.03C1089.94,-63.31 1093.41,-54.29 1096.52,-46.22"/>
<polygon fill="#007cff" stroke="#007cff" points="1099.75,-47.57 1100.08,-36.98 1093.22,-45.06 1099.75,-47.57"/>
</g>
</g>
</svg>
