<?xml version="1.0" encoding="UTF-8" standalone="no"?>
<!DOCTYPE svg PUBLIC "-//W3C//DTD SVG 1.1//EN"
 "http://www.w3.org/Graphics/SVG/1.1/DTD/svg11.dtd">
<!-- Generated by graphviz version 12.2.0 (20241103.1931)
 -->
<!-- Pages: 1 -->
<svg width="1105pt" height="401pt"
 viewBox="0.00 0.00 1104.95 401.00" xmlns="http://www.w3.org/2000/svg" xmlns:xlink="http://www.w3.org/1999/xlink">
<g id="graph0" class="graph" transform="scale(1 1) rotate(0) translate(4 397)">
<polygon fill="white" stroke="none" points="-4,4 -4,-397 1100.95,-397 1100.95,4 -4,4"/>
<!-- node_000001e217029230 -->
<g id="node1" class="node">
<title>node_000001e217029230</title>
<path fill="#ffa615" stroke="#004b00" d="M567.75,-310.5C567.75,-310.5 860.75,-310.5 860.75,-310.5 866.75,-310.5 872.75,-316.5 872.75,-322.5 872.75,-322.5 872.75,-380.5 872.75,-380.5 872.75,-386.5 866.75,-392.5 860.75,-392.5 860.75,-392.5 567.75,-392.5 567.75,-392.5 561.75,-392.5 555.75,-386.5 555.75,-380.5 555.75,-380.5 555.75,-322.5 555.75,-322.5 555.75,-316.5 561.75,-310.5 567.75,-310.5"/>
<text text-anchor="middle" x="714.25" y="-375.2" font-family="Times New Roman,serif" font-size="14.00">data = Akinator </text>
<text text-anchor="middle" x="714.25" y="-358.7" font-family="Times New Roman,serif" font-size="14.00"> addr: 000001e217029230</text>
<polyline fill="none" stroke="#004b00" points="555.75,-351.5 872.75,-351.5"/>
<text text-anchor="middle" x="635" y="-334.2" font-family="Times New Roman,serif" font-size="14.00">L:</text>
<text text-anchor="middle" x="635" y="-317.7" font-family="Times New Roman,serif" font-size="14.00"> addr: 000001e2170290d0</text>
<polyline fill="none" stroke="#004b00" points="714.25,-310.5 714.25,-351.5"/>
<text text-anchor="middle" x="793.5" y="-334.2" font-family="Times New Roman,serif" font-size="14.00">R: </text>
<text text-anchor="middle" x="793.5" y="-317.7" font-family="Times New Roman,serif" font-size="14.00"> addr: 000001e217029250</text>
</g>
<!-- node_000001e2170290d0 -->
<g id="node4" class="node">
<title>node_000001e2170290d0</title>
<path fill="#a2f8a4" stroke="#004b00" d="M317.88,-191.5C317.88,-191.5 608.62,-191.5 608.62,-191.5 614.62,-191.5 620.62,-197.5 620.62,-203.5 620.62,-203.5 620.62,-261.5 620.62,-261.5 620.62,-267.5 614.62,-273.5 608.62,-273.5 608.62,-273.5 317.88,-273.5 317.88,-273.5 311.88,-273.5 305.88,-267.5 305.88,-261.5 305.88,-261.5 305.88,-203.5 305.88,-203.5 305.88,-197.5 311.88,-191.5 317.88,-191.5"/>
<text text-anchor="middle" x="463.25" y="-256.2" font-family="Times New Roman,serif" font-size="14.00">data = YES_YES </text>
<text text-anchor="middle" x="463.25" y="-239.7" font-family="Times New Roman,serif" font-size="14.00"> addr: 000001e2170290d0</text>
<polyline fill="none" stroke="#004b00" points="305.88,-232.5 620.62,-232.5"/>
<text text-anchor="middle" x="384" y="-215.2" font-family="Times New Roman,serif" font-size="14.00">L:</text>
<text text-anchor="middle" x="384" y="-198.7" font-family="Times New Roman,serif" font-size="14.00"> addr: 000001e2170290f0</text>
<polyline fill="none" stroke="#004b00" points="462.12,-191.5 462.12,-232.5"/>
<text text-anchor="middle" x="541.38" y="-215.2" font-family="Times New Roman,serif" font-size="14.00">R: </text>
<text text-anchor="middle" x="541.38" y="-198.7" font-family="Times New Roman,serif" font-size="14.00"> addr: 000001e217029050</text>
</g>
<!-- node_000001e217029230&#45;&gt;node_000001e2170290d0 -->
<g id="edge2" class="edge">
<title>node_000001e217029230&#45;&gt;node_000001e2170290d0</title>
<path fill="none" stroke="#004b00" d="M627.52,-310.07C605.87,-299.98 582.51,-289.09 560.39,-278.78"/>
<polygon fill="#004b00" stroke="#004b00" points="561.9,-275.62 551.36,-274.57 558.94,-281.97 561.9,-275.62"/>
</g>
<!-- node_000001e217029250 -->
<g id="node5" class="node">
<title>node_000001e217029250</title>
<path fill="#a2f8a4" stroke="#004b00" d="M651,-191.5C651,-191.5 945.5,-191.5 945.5,-191.5 951.5,-191.5 957.5,-197.5 957.5,-203.5 957.5,-203.5 957.5,-261.5 957.5,-261.5 957.5,-267.5 951.5,-273.5 945.5,-273.5 945.5,-273.5 651,-273.5 651,-273.5 645,-273.5 639,-267.5 639,-261.5 639,-261.5 639,-203.5 639,-203.5 639,-197.5 645,-191.5 651,-191.5"/>
<text text-anchor="middle" x="798.25" y="-256.2" font-family="Times New Roman,serif" font-size="14.00">data = NO NO </text>
<text text-anchor="middle" x="798.25" y="-239.7" font-family="Times New Roman,serif" font-size="14.00"> addr: 000001e217029250</text>
<polyline fill="none" stroke="#004b00" points="639,-232.5 957.5,-232.5"/>
<text text-anchor="middle" x="718.62" y="-215.2" font-family="Times New Roman,serif" font-size="14.00">L:</text>
<text text-anchor="middle" x="718.62" y="-198.7" font-family="Times New Roman,serif" font-size="14.00"> addr: 0000000000000000</text>
<polyline fill="none" stroke="#004b00" points="798.25,-191.5 798.25,-232.5"/>
<text text-anchor="middle" x="877.88" y="-215.2" font-family="Times New Roman,serif" font-size="14.00">R: </text>
<text text-anchor="middle" x="877.88" y="-198.7" font-family="Times New Roman,serif" font-size="14.00"> addr: 0000000000000000</text>
</g>
<!-- node_000001e217029230&#45;&gt;node_000001e217029250 -->
<g id="edge3" class="edge">
<title>node_000001e217029230&#45;&gt;node_000001e217029250</title>
<path fill="none" stroke="#004b00" d="M743.16,-310.24C749.43,-301.5 756.13,-292.17 762.62,-283.12"/>
<polygon fill="#004b00" stroke="#004b00" points="765.42,-285.23 768.41,-275.07 759.73,-281.15 765.42,-285.23"/>
</g>
<!-- 1 -->
<g id="node2" class="node">
<title>1</title>
<ellipse fill="#fe5656" stroke="#581804" cx="1076.25" cy="-351.5" rx="18" ry="18"/>
<text text-anchor="middle" x="1076.25" y="-346.45" font-family="Times New Roman,serif" font-size="14.00">1</text>
</g>
<!-- 2 -->
<g id="node3" class="node">
<title>2</title>
<ellipse fill="#fe5656" stroke="#581804" cx="1076.25" cy="-232.5" rx="18" ry="18"/>
<text text-anchor="middle" x="1076.25" y="-227.45" font-family="Times New Roman,serif" font-size="14.00">2</text>
</g>
<!-- 1&#45;&gt;2 -->
<g id="edge1" class="edge">
<title>1&#45;&gt;2</title>
<path fill="none" stroke="white" d="M1071.35,-333.74C1069.26,-314.88 1068.94,-283.96 1070.4,-261.44"/>
<polygon fill="white" stroke="white" points="1073.86,-262 1071.22,-251.74 1066.89,-261.41 1073.86,-262"/>
</g>
<!-- 1&#45;&gt;2 -->
<g id="edge4" class="edge">
<title>1&#45;&gt;2</title>
<path fill="none" stroke="white" d="M1081.15,-333.74C1083.24,-314.88 1083.56,-283.96 1082.1,-261.44"/>
<polygon fill="white" stroke="white" points="1085.61,-261.41 1081.28,-251.74 1078.64,-262 1085.61,-261.41"/>
</g>
<!-- 3 -->
<g id="node6" class="node">
<title>3</title>
<ellipse fill="#fe5656" stroke="#581804" cx="1076.25" cy="-113.5" rx="18" ry="18"/>
<text text-anchor="middle" x="1076.25" y="-108.45" font-family="Times New Roman,serif" font-size="14.00">3</text>
</g>
<!-- 2&#45;&gt;3 -->
<g id="edge5" class="edge">
<title>2&#45;&gt;3</title>
<path fill="none" stroke="white" d="M1063.33,-219.42C1054.94,-200.15 1053.75,-162.14 1059.76,-137.54"/>
<polygon fill="white" stroke="white" points="1063.05,-138.72 1062.81,-128.13 1056.4,-136.56 1063.05,-138.72"/>
</g>
<!-- 2&#45;&gt;3 -->
<g id="edge8" class="edge">
<title>2&#45;&gt;3</title>
<path fill="none" stroke="white" d="M1071.35,-214.74C1069.26,-195.88 1068.94,-164.96 1070.4,-142.44"/>
<polygon fill="white" stroke="white" points="1073.86,-143 1071.22,-132.74 1066.89,-142.41 1073.86,-143"/>
</g>
<!-- 2&#45;&gt;3 -->
<g id="edge17" class="edge">
<title>2&#45;&gt;3</title>
<path fill="none" stroke="white" d="M1081.15,-214.74C1083.24,-195.88 1083.56,-164.96 1082.1,-142.44"/>
<polygon fill="white" stroke="white" points="1085.61,-142.41 1081.28,-132.74 1078.64,-143 1085.61,-142.41"/>
</g>
<!-- 2&#45;&gt;3 -->
<g id="edge20" class="edge">
<title>2&#45;&gt;3</title>
<path fill="none" stroke="white" d="M1089.17,-219.42C1097.56,-200.15 1098.75,-162.14 1092.74,-137.54"/>
<polygon fill="white" stroke="white" points="1096.1,-136.56 1089.69,-128.13 1089.45,-138.72 1096.1,-136.56"/>
</g>
<!-- node_000001e2170290f0 -->
<g id="node7" class="node">
<title>node_000001e2170290f0</title>
<path fill="#a2f8a4" stroke="#004b00" d="M12,-72.5C12,-72.5 306.5,-72.5 306.5,-72.5 312.5,-72.5 318.5,-78.5 318.5,-84.5 318.5,-84.5 318.5,-142.5 318.5,-142.5 318.5,-148.5 312.5,-154.5 306.5,-154.5 306.5,-154.5 12,-154.5 12,-154.5 6,-154.5 0,-148.5 0,-142.5 0,-142.5 0,-84.5 0,-84.5 0,-78.5 6,-72.5 12,-72.5"/>
<text text-anchor="middle" x="159.25" y="-137.2" font-family="Times New Roman,serif" font-size="14.00">data = RERE </text>
<text text-anchor="middle" x="159.25" y="-120.7" font-family="Times New Roman,serif" font-size="14.00"> addr: 000001e2170290f0</text>
<polyline fill="none" stroke="#004b00" points="0,-113.5 318.5,-113.5"/>
<text text-anchor="middle" x="79.62" y="-96.2" font-family="Times New Roman,serif" font-size="14.00">L:</text>
<text text-anchor="middle" x="79.62" y="-79.7" font-family="Times New Roman,serif" font-size="14.00"> addr: 0000000000000000</text>
<polyline fill="none" stroke="#004b00" points="159.25,-72.5 159.25,-113.5"/>
<text text-anchor="middle" x="238.88" y="-96.2" font-family="Times New Roman,serif" font-size="14.00">R: </text>
<text text-anchor="middle" x="238.88" y="-79.7" font-family="Times New Roman,serif" font-size="14.00"> addr: 0000000000000000</text>
</g>
<!-- node_000001e2170290d0&#45;&gt;node_000001e2170290f0 -->
<g id="edge6" class="edge">
<title>node_000001e2170290d0&#45;&gt;node_000001e2170290f0</title>
<path fill="none" stroke="#004b00" d="M358.2,-191.07C331.27,-180.7 302.15,-169.5 274.72,-158.94"/>
<polygon fill="#004b00" stroke="#004b00" points="276.3,-155.8 265.71,-155.47 273.79,-162.33 276.3,-155.8"/>
</g>
<!-- node_000001e217029050 -->
<g id="node8" class="node">
<title>node_000001e217029050</title>
<path fill="#a2f8a4" stroke="#004b00" d="M349,-72.5C349,-72.5 643.5,-72.5 643.5,-72.5 649.5,-72.5 655.5,-78.5 655.5,-84.5 655.5,-84.5 655.5,-142.5 655.5,-142.5 655.5,-148.5 649.5,-154.5 643.5,-154.5 643.5,-154.5 349,-154.5 349,-154.5 343,-154.5 337,-148.5 337,-142.5 337,-142.5 337,-84.5 337,-84.5 337,-78.5 343,-72.5 349,-72.5"/>
<text text-anchor="middle" x="496.25" y="-137.2" font-family="Times New Roman,serif" font-size="14.00">data = ERER </text>
<text text-anchor="middle" x="496.25" y="-120.7" font-family="Times New Roman,serif" font-size="14.00"> addr: 000001e217029050</text>
<polyline fill="none" stroke="#004b00" points="337,-113.5 655.5,-113.5"/>
<text text-anchor="middle" x="416.62" y="-96.2" font-family="Times New Roman,serif" font-size="14.00">L:</text>
<text text-anchor="middle" x="416.62" y="-79.7" font-family="Times New Roman,serif" font-size="14.00"> addr: 0000000000000000</text>
<polyline fill="none" stroke="#004b00" points="496.25,-72.5 496.25,-113.5"/>
<text text-anchor="middle" x="575.88" y="-96.2" font-family="Times New Roman,serif" font-size="14.00">R: </text>
<text text-anchor="middle" x="575.88" y="-79.7" font-family="Times New Roman,serif" font-size="14.00"> addr: 0000000000000000</text>
</g>
<!-- node_000001e2170290d0&#45;&gt;node_000001e217029050 -->
<g id="edge7" class="edge">
<title>node_000001e2170290d0&#45;&gt;node_000001e217029050</title>
<path fill="none" stroke="#004b00" d="M474.61,-191.24C476.91,-183.05 479.37,-174.34 481.77,-165.84"/>
<polygon fill="#004b00" stroke="#004b00" points="485.12,-166.87 484.46,-156.3 478.38,-164.97 485.12,-166.87"/>
</g>
<!-- node_l_null_000001e217029250 -->
<g id="node14" class="node">
<title>node_l_null_000001e217029250</title>
<ellipse fill="#a2f0f8" stroke="#007cff" cx="765.25" cy="-113.5" rx="27" ry="18"/>
<text text-anchor="middle" x="765.25" y="-108.45" font-family="Times New Roman,serif" font-size="14.00">null</text>
</g>
<!-- node_000001e217029250&#45;&gt;node_l_null_000001e217029250 -->
<g id="edge18" class="edge">
<title>node_000001e217029250&#45;&gt;node_l_null_000001e217029250</title>
<path fill="none" stroke="#007cff" d="M786.89,-191.24C782.36,-175.17 777.26,-157.07 773.14,-142.48"/>
<polygon fill="#007cff" stroke="#007cff" points="776.58,-141.77 770.5,-133.1 769.84,-143.67 776.58,-141.77"/>
</g>
<!-- node_r_null_000001e217029250 -->
<g id="node15" class="node">
<title>node_r_null_000001e217029250</title>
<ellipse fill="#a2f0f8" stroke="#007cff" cx="838.25" cy="-113.5" rx="27.81" ry="18"/>
<text text-anchor="middle" x="838.25" y="-108.45" font-family="Times New Roman,serif" font-size="14.00"> null</text>
</g>
<!-- node_000001e217029250&#45;&gt;node_r_null_000001e217029250 -->
<g id="edge19" class="edge">
<title>node_000001e217029250&#45;&gt;node_r_null_000001e217029250</title>
<path fill="none" stroke="#007cff" d="M812.02,-191.24C817.54,-175.07 823.78,-156.83 828.78,-142.2"/>
<polygon fill="#007cff" stroke="#007cff" points="832.08,-143.37 832,-132.77 825.46,-141.1 832.08,-143.37"/>
</g>
<!-- 4 -->
<g id="node9" class="node">
<title>4</title>
<ellipse fill="#fe5656" stroke="#581804" cx="1076.25" cy="-18" rx="18" ry="18"/>
<text text-anchor="middle" x="1076.25" y="-12.95" font-family="Times New Roman,serif" font-size="14.00">4</text>
</g>
<!-- 3&#45;&gt;4 -->
<g id="edge9" class="edge">
<title>3&#45;&gt;4</title>
<path fill="none" stroke="white" d="M1062.59,-101.41C1055.31,-86.51 1054.06,-59.7 1058.84,-40.71"/>
<polygon fill="white" stroke="white" points="1062.06,-42.1 1062.09,-31.51 1055.46,-39.77 1062.06,-42.1"/>
</g>
<!-- 3&#45;&gt;4 -->
<g id="edge12" class="edge">
<title>3&#45;&gt;4</title>
<path fill="none" stroke="white" d="M1070.93,-95.78C1069.41,-82.22 1069.1,-62.81 1070.01,-46.9"/>
<polygon fill="white" stroke="white" points="1073.49,-47.33 1070.83,-37.08 1066.51,-46.76 1073.49,-47.33"/>
</g>
<!-- 3&#45;&gt;4 -->
<g id="edge13" class="edge">
<title>3&#45;&gt;4</title>
<path fill="none" stroke="white" d="M1081.57,-95.78C1083.09,-82.22 1083.4,-62.81 1082.49,-46.9"/>
<polygon fill="white" stroke="white" points="1085.99,-46.76 1081.67,-37.08 1079.01,-47.33 1085.99,-46.76"/>
</g>
<!-- 3&#45;&gt;4 -->
<g id="edge16" class="edge">
<title>3&#45;&gt;4</title>
<path fill="none" stroke="white" d="M1089.91,-101.41C1097.19,-86.51 1098.44,-59.7 1093.66,-40.71"/>
<polygon fill="white" stroke="white" points="1097.04,-39.77 1090.41,-31.51 1090.44,-42.1 1097.04,-39.77"/>
</g>
<!-- node_l_null_000001e2170290f0 -->
<g id="node10" class="node">
<title>node_l_null_000001e2170290f0</title>
<ellipse fill="#a2f0f8" stroke="#007cff" cx="123.25" cy="-18" rx="27" ry="18"/>
<text text-anchor="middle" x="123.25" y="-12.95" font-family="Times New Roman,serif" font-size="14.00">null</text>
</g>
<!-- node_000001e2170290f0&#45;&gt;node_l_null_000001e2170290f0 -->
<g id="edge10" class="edge">
<title>node_000001e2170290f0&#45;&gt;node_l_null_000001e2170290f0</title>
<path fill="none" stroke="#007cff" d="M143.67,-72.03C140.31,-63.31 136.84,-54.29 133.73,-46.22"/>
<polygon fill="#007cff" stroke="#007cff" points="137.03,-45.06 130.17,-36.98 130.5,-47.57 137.03,-45.06"/>
</g>
<!-- node_r_null_000001e2170290f0 -->
<g id="node11" class="node">
<title>node_r_null_000001e2170290f0</title>
<ellipse fill="#a2f0f8" stroke="#007cff" cx="196.25" cy="-18" rx="27.81" ry="18"/>
<text text-anchor="middle" x="196.25" y="-12.95" font-family="Times New Roman,serif" font-size="14.00"> null</text>
</g>
<!-- node_000001e2170290f0&#45;&gt;node_r_null_000001e2170290f0 -->
<g id="edge11" class="edge">
<title>node_000001e2170290f0&#45;&gt;node_r_null_000001e2170290f0</title>
<path fill="none" stroke="#007cff" d="M175.26,-72.03C178.71,-63.31 182.28,-54.29 185.48,-46.22"/>
<polygon fill="#007cff" stroke="#007cff" points="188.71,-47.56 189.14,-36.98 182.2,-44.99 188.71,-47.56"/>
</g>
<!-- node_l_null_000001e217029050 -->
<g id="node12" class="node">
<title>node_l_null_000001e217029050</title>
<ellipse fill="#a2f0f8" stroke="#007cff" cx="459.25" cy="-18" rx="27" ry="18"/>
<text text-anchor="middle" x="459.25" y="-12.95" font-family="Times New Roman,serif" font-size="14.00">null</text>
</g>
<!-- node_000001e217029050&#45;&gt;node_l_null_000001e217029050 -->
<g id="edge14" class="edge">
<title>node_000001e217029050&#45;&gt;node_l_null_000001e217029050</title>
<path fill="none" stroke="#007cff" d="M480.24,-72.03C476.79,-63.31 473.22,-54.29 470.02,-46.22"/>
<polygon fill="#007cff" stroke="#007cff" points="473.3,-44.99 466.36,-36.98 466.79,-47.56 473.3,-44.99"/>
</g>
<!-- node_r_null_000001e217029050 -->
<g id="node13" class="node">
<title>node_r_null_000001e217029050</title>
<ellipse fill="#a2f0f8" stroke="#007cff" cx="532.25" cy="-18" rx="27.81" ry="18"/>
<text text-anchor="middle" x="532.25" y="-12.95" font-family="Times New Roman,serif" font-size="14.00"> null</text>
</g>
<!-- node_000001e217029050&#45;&gt;node_r_null_000001e217029050 -->
<g id="edge15" class="edge">
<title>node_000001e217029050&#45;&gt;node_r_null_000001e217029050</title>
<path fill="none" stroke="#007cff" d="M511.83,-72.03C515.19,-63.31 518.66,-54.29 521.77,-46.22"/>
<polygon fill="#007cff" stroke="#007cff" points="525,-47.57 525.33,-36.98 518.47,-45.06 525,-47.57"/>
</g>
</g>
</svg>
