<?xml version="1.0" encoding="UTF-8" standalone="no"?>
<!DOCTYPE svg PUBLIC "-//W3C//DTD SVG 1.1//EN"
 "http://www.w3.org/Graphics/SVG/1.1/DTD/svg11.dtd">
<!-- Generated by graphviz version 12.2.0 (20241103.1931)
 -->
<!-- Pages: 1 -->
<svg width="1009pt" height="401pt"
 viewBox="0.00 0.00 1008.95 401.00" xmlns="http://www.w3.org/2000/svg" xmlns:xlink="http://www.w3.org/1999/xlink">
<g id="graph0" class="graph" transform="scale(1 1) rotate(0) translate(4 397)">
<polygon fill="white" stroke="none" points="-4,4 -4,-397 1004.95,-397 1004.95,4 -4,4"/>
<!-- node_00000298495591d0 -->
<g id="node1" class="node">
<title>node_00000298495591d0</title>
<path fill="#ffa615" stroke="#004b00" d="M181,-310.5C181,-310.5 475.5,-310.5 475.5,-310.5 481.5,-310.5 487.5,-316.5 487.5,-322.5 487.5,-322.5 487.5,-380.5 487.5,-380.5 487.5,-386.5 481.5,-392.5 475.5,-392.5 475.5,-392.5 181,-392.5 181,-392.5 175,-392.5 169,-386.5 169,-380.5 169,-380.5 169,-322.5 169,-322.5 169,-316.5 175,-310.5 181,-310.5"/>
<text text-anchor="middle" x="328.25" y="-375.2" font-family="Times New Roman,serif" font-size="14.00">data = Akinator </text>
<text text-anchor="middle" x="328.25" y="-358.7" font-family="Times New Roman,serif" font-size="14.00"> addr: 00000298495591d0</text>
<polyline fill="none" stroke="#004b00" points="169,-351.5 487.5,-351.5"/>
<text text-anchor="middle" x="248.62" y="-334.2" font-family="Times New Roman,serif" font-size="14.00">L:</text>
<text text-anchor="middle" x="248.62" y="-317.7" font-family="Times New Roman,serif" font-size="14.00"> addr: 0000029849559190</text>
<polyline fill="none" stroke="#004b00" points="328.25,-310.5 328.25,-351.5"/>
<text text-anchor="middle" x="407.88" y="-334.2" font-family="Times New Roman,serif" font-size="14.00">R: </text>
<text text-anchor="middle" x="407.88" y="-317.7" font-family="Times New Roman,serif" font-size="14.00"> addr: 00000298495590b0</text>
</g>
<!-- node_0000029849559190 -->
<g id="node4" class="node">
<title>node_0000029849559190</title>
<path fill="#a2f8a4" stroke="#004b00" d="M12,-191.5C12,-191.5 306.5,-191.5 306.5,-191.5 312.5,-191.5 318.5,-197.5 318.5,-203.5 318.5,-203.5 318.5,-261.5 318.5,-261.5 318.5,-267.5 312.5,-273.5 306.5,-273.5 306.5,-273.5 12,-273.5 12,-273.5 6,-273.5 0,-267.5 0,-261.5 0,-261.5 0,-203.5 0,-203.5 0,-197.5 6,-191.5 12,-191.5"/>
<text text-anchor="middle" x="159.25" y="-256.2" font-family="Times New Roman,serif" font-size="14.00">data = YES_YES </text>
<text text-anchor="middle" x="159.25" y="-239.7" font-family="Times New Roman,serif" font-size="14.00"> addr: 0000029849559190</text>
<polyline fill="none" stroke="#004b00" points="0,-232.5 318.5,-232.5"/>
<text text-anchor="middle" x="79.62" y="-215.2" font-family="Times New Roman,serif" font-size="14.00">L:</text>
<text text-anchor="middle" x="79.62" y="-198.7" font-family="Times New Roman,serif" font-size="14.00"> addr: 0000000000000000</text>
<polyline fill="none" stroke="#004b00" points="159.25,-191.5 159.25,-232.5"/>
<text text-anchor="middle" x="238.88" y="-215.2" font-family="Times New Roman,serif" font-size="14.00">R: </text>
<text text-anchor="middle" x="238.88" y="-198.7" font-family="Times New Roman,serif" font-size="14.00"> addr: 0000000000000000</text>
</g>
<!-- node_00000298495591d0&#45;&gt;node_0000029849559190 -->
<g id="edge2" class="edge">
<title>node_00000298495591d0&#45;&gt;node_0000029849559190</title>
<path fill="none" stroke="#004b00" d="M270.09,-310.24C256.15,-300.58 241.14,-290.2 226.82,-280.28"/>
<polygon fill="#004b00" stroke="#004b00" points="228.98,-277.51 218.76,-274.7 224.99,-283.27 228.98,-277.51"/>
</g>
<!-- node_00000298495590b0 -->
<g id="node5" class="node">
<title>node_00000298495590b0</title>
<path fill="#a2f8a4" stroke="#004b00" d="M349,-191.5C349,-191.5 643.5,-191.5 643.5,-191.5 649.5,-191.5 655.5,-197.5 655.5,-203.5 655.5,-203.5 655.5,-261.5 655.5,-261.5 655.5,-267.5 649.5,-273.5 643.5,-273.5 643.5,-273.5 349,-273.5 349,-273.5 343,-273.5 337,-267.5 337,-261.5 337,-261.5 337,-203.5 337,-203.5 337,-197.5 343,-191.5 349,-191.5"/>
<text text-anchor="middle" x="496.25" y="-256.2" font-family="Times New Roman,serif" font-size="14.00">data = wefd </text>
<text text-anchor="middle" x="496.25" y="-239.7" font-family="Times New Roman,serif" font-size="14.00"> addr: 00000298495590b0</text>
<polyline fill="none" stroke="#004b00" points="337,-232.5 655.5,-232.5"/>
<text text-anchor="middle" x="416.62" y="-215.2" font-family="Times New Roman,serif" font-size="14.00">L:</text>
<text text-anchor="middle" x="416.62" y="-198.7" font-family="Times New Roman,serif" font-size="14.00"> addr: 00000298495590d0</text>
<polyline fill="none" stroke="#004b00" points="496.25,-191.5 496.25,-232.5"/>
<text text-anchor="middle" x="575.88" y="-215.2" font-family="Times New Roman,serif" font-size="14.00">R: </text>
<text text-anchor="middle" x="575.88" y="-198.7" font-family="Times New Roman,serif" font-size="14.00"> addr: 00000298495591b0</text>
</g>
<!-- node_00000298495591d0&#45;&gt;node_00000298495590b0 -->
<g id="edge3" class="edge">
<title>node_00000298495591d0&#45;&gt;node_00000298495590b0</title>
<path fill="none" stroke="#004b00" d="M386.07,-310.24C399.93,-300.58 414.84,-290.2 429.08,-280.28"/>
<polygon fill="#004b00" stroke="#004b00" points="430.88,-283.29 437.09,-274.7 426.88,-277.55 430.88,-283.29"/>
</g>
<!-- 1 -->
<g id="node2" class="node">
<title>1</title>
<ellipse fill="#fe5656" stroke="#581804" cx="980.25" cy="-351.5" rx="18" ry="18"/>
<text text-anchor="middle" x="980.25" y="-346.45" font-family="Times New Roman,serif" font-size="14.00">1</text>
</g>
<!-- 2 -->
<g id="node3" class="node">
<title>2</title>
<ellipse fill="#fe5656" stroke="#581804" cx="980.25" cy="-232.5" rx="18" ry="18"/>
<text text-anchor="middle" x="980.25" y="-227.45" font-family="Times New Roman,serif" font-size="14.00">2</text>
</g>
<!-- 1&#45;&gt;2 -->
<g id="edge1" class="edge">
<title>1&#45;&gt;2</title>
<path fill="none" stroke="white" d="M975.35,-333.74C973.26,-314.88 972.94,-283.96 974.4,-261.44"/>
<polygon fill="white" stroke="white" points="977.86,-262 975.22,-251.74 970.89,-261.41 977.86,-262"/>
</g>
<!-- 1&#45;&gt;2 -->
<g id="edge4" class="edge">
<title>1&#45;&gt;2</title>
<path fill="none" stroke="white" d="M985.15,-333.74C987.24,-314.88 987.56,-283.96 986.1,-261.44"/>
<polygon fill="white" stroke="white" points="989.61,-261.41 985.28,-251.74 982.64,-262 989.61,-261.41"/>
</g>
<!-- 3 -->
<g id="node6" class="node">
<title>3</title>
<ellipse fill="#fe5656" stroke="#581804" cx="980.25" cy="-113.5" rx="18" ry="18"/>
<text text-anchor="middle" x="980.25" y="-108.45" font-family="Times New Roman,serif" font-size="14.00">3</text>
</g>
<!-- 2&#45;&gt;3 -->
<g id="edge5" class="edge">
<title>2&#45;&gt;3</title>
<path fill="none" stroke="white" d="M967.33,-219.42C958.94,-200.15 957.75,-162.14 963.76,-137.54"/>
<polygon fill="white" stroke="white" points="967.05,-138.72 966.81,-128.13 960.4,-136.56 967.05,-138.72"/>
</g>
<!-- 2&#45;&gt;3 -->
<g id="edge8" class="edge">
<title>2&#45;&gt;3</title>
<path fill="none" stroke="white" d="M975.35,-214.74C973.26,-195.88 972.94,-164.96 974.4,-142.44"/>
<polygon fill="white" stroke="white" points="977.86,-143 975.22,-132.74 970.89,-142.41 977.86,-143"/>
</g>
<!-- 2&#45;&gt;3 -->
<g id="edge9" class="edge">
<title>2&#45;&gt;3</title>
<path fill="none" stroke="white" d="M985.15,-214.74C987.24,-195.88 987.56,-164.96 986.1,-142.44"/>
<polygon fill="white" stroke="white" points="989.61,-142.41 985.28,-132.74 982.64,-143 989.61,-142.41"/>
</g>
<!-- 2&#45;&gt;3 -->
<g id="edge12" class="edge">
<title>2&#45;&gt;3</title>
<path fill="none" stroke="white" d="M993.17,-219.42C1001.56,-200.15 1002.75,-162.14 996.74,-137.54"/>
<polygon fill="white" stroke="white" points="1000.1,-136.56 993.69,-128.13 993.45,-138.72 1000.1,-136.56"/>
</g>
<!-- node_l_null_0000029849559190 -->
<g id="node7" class="node">
<title>node_l_null_0000029849559190</title>
<ellipse fill="#a2f0f8" stroke="#007cff" cx="122.25" cy="-113.5" rx="27" ry="18"/>
<text text-anchor="middle" x="122.25" y="-108.45" font-family="Times New Roman,serif" font-size="14.00">null</text>
</g>
<!-- node_0000029849559190&#45;&gt;node_l_null_0000029849559190 -->
<g id="edge6" class="edge">
<title>node_0000029849559190&#45;&gt;node_l_null_0000029849559190</title>
<path fill="none" stroke="#007cff" d="M146.52,-191.24C141.4,-175.07 135.64,-156.83 131.01,-142.2"/>
<polygon fill="#007cff" stroke="#007cff" points="134.38,-141.26 128.03,-132.78 127.71,-143.37 134.38,-141.26"/>
</g>
<!-- node_r_null_0000029849559190 -->
<g id="node8" class="node">
<title>node_r_null_0000029849559190</title>
<ellipse fill="#a2f0f8" stroke="#007cff" cx="195.25" cy="-113.5" rx="27.81" ry="18"/>
<text text-anchor="middle" x="195.25" y="-108.45" font-family="Times New Roman,serif" font-size="14.00"> null</text>
</g>
<!-- node_0000029849559190&#45;&gt;node_r_null_0000029849559190 -->
<g id="edge7" class="edge">
<title>node_0000029849559190&#45;&gt;node_r_null_0000029849559190</title>
<path fill="none" stroke="#007cff" d="M171.64,-191.24C176.58,-175.17 182.15,-157.07 186.64,-142.48"/>
<polygon fill="#007cff" stroke="#007cff" points="189.93,-143.68 189.53,-133.09 183.24,-141.62 189.93,-143.68"/>
</g>
<!-- node_00000298495590d0 -->
<g id="node9" class="node">
<title>node_00000298495590d0</title>
<path fill="#a2f8a4" stroke="#004b00" d="M301,-72.5C301,-72.5 595.5,-72.5 595.5,-72.5 601.5,-72.5 607.5,-78.5 607.5,-84.5 607.5,-84.5 607.5,-142.5 607.5,-142.5 607.5,-148.5 601.5,-154.5 595.5,-154.5 595.5,-154.5 301,-154.5 301,-154.5 295,-154.5 289,-148.5 289,-142.5 289,-142.5 289,-84.5 289,-84.5 289,-78.5 295,-72.5 301,-72.5"/>
<text text-anchor="middle" x="448.25" y="-137.2" font-family="Times New Roman,serif" font-size="14.00">data = tref </text>
<text text-anchor="middle" x="448.25" y="-120.7" font-family="Times New Roman,serif" font-size="14.00"> addr: 00000298495590d0</text>
<polyline fill="none" stroke="#004b00" points="289,-113.5 607.5,-113.5"/>
<text text-anchor="middle" x="368.62" y="-96.2" font-family="Times New Roman,serif" font-size="14.00">L:</text>
<text text-anchor="middle" x="368.62" y="-79.7" font-family="Times New Roman,serif" font-size="14.00"> addr: 0000000000000000</text>
<polyline fill="none" stroke="#004b00" points="448.25,-72.5 448.25,-113.5"/>
<text text-anchor="middle" x="527.88" y="-96.2" font-family="Times New Roman,serif" font-size="14.00">R: </text>
<text text-anchor="middle" x="527.88" y="-79.7" font-family="Times New Roman,serif" font-size="14.00"> addr: 0000000000000000</text>
</g>
<!-- node_00000298495590b0&#45;&gt;node_00000298495590d0 -->
<g id="edge10" class="edge">
<title>node_00000298495590b0&#45;&gt;node_00000298495590d0</title>
<path fill="none" stroke="#004b00" d="M479.73,-191.24C476.3,-182.87 472.64,-173.95 469.08,-165.27"/>
<polygon fill="#004b00" stroke="#004b00" points="472.41,-164.16 465.37,-156.24 465.93,-166.82 472.41,-164.16"/>
</g>
<!-- node_00000298495591b0 -->
<g id="node10" class="node">
<title>node_00000298495591b0</title>
<path fill="#a2f8a4" stroke="#004b00" d="M638,-72.5C638,-72.5 932.5,-72.5 932.5,-72.5 938.5,-72.5 944.5,-78.5 944.5,-84.5 944.5,-84.5 944.5,-142.5 944.5,-142.5 944.5,-148.5 938.5,-154.5 932.5,-154.5 932.5,-154.5 638,-154.5 638,-154.5 632,-154.5 626,-148.5 626,-142.5 626,-142.5 626,-84.5 626,-84.5 626,-78.5 632,-72.5 638,-72.5"/>
<text text-anchor="middle" x="785.25" y="-137.2" font-family="Times New Roman,serif" font-size="14.00">data = NO NO </text>
<text text-anchor="middle" x="785.25" y="-120.7" font-family="Times New Roman,serif" font-size="14.00"> addr: 00000298495591b0</text>
<polyline fill="none" stroke="#004b00" points="626,-113.5 944.5,-113.5"/>
<text text-anchor="middle" x="705.62" y="-96.2" font-family="Times New Roman,serif" font-size="14.00">L:</text>
<text text-anchor="middle" x="705.62" y="-79.7" font-family="Times New Roman,serif" font-size="14.00"> addr: 0000000000000000</text>
<polyline fill="none" stroke="#004b00" points="785.25,-72.5 785.25,-113.5"/>
<text text-anchor="middle" x="864.88" y="-96.2" font-family="Times New Roman,serif" font-size="14.00">R: </text>
<text text-anchor="middle" x="864.88" y="-79.7" font-family="Times New Roman,serif" font-size="14.00"> addr: 0000000000000000</text>
</g>
<!-- node_00000298495590b0&#45;&gt;node_00000298495591b0 -->
<g id="edge11" class="edge">
<title>node_00000298495590b0&#45;&gt;node_00000298495591b0</title>
<path fill="none" stroke="#004b00" d="M596.11,-191.07C621.49,-180.8 648.91,-169.7 674.79,-159.22"/>
<polygon fill="#004b00" stroke="#004b00" points="676.03,-162.5 683.98,-155.5 673.4,-156.01 676.03,-162.5"/>
</g>
<!-- 4 -->
<g id="node11" class="node">
<title>4</title>
<ellipse fill="#fe5656" stroke="#581804" cx="980.25" cy="-18" rx="18" ry="18"/>
<text text-anchor="middle" x="980.25" y="-12.95" font-family="Times New Roman,serif" font-size="14.00">4</text>
</g>
<!-- 3&#45;&gt;4 -->
<g id="edge13" class="edge">
<title>3&#45;&gt;4</title>
<path fill="none" stroke="white" d="M966.59,-101.41C959.31,-86.51 958.06,-59.7 962.84,-40.71"/>
<polygon fill="white" stroke="white" points="966.06,-42.1 966.09,-31.51 959.46,-39.77 966.06,-42.1"/>
</g>
<!-- 3&#45;&gt;4 -->
<g id="edge16" class="edge">
<title>3&#45;&gt;4</title>
<path fill="none" stroke="white" d="M974.93,-95.78C973.41,-82.22 973.1,-62.81 974.01,-46.9"/>
<polygon fill="white" stroke="white" points="977.49,-47.33 974.83,-37.08 970.51,-46.76 977.49,-47.33"/>
</g>
<!-- 3&#45;&gt;4 -->
<g id="edge17" class="edge">
<title>3&#45;&gt;4</title>
<path fill="none" stroke="white" d="M985.57,-95.78C987.09,-82.22 987.4,-62.81 986.49,-46.9"/>
<polygon fill="white" stroke="white" points="989.99,-46.76 985.67,-37.08 983.01,-47.33 989.99,-46.76"/>
</g>
<!-- 3&#45;&gt;4 -->
<g id="edge20" class="edge">
<title>3&#45;&gt;4</title>
<path fill="none" stroke="white" d="M993.91,-101.41C1001.19,-86.51 1002.44,-59.7 997.66,-40.71"/>
<polygon fill="white" stroke="white" points="1001.04,-39.77 994.41,-31.51 994.44,-42.1 1001.04,-39.77"/>
</g>
<!-- node_l_null_00000298495590d0 -->
<g id="node12" class="node">
<title>node_l_null_00000298495590d0</title>
<ellipse fill="#a2f0f8" stroke="#007cff" cx="411.25" cy="-18" rx="27" ry="18"/>
<text text-anchor="middle" x="411.25" y="-12.95" font-family="Times New Roman,serif" font-size="14.00">null</text>
</g>
<!-- node_00000298495590d0&#45;&gt;node_l_null_00000298495590d0 -->
<g id="edge14" class="edge">
<title>node_00000298495590d0&#45;&gt;node_l_null_00000298495590d0</title>
<path fill="none" stroke="#007cff" d="M432.24,-72.03C428.79,-63.31 425.22,-54.29 422.02,-46.22"/>
<polygon fill="#007cff" stroke="#007cff" points="425.3,-44.99 418.36,-36.98 418.79,-47.56 425.3,-44.99"/>
</g>
<!-- node_r_null_00000298495590d0 -->
<g id="node13" class="node">
<title>node_r_null_00000298495590d0</title>
<ellipse fill="#a2f0f8" stroke="#007cff" cx="484.25" cy="-18" rx="27.81" ry="18"/>
<text text-anchor="middle" x="484.25" y="-12.95" font-family="Times New Roman,serif" font-size="14.00"> null</text>
</g>
<!-- node_00000298495590d0&#45;&gt;node_r_null_00000298495590d0 -->
<g id="edge15" class="edge">
<title>node_00000298495590d0&#45;&gt;node_r_null_00000298495590d0</title>
<path fill="none" stroke="#007cff" d="M463.83,-72.03C467.19,-63.31 470.66,-54.29 473.77,-46.22"/>
<polygon fill="#007cff" stroke="#007cff" points="477,-47.57 477.33,-36.98 470.47,-45.06 477,-47.57"/>
</g>
<!-- node_l_null_00000298495591b0 -->
<g id="node14" class="node">
<title>node_l_null_00000298495591b0</title>
<ellipse fill="#a2f0f8" stroke="#007cff" cx="748.25" cy="-18" rx="27" ry="18"/>
<text text-anchor="middle" x="748.25" y="-12.95" font-family="Times New Roman,serif" font-size="14.00">null</text>
</g>
<!-- node_00000298495591b0&#45;&gt;node_l_null_00000298495591b0 -->
<g id="edge18" class="edge">
<title>node_00000298495591b0&#45;&gt;node_l_null_00000298495591b0</title>
<path fill="none" stroke="#007cff" d="M769.24,-72.03C765.79,-63.31 762.22,-54.29 759.02,-46.22"/>
<polygon fill="#007cff" stroke="#007cff" points="762.3,-44.99 755.36,-36.98 755.79,-47.56 762.3,-44.99"/>
</g>
<!-- node_r_null_00000298495591b0 -->
<g id="node15" class="node">
<title>node_r_null_00000298495591b0</title>
<ellipse fill="#a2f0f8" stroke="#007cff" cx="821.25" cy="-18" rx="27.81" ry="18"/>
<text text-anchor="middle" x="821.25" y="-12.95" font-family="Times New Roman,serif" font-size="14.00"> null</text>
</g>
<!-- node_00000298495591b0&#45;&gt;node_r_null_00000298495591b0 -->
<g id="edge19" class="edge">
<title>node_00000298495591b0&#45;&gt;node_r_null_00000298495591b0</title>
<path fill="none" stroke="#007cff" d="M800.83,-72.03C804.19,-63.31 807.66,-54.29 810.77,-46.22"/>
<polygon fill="#007cff" stroke="#007cff" points="814,-47.57 814.33,-36.98 807.47,-45.06 814,-47.57"/>
</g>
</g>
</svg>
