<?xml version="1.0" encoding="UTF-8" standalone="no"?>
<!DOCTYPE svg PUBLIC "-//W3C//DTD SVG 1.1//EN"
 "http://www.w3.org/Graphics/SVG/1.1/DTD/svg11.dtd">
<!-- Generated by graphviz version 12.2.0 (20241103.1931)
 -->
<!-- Pages: 1 -->
<svg width="1386pt" height="639pt"
 viewBox="0.00 0.00 1385.66 639.00" xmlns="http://www.w3.org/2000/svg" xmlns:xlink="http://www.w3.org/1999/xlink">
<g id="graph0" class="graph" transform="scale(1 1) rotate(0) translate(4 635)">
<polygon fill="white" stroke="none" points="-4,4 -4,-635 1381.66,-635 1381.66,4 -4,4"/>
<!-- node_00000152826290d0 -->
<g id="node1" class="node">
<title>node_00000152826290d0</title>
<path fill="#ffa615" stroke="#004b00" d="M215.25,-548.5C215.25,-548.5 505.25,-548.5 505.25,-548.5 511.25,-548.5 517.25,-554.5 517.25,-560.5 517.25,-560.5 517.25,-618.5 517.25,-618.5 517.25,-624.5 511.25,-630.5 505.25,-630.5 505.25,-630.5 215.25,-630.5 215.25,-630.5 209.25,-630.5 203.25,-624.5 203.25,-618.5 203.25,-618.5 203.25,-560.5 203.25,-560.5 203.25,-554.5 209.25,-548.5 215.25,-548.5"/>
<text text-anchor="middle" x="360.25" y="-613.2" font-family="Times New Roman,serif" font-size="14.00">data = Qvadrober </text>
<text text-anchor="middle" x="360.25" y="-596.7" font-family="Times New Roman,serif" font-size="14.00"> addr: 00000152826290d0</text>
<polyline fill="none" stroke="#004b00" points="203.25,-589.5 517.25,-589.5"/>
<text text-anchor="middle" x="280.62" y="-572.2" font-family="Times New Roman,serif" font-size="14.00">L:</text>
<text text-anchor="middle" x="280.62" y="-555.7" font-family="Times New Roman,serif" font-size="14.00"> addr: 0000015282628ff0</text>
<polyline fill="none" stroke="#004b00" points="358,-548.5 358,-589.5"/>
<text text-anchor="middle" x="437.62" y="-572.2" font-family="Times New Roman,serif" font-size="14.00">R: </text>
<text text-anchor="middle" x="437.62" y="-555.7" font-family="Times New Roman,serif" font-size="14.00"> addr: 00000152826292b0</text>
</g>
<!-- node_0000015282628ff0 -->
<g id="node4" class="node">
<title>node_0000015282628ff0</title>
<path fill="#a2f8a4" stroke="#004b00" d="M44,-429.5C44,-429.5 338.5,-429.5 338.5,-429.5 344.5,-429.5 350.5,-435.5 350.5,-441.5 350.5,-441.5 350.5,-499.5 350.5,-499.5 350.5,-505.5 344.5,-511.5 338.5,-511.5 338.5,-511.5 44,-511.5 44,-511.5 38,-511.5 32,-505.5 32,-499.5 32,-499.5 32,-441.5 32,-441.5 32,-435.5 38,-429.5 44,-429.5"/>
<text text-anchor="middle" x="191.25" y="-494.2" font-family="Times New Roman,serif" font-size="14.00">data = Ded </text>
<text text-anchor="middle" x="191.25" y="-477.7" font-family="Times New Roman,serif" font-size="14.00"> addr: 0000015282628ff0</text>
<polyline fill="none" stroke="#004b00" points="32,-470.5 350.5,-470.5"/>
<text text-anchor="middle" x="111.62" y="-453.2" font-family="Times New Roman,serif" font-size="14.00">L:</text>
<text text-anchor="middle" x="111.62" y="-436.7" font-family="Times New Roman,serif" font-size="14.00"> addr: 0000000000000000</text>
<polyline fill="none" stroke="#004b00" points="191.25,-429.5 191.25,-470.5"/>
<text text-anchor="middle" x="270.88" y="-453.2" font-family="Times New Roman,serif" font-size="14.00">R: </text>
<text text-anchor="middle" x="270.88" y="-436.7" font-family="Times New Roman,serif" font-size="14.00"> addr: 0000000000000000</text>
</g>
<!-- node_00000152826290d0&#45;&gt;node_0000015282628ff0 -->
<g id="edge2" class="edge">
<title>node_00000152826290d0&#45;&gt;node_0000015282628ff0</title>
<path fill="none" stroke="#004b00" d="M302.09,-548.24C288.15,-538.58 273.14,-528.2 258.82,-518.28"/>
<polygon fill="#004b00" stroke="#004b00" points="260.98,-515.51 250.76,-512.7 256.99,-521.27 260.98,-515.51"/>
</g>
<!-- node_00000152826292b0 -->
<g id="node5" class="node">
<title>node_00000152826292b0</title>
<path fill="#a2f8a4" stroke="#004b00" d="M381,-429.5C381,-429.5 675.5,-429.5 675.5,-429.5 681.5,-429.5 687.5,-435.5 687.5,-441.5 687.5,-441.5 687.5,-499.5 687.5,-499.5 687.5,-505.5 681.5,-511.5 675.5,-511.5 675.5,-511.5 381,-511.5 381,-511.5 375,-511.5 369,-505.5 369,-499.5 369,-499.5 369,-441.5 369,-441.5 369,-435.5 375,-429.5 381,-429.5"/>
<text text-anchor="middle" x="528.25" y="-494.2" font-family="Times New Roman,serif" font-size="14.00">data = Zhivitnoe </text>
<text text-anchor="middle" x="528.25" y="-477.7" font-family="Times New Roman,serif" font-size="14.00"> addr: 00000152826292b0</text>
<polyline fill="none" stroke="#004b00" points="369,-470.5 687.5,-470.5"/>
<text text-anchor="middle" x="448.62" y="-453.2" font-family="Times New Roman,serif" font-size="14.00">L:</text>
<text text-anchor="middle" x="448.62" y="-436.7" font-family="Times New Roman,serif" font-size="14.00"> addr: 0000015282629230</text>
<polyline fill="none" stroke="#004b00" points="528.25,-429.5 528.25,-470.5"/>
<text text-anchor="middle" x="607.88" y="-453.2" font-family="Times New Roman,serif" font-size="14.00">R: </text>
<text text-anchor="middle" x="607.88" y="-436.7" font-family="Times New Roman,serif" font-size="14.00"> addr: 0000015282629330</text>
</g>
<!-- node_00000152826290d0&#45;&gt;node_00000152826292b0 -->
<g id="edge3" class="edge">
<title>node_00000152826290d0&#45;&gt;node_00000152826292b0</title>
<path fill="none" stroke="#004b00" d="M418.07,-548.24C431.93,-538.58 446.84,-528.2 461.08,-518.28"/>
<polygon fill="#004b00" stroke="#004b00" points="462.88,-521.29 469.09,-512.7 458.88,-515.55 462.88,-521.29"/>
</g>
<!-- 1 -->
<g id="node2" class="node">
<title>1</title>
<ellipse fill="#fe5656" stroke="#581804" cx="1330.25" cy="-589.5" rx="18" ry="18"/>
<text text-anchor="middle" x="1330.25" y="-584.45" font-family="Times New Roman,serif" font-size="14.00">1</text>
</g>
<!-- 2 -->
<g id="node3" class="node">
<title>2</title>
<ellipse fill="#fe5656" stroke="#581804" cx="1330.25" cy="-470.5" rx="18" ry="18"/>
<text text-anchor="middle" x="1330.25" y="-465.45" font-family="Times New Roman,serif" font-size="14.00">2</text>
</g>
<!-- 1&#45;&gt;2 -->
<g id="edge1" class="edge">
<title>1&#45;&gt;2</title>
<path fill="none" stroke="white" d="M1325.35,-571.74C1323.26,-552.88 1322.94,-521.96 1324.4,-499.44"/>
<polygon fill="white" stroke="white" points="1327.86,-500 1325.22,-489.74 1320.89,-499.41 1327.86,-500"/>
</g>
<!-- 1&#45;&gt;2 -->
<g id="edge4" class="edge">
<title>1&#45;&gt;2</title>
<path fill="none" stroke="white" d="M1335.15,-571.74C1337.24,-552.88 1337.56,-521.96 1336.1,-499.44"/>
<polygon fill="white" stroke="white" points="1339.61,-499.41 1335.28,-489.74 1332.64,-500 1339.61,-499.41"/>
</g>
<!-- 3 -->
<g id="node6" class="node">
<title>3</title>
<ellipse fill="#fe5656" stroke="#581804" cx="1330.25" cy="-351.5" rx="18" ry="18"/>
<text text-anchor="middle" x="1330.25" y="-346.45" font-family="Times New Roman,serif" font-size="14.00">3</text>
</g>
<!-- 2&#45;&gt;3 -->
<g id="edge5" class="edge">
<title>2&#45;&gt;3</title>
<path fill="none" stroke="white" d="M1317.33,-457.42C1308.94,-438.15 1307.75,-400.14 1313.76,-375.54"/>
<polygon fill="white" stroke="white" points="1317.05,-376.72 1316.81,-366.13 1310.4,-374.56 1317.05,-376.72"/>
</g>
<!-- 2&#45;&gt;3 -->
<g id="edge8" class="edge">
<title>2&#45;&gt;3</title>
<path fill="none" stroke="white" d="M1325.35,-452.74C1323.26,-433.88 1322.94,-402.96 1324.4,-380.44"/>
<polygon fill="white" stroke="white" points="1327.86,-381 1325.22,-370.74 1320.89,-380.41 1327.86,-381"/>
</g>
<!-- 2&#45;&gt;3 -->
<g id="edge9" class="edge">
<title>2&#45;&gt;3</title>
<path fill="none" stroke="white" d="M1335.15,-452.74C1337.24,-433.88 1337.56,-402.96 1336.1,-380.44"/>
<polygon fill="white" stroke="white" points="1339.61,-380.41 1335.28,-370.74 1332.64,-381 1339.61,-380.41"/>
</g>
<!-- 2&#45;&gt;3 -->
<g id="edge12" class="edge">
<title>2&#45;&gt;3</title>
<path fill="none" stroke="white" d="M1343.17,-457.42C1351.56,-438.15 1352.75,-400.14 1346.74,-375.54"/>
<polygon fill="white" stroke="white" points="1350.1,-374.56 1343.69,-366.13 1343.45,-376.72 1350.1,-374.56"/>
</g>
<!-- node_l_null_0000015282628ff0 -->
<g id="node7" class="node">
<title>node_l_null_0000015282628ff0</title>
<ellipse fill="#a2f0f8" stroke="#007cff" cx="154.25" cy="-351.5" rx="27" ry="18"/>
<text text-anchor="middle" x="154.25" y="-346.45" font-family="Times New Roman,serif" font-size="14.00">null</text>
</g>
<!-- node_0000015282628ff0&#45;&gt;node_l_null_0000015282628ff0 -->
<g id="edge6" class="edge">
<title>node_0000015282628ff0&#45;&gt;node_l_null_0000015282628ff0</title>
<path fill="none" stroke="#007cff" d="M178.52,-429.24C173.4,-413.07 167.64,-394.83 163.01,-380.2"/>
<polygon fill="#007cff" stroke="#007cff" points="166.38,-379.26 160.03,-370.78 159.71,-381.37 166.38,-379.26"/>
</g>
<!-- node_r_null_0000015282628ff0 -->
<g id="node8" class="node">
<title>node_r_null_0000015282628ff0</title>
<ellipse fill="#a2f0f8" stroke="#007cff" cx="227.25" cy="-351.5" rx="27.81" ry="18"/>
<text text-anchor="middle" x="227.25" y="-346.45" font-family="Times New Roman,serif" font-size="14.00"> null</text>
</g>
<!-- node_0000015282628ff0&#45;&gt;node_r_null_0000015282628ff0 -->
<g id="edge7" class="edge">
<title>node_0000015282628ff0&#45;&gt;node_r_null_0000015282628ff0</title>
<path fill="none" stroke="#007cff" d="M203.64,-429.24C208.58,-413.17 214.15,-395.07 218.64,-380.48"/>
<polygon fill="#007cff" stroke="#007cff" points="221.93,-381.68 221.53,-371.09 215.24,-379.62 221.93,-381.68"/>
</g>
<!-- node_0000015282629230 -->
<g id="node9" class="node">
<title>node_0000015282629230</title>
<path fill="#a2f8a4" stroke="#004b00" d="M333,-310.5C333,-310.5 627.5,-310.5 627.5,-310.5 633.5,-310.5 639.5,-316.5 639.5,-322.5 639.5,-322.5 639.5,-380.5 639.5,-380.5 639.5,-386.5 633.5,-392.5 627.5,-392.5 627.5,-392.5 333,-392.5 333,-392.5 327,-392.5 321,-386.5 321,-380.5 321,-380.5 321,-322.5 321,-322.5 321,-316.5 327,-310.5 333,-310.5"/>
<text text-anchor="middle" x="480.25" y="-375.2" font-family="Times New Roman,serif" font-size="14.00">data = Na phistexe </text>
<text text-anchor="middle" x="480.25" y="-358.7" font-family="Times New Roman,serif" font-size="14.00"> addr: 0000015282629230</text>
<polyline fill="none" stroke="#004b00" points="321,-351.5 639.5,-351.5"/>
<text text-anchor="middle" x="400.62" y="-334.2" font-family="Times New Roman,serif" font-size="14.00">L:</text>
<text text-anchor="middle" x="400.62" y="-317.7" font-family="Times New Roman,serif" font-size="14.00"> addr: 0000015282629250</text>
<polyline fill="none" stroke="#004b00" points="480.25,-310.5 480.25,-351.5"/>
<text text-anchor="middle" x="559.88" y="-334.2" font-family="Times New Roman,serif" font-size="14.00">R: </text>
<text text-anchor="middle" x="559.88" y="-317.7" font-family="Times New Roman,serif" font-size="14.00"> addr: 0000015282629270</text>
</g>
<!-- node_00000152826292b0&#45;&gt;node_0000015282629230 -->
<g id="edge10" class="edge">
<title>node_00000152826292b0&#45;&gt;node_0000015282629230</title>
<path fill="none" stroke="#004b00" d="M511.73,-429.24C508.3,-420.87 504.64,-411.95 501.08,-403.27"/>
<polygon fill="#004b00" stroke="#004b00" points="504.41,-402.16 497.37,-394.24 497.93,-404.82 504.41,-402.16"/>
</g>
<!-- node_0000015282629330 -->
<g id="node10" class="node">
<title>node_0000015282629330</title>
<path fill="#a2f8a4" stroke="#004b00" d="M669.12,-310.5C669.12,-310.5 961.38,-310.5 961.38,-310.5 967.38,-310.5 973.38,-316.5 973.38,-322.5 973.38,-322.5 973.38,-380.5 973.38,-380.5 973.38,-386.5 967.38,-392.5 961.38,-392.5 961.38,-392.5 669.12,-392.5 669.12,-392.5 663.12,-392.5 657.12,-386.5 657.12,-380.5 657.12,-380.5 657.12,-322.5 657.12,-322.5 657.12,-316.5 663.12,-310.5 669.12,-310.5"/>
<text text-anchor="middle" x="815.25" y="-375.2" font-family="Times New Roman,serif" font-size="14.00">data = Vedet matan </text>
<text text-anchor="middle" x="815.25" y="-358.7" font-family="Times New Roman,serif" font-size="14.00"> addr: 0000015282629330</text>
<polyline fill="none" stroke="#004b00" points="657.12,-351.5 973.38,-351.5"/>
<text text-anchor="middle" x="736.38" y="-334.2" font-family="Times New Roman,serif" font-size="14.00">L:</text>
<text text-anchor="middle" x="736.38" y="-317.7" font-family="Times New Roman,serif" font-size="14.00"> addr: 000001528262a000</text>
<polyline fill="none" stroke="#004b00" points="815.62,-310.5 815.62,-351.5"/>
<text text-anchor="middle" x="894.5" y="-334.2" font-family="Times New Roman,serif" font-size="14.00">R: </text>
<text text-anchor="middle" x="894.5" y="-317.7" font-family="Times New Roman,serif" font-size="14.00"> addr: 000001528262a1e0</text>
</g>
<!-- node_00000152826292b0&#45;&gt;node_0000015282629330 -->
<g id="edge11" class="edge">
<title>node_00000152826292b0&#45;&gt;node_0000015282629330</title>
<path fill="none" stroke="#004b00" d="M627.42,-429.07C652.63,-418.8 679.86,-407.7 705.55,-397.22"/>
<polygon fill="#004b00" stroke="#004b00" points="706.73,-400.52 714.67,-393.5 704.09,-394.04 706.73,-400.52"/>
</g>
<!-- 4 -->
<g id="node11" class="node">
<title>4</title>
<ellipse fill="#fe5656" stroke="#581804" cx="1330.25" cy="-232.5" rx="18" ry="18"/>
<text text-anchor="middle" x="1330.25" y="-227.45" font-family="Times New Roman,serif" font-size="14.00">4</text>
</g>
<!-- 3&#45;&gt;4 -->
<g id="edge13" class="edge">
<title>3&#45;&gt;4</title>
<path fill="none" stroke="white" d="M1317.33,-338.42C1308.94,-319.15 1307.75,-281.14 1313.76,-256.54"/>
<polygon fill="white" stroke="white" points="1317.05,-257.72 1316.81,-247.13 1310.4,-255.56 1317.05,-257.72"/>
</g>
<!-- 3&#45;&gt;4 -->
<g id="edge16" class="edge">
<title>3&#45;&gt;4</title>
<path fill="none" stroke="white" d="M1325.35,-333.74C1323.26,-314.88 1322.94,-283.96 1324.4,-261.44"/>
<polygon fill="white" stroke="white" points="1327.86,-262 1325.22,-251.74 1320.89,-261.41 1327.86,-262"/>
</g>
<!-- 3&#45;&gt;4 -->
<g id="edge25" class="edge">
<title>3&#45;&gt;4</title>
<path fill="none" stroke="white" d="M1335.15,-333.74C1337.24,-314.88 1337.56,-283.96 1336.1,-261.44"/>
<polygon fill="white" stroke="white" points="1339.61,-261.41 1335.28,-251.74 1332.64,-262 1339.61,-261.41"/>
</g>
<!-- 3&#45;&gt;4 -->
<g id="edge28" class="edge">
<title>3&#45;&gt;4</title>
<path fill="none" stroke="white" d="M1343.17,-338.42C1351.56,-319.15 1352.75,-281.14 1346.74,-256.54"/>
<polygon fill="white" stroke="white" points="1350.1,-255.56 1343.69,-247.13 1343.45,-257.72 1350.1,-255.56"/>
</g>
<!-- node_0000015282629250 -->
<g id="node12" class="node">
<title>node_0000015282629250</title>
<path fill="#a2f8a4" stroke="#004b00" d="M12,-191.5C12,-191.5 306.5,-191.5 306.5,-191.5 312.5,-191.5 318.5,-197.5 318.5,-203.5 318.5,-203.5 318.5,-261.5 318.5,-261.5 318.5,-267.5 312.5,-273.5 306.5,-273.5 306.5,-273.5 12,-273.5 12,-273.5 6,-273.5 0,-267.5 0,-261.5 0,-261.5 0,-203.5 0,-203.5 0,-197.5 6,-191.5 12,-191.5"/>
<text text-anchor="middle" x="159.25" y="-256.2" font-family="Times New Roman,serif" font-size="14.00">data = Svinya </text>
<text text-anchor="middle" x="159.25" y="-239.7" font-family="Times New Roman,serif" font-size="14.00"> addr: 0000015282629250</text>
<polyline fill="none" stroke="#004b00" points="0,-232.5 318.5,-232.5"/>
<text text-anchor="middle" x="79.62" y="-215.2" font-family="Times New Roman,serif" font-size="14.00">L:</text>
<text text-anchor="middle" x="79.62" y="-198.7" font-family="Times New Roman,serif" font-size="14.00"> addr: 0000000000000000</text>
<polyline fill="none" stroke="#004b00" points="159.25,-191.5 159.25,-232.5"/>
<text text-anchor="middle" x="238.88" y="-215.2" font-family="Times New Roman,serif" font-size="14.00">R: </text>
<text text-anchor="middle" x="238.88" y="-198.7" font-family="Times New Roman,serif" font-size="14.00"> addr: 0000000000000000</text>
</g>
<!-- node_0000015282629230&#45;&gt;node_0000015282629250 -->
<g id="edge14" class="edge">
<title>node_0000015282629230&#45;&gt;node_0000015282629250</title>
<path fill="none" stroke="#004b00" d="M369.33,-310.07C340.76,-299.66 309.87,-288.4 280.8,-277.8"/>
<polygon fill="#004b00" stroke="#004b00" points="282.19,-274.58 271.6,-274.45 279.79,-281.16 282.19,-274.58"/>
</g>
<!-- node_0000015282629270 -->
<g id="node13" class="node">
<title>node_0000015282629270</title>
<path fill="#a2f8a4" stroke="#004b00" d="M349,-191.5C349,-191.5 643.5,-191.5 643.5,-191.5 649.5,-191.5 655.5,-197.5 655.5,-203.5 655.5,-203.5 655.5,-261.5 655.5,-261.5 655.5,-267.5 649.5,-273.5 643.5,-273.5 643.5,-273.5 349,-273.5 349,-273.5 343,-273.5 337,-267.5 337,-261.5 337,-261.5 337,-203.5 337,-203.5 337,-197.5 343,-191.5 349,-191.5"/>
<text text-anchor="middle" x="496.25" y="-256.2" font-family="Times New Roman,serif" font-size="14.00">data = Korova </text>
<text text-anchor="middle" x="496.25" y="-239.7" font-family="Times New Roman,serif" font-size="14.00"> addr: 0000015282629270</text>
<polyline fill="none" stroke="#004b00" points="337,-232.5 655.5,-232.5"/>
<text text-anchor="middle" x="416.62" y="-215.2" font-family="Times New Roman,serif" font-size="14.00">L:</text>
<text text-anchor="middle" x="416.62" y="-198.7" font-family="Times New Roman,serif" font-size="14.00"> addr: 0000000000000000</text>
<polyline fill="none" stroke="#004b00" points="496.25,-191.5 496.25,-232.5"/>
<text text-anchor="middle" x="575.88" y="-215.2" font-family="Times New Roman,serif" font-size="14.00">R: </text>
<text text-anchor="middle" x="575.88" y="-198.7" font-family="Times New Roman,serif" font-size="14.00"> addr: 0000000000000000</text>
</g>
<!-- node_0000015282629230&#45;&gt;node_0000015282629270 -->
<g id="edge15" class="edge">
<title>node_0000015282629230&#45;&gt;node_0000015282629270</title>
<path fill="none" stroke="#004b00" d="M485.76,-310.24C486.86,-302.15 488.04,-293.54 489.19,-285.13"/>
<polygon fill="#004b00" stroke="#004b00" points="492.64,-285.72 490.53,-275.34 485.71,-284.77 492.64,-285.72"/>
</g>
<!-- node_000001528262a000 -->
<g id="node19" class="node">
<title>node_000001528262a000</title>
<path fill="#a2f8a4" stroke="#004b00" d="M651,-72.5C651,-72.5 945.5,-72.5 945.5,-72.5 951.5,-72.5 957.5,-78.5 957.5,-84.5 957.5,-84.5 957.5,-142.5 957.5,-142.5 957.5,-148.5 951.5,-154.5 945.5,-154.5 945.5,-154.5 651,-154.5 651,-154.5 645,-154.5 639,-148.5 639,-142.5 639,-142.5 639,-84.5 639,-84.5 639,-78.5 645,-72.5 651,-72.5"/>
<text text-anchor="middle" x="798.25" y="-137.2" font-family="Times New Roman,serif" font-size="14.00">data = Zagr_mamont </text>
<text text-anchor="middle" x="798.25" y="-120.7" font-family="Times New Roman,serif" font-size="14.00"> addr: 000001528262a000</text>
<polyline fill="none" stroke="#004b00" points="639,-113.5 957.5,-113.5"/>
<text text-anchor="middle" x="718.62" y="-96.2" font-family="Times New Roman,serif" font-size="14.00">L:</text>
<text text-anchor="middle" x="718.62" y="-79.7" font-family="Times New Roman,serif" font-size="14.00"> addr: 0000000000000000</text>
<polyline fill="none" stroke="#004b00" points="798.25,-72.5 798.25,-113.5"/>
<text text-anchor="middle" x="877.88" y="-96.2" font-family="Times New Roman,serif" font-size="14.00">R: </text>
<text text-anchor="middle" x="877.88" y="-79.7" font-family="Times New Roman,serif" font-size="14.00"> addr: 0000000000000000</text>
</g>
<!-- node_0000015282629330&#45;&gt;node_000001528262a000 -->
<g id="edge26" class="edge">
<title>node_0000015282629330&#45;&gt;node_000001528262a000</title>
<path fill="none" stroke="#004b00" d="M812.35,-310.2C809.48,-270.4 805.08,-209.38 801.96,-166.07"/>
<polygon fill="#004b00" stroke="#004b00" points="805.46,-165.87 801.25,-156.15 798.48,-166.37 805.46,-165.87"/>
</g>
<!-- node_000001528262a1e0 -->
<g id="node20" class="node">
<title>node_000001528262a1e0</title>
<path fill="#a2f8a4" stroke="#004b00" d="M838.75,-191.5C838.75,-191.5 1131.75,-191.5 1131.75,-191.5 1137.75,-191.5 1143.75,-197.5 1143.75,-203.5 1143.75,-203.5 1143.75,-261.5 1143.75,-261.5 1143.75,-267.5 1137.75,-273.5 1131.75,-273.5 1131.75,-273.5 838.75,-273.5 838.75,-273.5 832.75,-273.5 826.75,-267.5 826.75,-261.5 826.75,-261.5 826.75,-203.5 826.75,-203.5 826.75,-197.5 832.75,-191.5 838.75,-191.5"/>
<text text-anchor="middle" x="985.25" y="-256.2" font-family="Times New Roman,serif" font-size="14.00">data = Umniy zhachit dobriy </text>
<text text-anchor="middle" x="985.25" y="-239.7" font-family="Times New Roman,serif" font-size="14.00"> addr: 000001528262a1e0</text>
<polyline fill="none" stroke="#004b00" points="826.75,-232.5 1143.75,-232.5"/>
<text text-anchor="middle" x="906" y="-215.2" font-family="Times New Roman,serif" font-size="14.00">L:</text>
<text text-anchor="middle" x="906" y="-198.7" font-family="Times New Roman,serif" font-size="14.00"> addr: 000001528262a520</text>
<polyline fill="none" stroke="#004b00" points="985.25,-191.5 985.25,-232.5"/>
<text text-anchor="middle" x="1064.5" y="-215.2" font-family="Times New Roman,serif" font-size="14.00">R: </text>
<text text-anchor="middle" x="1064.5" y="-198.7" font-family="Times New Roman,serif" font-size="14.00"> addr: 000001528262a000</text>
</g>
<!-- node_0000015282629330&#45;&gt;node_000001528262a1e0 -->
<g id="edge27" class="edge">
<title>node_0000015282629330&#45;&gt;node_000001528262a1e0</title>
<path fill="none" stroke="#004b00" d="M873.75,-310.24C887.78,-300.58 902.87,-290.2 917.28,-280.28"/>
<polygon fill="#004b00" stroke="#004b00" points="919.14,-283.25 925.39,-274.7 915.17,-277.48 919.14,-283.25"/>
</g>
<!-- 5 -->
<g id="node14" class="node">
<title>5</title>
<ellipse fill="#fe5656" stroke="#581804" cx="1330.25" cy="-113.5" rx="18" ry="18"/>
<text text-anchor="middle" x="1330.25" y="-108.45" font-family="Times New Roman,serif" font-size="14.00">5</text>
</g>
<!-- 4&#45;&gt;5 -->
<g id="edge17" class="edge">
<title>4&#45;&gt;5</title>
<path fill="none" stroke="white" d="M1312.42,-227.87C1276.69,-212 1273.51,-148.44 1302.87,-124.07"/>
<polygon fill="white" stroke="white" points="1304.58,-127.13 1311.23,-118.89 1300.89,-121.18 1304.58,-127.13"/>
</g>
<!-- 4&#45;&gt;5 -->
<g id="edge20" class="edge">
<title>4&#45;&gt;5</title>
<path fill="none" stroke="white" d="M1313.56,-224.87C1293.46,-206.69 1291.12,-155.67 1306.55,-129.86"/>
<polygon fill="white" stroke="white" points="1309.15,-132.22 1312.69,-122.23 1303.7,-127.83 1309.15,-132.22"/>
</g>
<!-- 4&#45;&gt;5 -->
<g id="edge21" class="edge">
<title>4&#45;&gt;5</title>
<path fill="none" stroke="white" d="M1317.33,-219.42C1308.94,-200.15 1307.75,-162.14 1313.76,-137.54"/>
<polygon fill="white" stroke="white" points="1317.05,-138.72 1316.81,-128.13 1310.4,-136.56 1317.05,-138.72"/>
</g>
<!-- 4&#45;&gt;5 -->
<g id="edge24" class="edge">
<title>4&#45;&gt;5</title>
<path fill="none" stroke="white" d="M1325.35,-214.74C1323.26,-195.88 1322.94,-164.96 1324.4,-142.44"/>
<polygon fill="white" stroke="white" points="1327.86,-143 1325.22,-132.74 1320.89,-142.41 1327.86,-143"/>
</g>
<!-- 4&#45;&gt;5 -->
<g id="edge29" class="edge">
<title>4&#45;&gt;5</title>
<path fill="none" stroke="white" d="M1335.15,-214.74C1337.24,-195.88 1337.56,-164.96 1336.1,-142.44"/>
<polygon fill="white" stroke="white" points="1339.61,-142.41 1335.28,-132.74 1332.64,-143 1339.61,-142.41"/>
</g>
<!-- 4&#45;&gt;5 -->
<g id="edge32" class="edge">
<title>4&#45;&gt;5</title>
<path fill="none" stroke="white" d="M1343.17,-219.42C1351.56,-200.15 1352.75,-162.14 1346.74,-137.54"/>
<polygon fill="white" stroke="white" points="1350.1,-136.56 1343.69,-128.13 1343.45,-138.72 1350.1,-136.56"/>
</g>
<!-- 4&#45;&gt;5 -->
<g id="edge33" class="edge">
<title>4&#45;&gt;5</title>
<path fill="none" stroke="white" d="M1346.94,-224.87C1367.04,-206.69 1369.38,-155.67 1353.95,-129.86"/>
<polygon fill="white" stroke="white" points="1356.8,-127.83 1347.81,-122.23 1351.35,-132.22 1356.8,-127.83"/>
</g>
<!-- 4&#45;&gt;5 -->
<g id="edge36" class="edge">
<title>4&#45;&gt;5</title>
<path fill="none" stroke="white" d="M1348.08,-227.87C1383.81,-212 1386.99,-148.44 1357.63,-124.07"/>
<polygon fill="white" stroke="white" points="1359.61,-121.18 1349.27,-118.89 1355.92,-127.13 1359.61,-121.18"/>
</g>
<!-- node_l_null_0000015282629250 -->
<g id="node15" class="node">
<title>node_l_null_0000015282629250</title>
<ellipse fill="#a2f0f8" stroke="#007cff" cx="123.25" cy="-113.5" rx="27" ry="18"/>
<text text-anchor="middle" x="123.25" y="-108.45" font-family="Times New Roman,serif" font-size="14.00">null</text>
</g>
<!-- node_0000015282629250&#45;&gt;node_l_null_0000015282629250 -->
<g id="edge18" class="edge">
<title>node_0000015282629250&#45;&gt;node_l_null_0000015282629250</title>
<path fill="none" stroke="#007cff" d="M146.86,-191.24C141.92,-175.17 136.35,-157.07 131.86,-142.48"/>
<polygon fill="#007cff" stroke="#007cff" points="135.26,-141.62 128.97,-133.09 128.57,-143.68 135.26,-141.62"/>
</g>
<!-- node_r_null_0000015282629250 -->
<g id="node16" class="node">
<title>node_r_null_0000015282629250</title>
<ellipse fill="#a2f0f8" stroke="#007cff" cx="196.25" cy="-113.5" rx="27.81" ry="18"/>
<text text-anchor="middle" x="196.25" y="-108.45" font-family="Times New Roman,serif" font-size="14.00"> null</text>
</g>
<!-- node_0000015282629250&#45;&gt;node_r_null_0000015282629250 -->
<g id="edge19" class="edge">
<title>node_0000015282629250&#45;&gt;node_r_null_0000015282629250</title>
<path fill="none" stroke="#007cff" d="M171.98,-191.24C177.06,-175.17 182.79,-157.07 187.4,-142.48"/>
<polygon fill="#007cff" stroke="#007cff" points="190.69,-143.68 190.37,-133.09 184.02,-141.56 190.69,-143.68"/>
</g>
<!-- node_l_null_0000015282629270 -->
<g id="node17" class="node">
<title>node_l_null_0000015282629270</title>
<ellipse fill="#a2f0f8" stroke="#007cff" cx="455.25" cy="-113.5" rx="27" ry="18"/>
<text text-anchor="middle" x="455.25" y="-108.45" font-family="Times New Roman,serif" font-size="14.00">null</text>
</g>
<!-- node_0000015282629270&#45;&gt;node_l_null_0000015282629270 -->
<g id="edge22" class="edge">
<title>node_0000015282629270&#45;&gt;node_l_null_0000015282629270</title>
<path fill="none" stroke="#007cff" d="M482.14,-191.24C476.47,-175.07 470.08,-156.83 464.96,-142.2"/>
<polygon fill="#007cff" stroke="#007cff" points="468.26,-141.05 461.65,-132.77 461.66,-143.36 468.26,-141.05"/>
</g>
<!-- node_r_null_0000015282629270 -->
<g id="node18" class="node">
<title>node_r_null_0000015282629270</title>
<ellipse fill="#a2f0f8" stroke="#007cff" cx="528.25" cy="-113.5" rx="27.81" ry="18"/>
<text text-anchor="middle" x="528.25" y="-108.45" font-family="Times New Roman,serif" font-size="14.00"> null</text>
</g>
<!-- node_0000015282629270&#45;&gt;node_r_null_0000015282629270 -->
<g id="edge23" class="edge">
<title>node_0000015282629270&#45;&gt;node_r_null_0000015282629270</title>
<path fill="none" stroke="#007cff" d="M507.26,-191.24C511.66,-175.17 516.61,-157.07 520.6,-142.48"/>
<polygon fill="#007cff" stroke="#007cff" points="523.9,-143.67 523.16,-133.1 517.15,-141.82 523.9,-143.67"/>
</g>
<!-- 6 -->
<g id="node24" class="node">
<title>6</title>
<ellipse fill="#fe5656" stroke="#581804" cx="1330.25" cy="-18" rx="18" ry="18"/>
<text text-anchor="middle" x="1330.25" y="-12.95" font-family="Times New Roman,serif" font-size="14.00">6</text>
</g>
<!-- 5&#45;&gt;6 -->
<g id="edge37" class="edge">
<title>5&#45;&gt;6</title>
<path fill="none" stroke="white" d="M1316.59,-101.41C1309.31,-86.51 1308.06,-59.7 1312.84,-40.71"/>
<polygon fill="white" stroke="white" points="1316.06,-42.1 1316.09,-31.51 1309.46,-39.77 1316.06,-42.1"/>
</g>
<!-- 5&#45;&gt;6 -->
<g id="edge40" class="edge">
<title>5&#45;&gt;6</title>
<path fill="none" stroke="white" d="M1324.93,-95.78C1323.41,-82.22 1323.1,-62.81 1324.01,-46.9"/>
<polygon fill="white" stroke="white" points="1327.49,-47.33 1324.83,-37.08 1320.51,-46.76 1327.49,-47.33"/>
</g>
<!-- 5&#45;&gt;6 -->
<g id="edge41" class="edge">
<title>5&#45;&gt;6</title>
<path fill="none" stroke="white" d="M1335.57,-95.78C1337.09,-82.22 1337.4,-62.81 1336.49,-46.9"/>
<polygon fill="white" stroke="white" points="1339.99,-46.76 1335.67,-37.08 1333.01,-47.33 1339.99,-46.76"/>
</g>
<!-- 5&#45;&gt;6 -->
<g id="edge44" class="edge">
<title>5&#45;&gt;6</title>
<path fill="none" stroke="white" d="M1343.91,-101.41C1351.19,-86.51 1352.44,-59.7 1347.66,-40.71"/>
<polygon fill="white" stroke="white" points="1351.04,-39.77 1344.41,-31.51 1344.44,-42.1 1351.04,-39.77"/>
</g>
<!-- node_l_null_000001528262a000 -->
<g id="node21" class="node">
<title>node_l_null_000001528262a000</title>
<ellipse fill="#a2f0f8" stroke="#007cff" cx="761.25" cy="-18" rx="27" ry="18"/>
<text text-anchor="middle" x="761.25" y="-12.95" font-family="Times New Roman,serif" font-size="14.00">null</text>
</g>
<!-- node_000001528262a000&#45;&gt;node_l_null_000001528262a000 -->
<g id="edge30" class="edge">
<title>node_000001528262a000&#45;&gt;node_l_null_000001528262a000</title>
<path fill="none" stroke="#007cff" d="M775.54,-72.03C772.03,-63.54 768.72,-54.77 766.04,-46.87"/>
<polygon fill="#007cff" stroke="#007cff" points="769.43,-45.98 763.09,-37.48 762.75,-48.07 769.43,-45.98"/>
</g>
<!-- node_000001528262a000&#45;&gt;node_l_null_000001528262a000 -->
<g id="edge42" class="edge">
<title>node_000001528262a000&#45;&gt;node_l_null_000001528262a000</title>
<path fill="none" stroke="#007cff" d="M788.93,-72.03C785.45,-62.84 781.49,-53.31 777.62,-44.91"/>
<polygon fill="#007cff" stroke="#007cff" points="780.81,-43.47 773.29,-36 774.51,-46.53 780.81,-43.47"/>
</g>
<!-- node_r_null_000001528262a000 -->
<g id="node22" class="node">
<title>node_r_null_000001528262a000</title>
<ellipse fill="#a2f0f8" stroke="#007cff" cx="834.25" cy="-18" rx="27.81" ry="18"/>
<text text-anchor="middle" x="834.25" y="-12.95" font-family="Times New Roman,serif" font-size="14.00"> null</text>
</g>
<!-- node_000001528262a000&#45;&gt;node_r_null_000001528262a000 -->
<g id="edge31" class="edge">
<title>node_000001528262a000&#45;&gt;node_r_null_000001528262a000</title>
<path fill="none" stroke="#007cff" d="M807.14,-72.03C810.52,-62.84 814.38,-53.31 818.16,-44.91"/>
<polygon fill="#007cff" stroke="#007cff" points="821.26,-46.54 822.39,-36.01 814.94,-43.54 821.26,-46.54"/>
</g>
<!-- node_000001528262a000&#45;&gt;node_r_null_000001528262a000 -->
<g id="edge43" class="edge">
<title>node_000001528262a000&#45;&gt;node_r_null_000001528262a000</title>
<path fill="none" stroke="#007cff" d="M820.53,-72.03C823.94,-63.54 827.17,-54.77 829.75,-46.87"/>
<polygon fill="#007cff" stroke="#007cff" points="833.05,-48.07 832.6,-37.49 826.35,-46.04 833.05,-48.07"/>
</g>
<!-- node_000001528262a1e0&#45;&gt;node_000001528262a000 -->
<g id="edge35" class="edge">
<title>node_000001528262a1e0&#45;&gt;node_000001528262a000</title>
<path fill="none" stroke="#004b00" d="M920.63,-191.07C905.01,-181.3 888.2,-170.78 872.19,-160.76"/>
<polygon fill="#004b00" stroke="#004b00" points="874.49,-158.07 864.15,-155.73 870.77,-164 874.49,-158.07"/>
</g>
<!-- node_000001528262a520 -->
<g id="node23" class="node">
<title>node_000001528262a520</title>
<path fill="#a2f8a4" stroke="#004b00" d="M988,-72.5C988,-72.5 1282.5,-72.5 1282.5,-72.5 1288.5,-72.5 1294.5,-78.5 1294.5,-84.5 1294.5,-84.5 1294.5,-142.5 1294.5,-142.5 1294.5,-148.5 1288.5,-154.5 1282.5,-154.5 1282.5,-154.5 988,-154.5 988,-154.5 982,-154.5 976,-148.5 976,-142.5 976,-142.5 976,-84.5 976,-84.5 976,-78.5 982,-72.5 988,-72.5"/>
<text text-anchor="middle" x="1135.25" y="-137.2" font-family="Times New Roman,serif" font-size="14.00">data = Umnov </text>
<text text-anchor="middle" x="1135.25" y="-120.7" font-family="Times New Roman,serif" font-size="14.00"> addr: 000001528262a520</text>
<polyline fill="none" stroke="#004b00" points="976,-113.5 1294.5,-113.5"/>
<text text-anchor="middle" x="1055.62" y="-96.2" font-family="Times New Roman,serif" font-size="14.00">L:</text>
<text text-anchor="middle" x="1055.62" y="-79.7" font-family="Times New Roman,serif" font-size="14.00"> addr: 0000000000000000</text>
<polyline fill="none" stroke="#004b00" points="1135.25,-72.5 1135.25,-113.5"/>
<text text-anchor="middle" x="1214.88" y="-96.2" font-family="Times New Roman,serif" font-size="14.00">R: </text>
<text text-anchor="middle" x="1214.88" y="-79.7" font-family="Times New Roman,serif" font-size="14.00"> addr: 0000000000000000</text>
</g>
<!-- node_000001528262a1e0&#45;&gt;node_000001528262a520 -->
<g id="edge34" class="edge">
<title>node_000001528262a1e0&#45;&gt;node_000001528262a520</title>
<path fill="none" stroke="#004b00" d="M1036.87,-191.24C1049.01,-181.77 1062.06,-171.59 1074.55,-161.84"/>
<polygon fill="#004b00" stroke="#004b00" points="1076.61,-164.68 1082.34,-155.77 1072.3,-159.16 1076.61,-164.68"/>
</g>
<!-- node_l_null_000001528262a520 -->
<g id="node25" class="node">
<title>node_l_null_000001528262a520</title>
<ellipse fill="#a2f0f8" stroke="#007cff" cx="1098.25" cy="-18" rx="27" ry="18"/>
<text text-anchor="middle" x="1098.25" y="-12.95" font-family="Times New Roman,serif" font-size="14.00">null</text>
</g>
<!-- node_000001528262a520&#45;&gt;node_l_null_000001528262a520 -->
<g id="edge38" class="edge">
<title>node_000001528262a520&#45;&gt;node_l_null_000001528262a520</title>
<path fill="none" stroke="#007cff" d="M1119.24,-72.03C1115.79,-63.31 1112.22,-54.29 1109.02,-46.22"/>
<polygon fill="#007cff" stroke="#007cff" points="1112.3,-44.99 1105.36,-36.98 1105.79,-47.56 1112.3,-44.99"/>
</g>
<!-- node_r_null_000001528262a520 -->
<g id="node26" class="node">
<title>node_r_null_000001528262a520</title>
<ellipse fill="#a2f0f8" stroke="#007cff" cx="1171.25" cy="-18" rx="27.81" ry="18"/>
<text text-anchor="middle" x="1171.25" y="-12.95" font-family="Times New Roman,serif" font-size="14.00"> null</text>
</g>
<!-- node_000001528262a520&#45;&gt;node_r_null_000001528262a520 -->
<g id="edge39" class="edge">
<title>node_000001528262a520&#45;&gt;node_r_null_000001528262a520</title>
<path fill="none" stroke="#007cff" d="M1150.83,-72.03C1154.19,-63.31 1157.66,-54.29 1160.77,-46.22"/>
<polygon fill="#007cff" stroke="#007cff" points="1164,-47.57 1164.33,-36.98 1157.47,-45.06 1164,-47.57"/>
</g>
</g>
</svg>
