<?xml version="1.0" encoding="UTF-8" standalone="no"?>
<!DOCTYPE svg PUBLIC "-//W3C//DTD SVG 1.1//EN"
 "http://www.w3.org/Graphics/SVG/1.1/DTD/svg11.dtd">
<!-- Generated by graphviz version 12.2.0 (20241103.1931)
 -->
<!-- Pages: 1 -->
<svg width="380pt" height="163pt"
 viewBox="0.00 0.00 380.25 163.00" xmlns="http://www.w3.org/2000/svg" xmlns:xlink="http://www.w3.org/1999/xlink">
<g id="graph0" class="graph" transform="scale(1 1) rotate(0) translate(4 159)">
<polygon fill="white" stroke="none" points="-4,4 -4,-159 376.25,-159 376.25,4 -4,4"/>
<!-- node_000001f9d58290f0 -->
<g id="node1" class="node">
<title>node_000001f9d58290f0</title>
<path fill="#ffa615" stroke="#004b00" d="M12,-72.5C12,-72.5 306.5,-72.5 306.5,-72.5 312.5,-72.5 318.5,-78.5 318.5,-84.5 318.5,-84.5 318.5,-142.5 318.5,-142.5 318.5,-148.5 312.5,-154.5 306.5,-154.5 306.5,-154.5 12,-154.5 12,-154.5 6,-154.5 0,-148.5 0,-142.5 0,-142.5 0,-84.5 0,-84.5 0,-78.5 6,-72.5 12,-72.5"/>
<text text-anchor="middle" x="159.25" y="-137.2" font-family="Times New Roman,serif" font-size="14.00">data = </text>
<text text-anchor="middle" x="159.25" y="-120.7" font-family="Times New Roman,serif" font-size="14.00"> addr: 000001f9d58290f0</text>
<polyline fill="none" stroke="#004b00" points="0,-113.5 318.5,-113.5"/>
<text text-anchor="middle" x="79.62" y="-96.2" font-family="Times New Roman,serif" font-size="14.00">L:</text>
<text text-anchor="middle" x="79.62" y="-79.7" font-family="Times New Roman,serif" font-size="14.00"> addr: 0000000000000000</text>
<polyline fill="none" stroke="#004b00" points="159.25,-72.5 159.25,-113.5"/>
<text text-anchor="middle" x="238.88" y="-96.2" font-family="Times New Roman,serif" font-size="14.00">R: </text>
<text text-anchor="middle" x="238.88" y="-79.7" font-family="Times New Roman,serif" font-size="14.00"> addr: 0000000000000000</text>
</g>
<!-- node_l_null_000001f9d58290f0 -->
<g id="node4" class="node">
<title>node_l_null_000001f9d58290f0</title>
<ellipse fill="#a2f0f8" stroke="#007cff" cx="123.25" cy="-18" rx="27" ry="18"/>
<text text-anchor="middle" x="123.25" y="-12.95" font-family="Times New Roman,serif" font-size="14.00">null</text>
</g>
<!-- node_000001f9d58290f0&#45;&gt;node_l_null_000001f9d58290f0 -->
<g id="edge2" class="edge">
<title>node_000001f9d58290f0&#45;&gt;node_l_null_000001f9d58290f0</title>
<path fill="none" stroke="#007cff" d="M143.67,-72.03C140.31,-63.31 136.84,-54.29 133.73,-46.22"/>
<polygon fill="#007cff" stroke="#007cff" points="137.03,-45.06 130.17,-36.98 130.5,-47.57 137.03,-45.06"/>
</g>
<!-- node_r_null_000001f9d58290f0 -->
<g id="node5" class="node">
<title>node_r_null_000001f9d58290f0</title>
<ellipse fill="#a2f0f8" stroke="#007cff" cx="196.25" cy="-18" rx="27.81" ry="18"/>
<text text-anchor="middle" x="196.25" y="-12.95" font-family="Times New Roman,serif" font-size="14.00"> null</text>
</g>
<!-- node_000001f9d58290f0&#45;&gt;node_r_null_000001f9d58290f0 -->
<g id="edge3" class="edge">
<title>node_000001f9d58290f0&#45;&gt;node_r_null_000001f9d58290f0</title>
<path fill="none" stroke="#007cff" d="M175.26,-72.03C178.71,-63.31 182.28,-54.29 185.48,-46.22"/>
<polygon fill="#007cff" stroke="#007cff" points="188.71,-47.56 189.14,-36.98 182.2,-44.99 188.71,-47.56"/>
</g>
<!-- 1 -->
<g id="node2" class="node">
<title>1</title>
<ellipse fill="#fe5656" stroke="#581804" cx="354.25" cy="-113.5" rx="18" ry="18"/>
<text text-anchor="middle" x="354.25" y="-108.45" font-family="Times New Roman,serif" font-size="14.00">1</text>
</g>
<!-- 2 -->
<g id="node3" class="node">
<title>2</title>
<ellipse fill="#fe5656" stroke="#581804" cx="354.25" cy="-18" rx="18" ry="18"/>
<text text-anchor="middle" x="354.25" y="-12.95" font-family="Times New Roman,serif" font-size="14.00">2</text>
</g>
<!-- 1&#45;&gt;2 -->
<g id="edge1" class="edge">
<title>1&#45;&gt;2</title>
<path fill="none" stroke="white" d="M348.93,-95.78C347.41,-82.22 347.1,-62.81 348.01,-46.9"/>
<polygon fill="white" stroke="white" points="351.49,-47.33 348.83,-37.08 344.51,-46.76 351.49,-47.33"/>
</g>
<!-- 1&#45;&gt;2 -->
<g id="edge4" class="edge">
<title>1&#45;&gt;2</title>
<path fill="none" stroke="white" d="M359.57,-95.78C361.09,-82.22 361.4,-62.81 360.49,-46.9"/>
<polygon fill="white" stroke="white" points="363.99,-46.76 359.67,-37.08 357.01,-47.33 363.99,-46.76"/>
</g>
</g>
</svg>
